<?xml version="1.0" encoding="utf-8" standalone="no"?>
<!DOCTYPE svg PUBLIC "-//W3C//DTD SVG 1.1//EN"
  "http://www.w3.org/Graphics/SVG/1.1/DTD/svg11.dtd">
<svg height="345.6pt" version="1.1" viewBox="0 0 460.8 345.6" width="460.8pt" xmlns="http://www.w3.org/2000/svg" xmlns:xlink="http://www.w3.org/1999/xlink">
 <metadata>
  <rdf:RDF xmlns:cc="http://creativecommons.org/ns#" xmlns:dc="http://purl.org/dc/elements/1.1/" xmlns:rdf="http://www.w3.org/1999/02/22-rdf-syntax-ns#">
   <cc:Work>
    <dc:type rdf:resource="http://purl.org/dc/dcmitype/StillImage"/>
    <dc:date>2023-08-12T22:43:28.387962</dc:date>
    <dc:format>image/svg+xml</dc:format>
    <dc:creator>
     <cc:Agent>
      <dc:title>Matplotlib v3.4.1, https://matplotlib.org/</dc:title>
     </cc:Agent>
    </dc:creator>
   </cc:Work>
  </rdf:RDF>
 </metadata>
 <defs>
  <style type="text/css">*{stroke-linecap:butt;stroke-linejoin:round;}</style>
 </defs>
 <g id="figure_1">
  <g id="patch_1">
   <path d="M 0 345.6 
L 460.8 345.6 
L 460.8 0 
L 0 0 
z
" style="fill:#ffffff;"/>
  </g>
  <g id="axes_1">
   <g id="patch_2">
    <path d="M 57.6 307.584 
L 414.72 307.584 
L 414.72 41.472 
L 57.6 41.472 
z
" style="fill:#ffffff;"/>
   </g>
   <g id="matplotlib.axis_1">
    <g id="xtick_1">
     <g id="line2d_1">
      <path clip-path="url(#pd55aa7d238)" d="M 73.832727 307.584 
L 73.832727 41.472 
" style="fill:none;stroke:#b0b0b0;stroke-linecap:square;stroke-width:0.8;"/>
     </g>
     <g id="line2d_2">
      <defs>
       <path d="M 0 0 
L 0 3.5 
" id="md09d11703b" style="stroke:#000000;stroke-width:0.8;"/>
      </defs>
      <g>
       <use style="stroke:#000000;stroke-width:0.8;" x="73.832727" xlink:href="#md09d11703b" y="307.584"/>
      </g>
     </g>
     <g id="text_1">
      <!-- 0.00 -->
      <g transform="translate(62.699915 322.182437)scale(0.1 -0.1)">
       <defs>
        <path d="M 2034 4250 
Q 1547 4250 1301 3770 
Q 1056 3291 1056 2328 
Q 1056 1369 1301 889 
Q 1547 409 2034 409 
Q 2525 409 2770 889 
Q 3016 1369 3016 2328 
Q 3016 3291 2770 3770 
Q 2525 4250 2034 4250 
z
M 2034 4750 
Q 2819 4750 3233 4129 
Q 3647 3509 3647 2328 
Q 3647 1150 3233 529 
Q 2819 -91 2034 -91 
Q 1250 -91 836 529 
Q 422 1150 422 2328 
Q 422 3509 836 4129 
Q 1250 4750 2034 4750 
z
" id="DejaVuSans-30" transform="scale(0.015625)"/>
        <path d="M 684 794 
L 1344 794 
L 1344 0 
L 684 0 
L 684 794 
z
" id="DejaVuSans-2e" transform="scale(0.015625)"/>
       </defs>
       <use xlink:href="#DejaVuSans-30"/>
       <use x="63.623047" xlink:href="#DejaVuSans-2e"/>
       <use x="95.410156" xlink:href="#DejaVuSans-30"/>
       <use x="159.033203" xlink:href="#DejaVuSans-30"/>
      </g>
     </g>
    </g>
    <g id="xtick_2">
     <g id="line2d_3">
      <path clip-path="url(#pd55aa7d238)" d="M 114.414545 307.584 
L 114.414545 41.472 
" style="fill:none;stroke:#b0b0b0;stroke-linecap:square;stroke-width:0.8;"/>
     </g>
     <g id="line2d_4">
      <g>
       <use style="stroke:#000000;stroke-width:0.8;" x="114.414545" xlink:href="#md09d11703b" y="307.584"/>
      </g>
     </g>
     <g id="text_2">
      <!-- 0.25 -->
      <g transform="translate(103.281733 322.182437)scale(0.1 -0.1)">
       <defs>
        <path d="M 1228 531 
L 3431 531 
L 3431 0 
L 469 0 
L 469 531 
Q 828 903 1448 1529 
Q 2069 2156 2228 2338 
Q 2531 2678 2651 2914 
Q 2772 3150 2772 3378 
Q 2772 3750 2511 3984 
Q 2250 4219 1831 4219 
Q 1534 4219 1204 4116 
Q 875 4013 500 3803 
L 500 4441 
Q 881 4594 1212 4672 
Q 1544 4750 1819 4750 
Q 2544 4750 2975 4387 
Q 3406 4025 3406 3419 
Q 3406 3131 3298 2873 
Q 3191 2616 2906 2266 
Q 2828 2175 2409 1742 
Q 1991 1309 1228 531 
z
" id="DejaVuSans-32" transform="scale(0.015625)"/>
        <path d="M 691 4666 
L 3169 4666 
L 3169 4134 
L 1269 4134 
L 1269 2991 
Q 1406 3038 1543 3061 
Q 1681 3084 1819 3084 
Q 2600 3084 3056 2656 
Q 3513 2228 3513 1497 
Q 3513 744 3044 326 
Q 2575 -91 1722 -91 
Q 1428 -91 1123 -41 
Q 819 9 494 109 
L 494 744 
Q 775 591 1075 516 
Q 1375 441 1709 441 
Q 2250 441 2565 725 
Q 2881 1009 2881 1497 
Q 2881 1984 2565 2268 
Q 2250 2553 1709 2553 
Q 1456 2553 1204 2497 
Q 953 2441 691 2322 
L 691 4666 
z
" id="DejaVuSans-35" transform="scale(0.015625)"/>
       </defs>
       <use xlink:href="#DejaVuSans-30"/>
       <use x="63.623047" xlink:href="#DejaVuSans-2e"/>
       <use x="95.410156" xlink:href="#DejaVuSans-32"/>
       <use x="159.033203" xlink:href="#DejaVuSans-35"/>
      </g>
     </g>
    </g>
    <g id="xtick_3">
     <g id="line2d_5">
      <path clip-path="url(#pd55aa7d238)" d="M 154.996364 307.584 
L 154.996364 41.472 
" style="fill:none;stroke:#b0b0b0;stroke-linecap:square;stroke-width:0.8;"/>
     </g>
     <g id="line2d_6">
      <g>
       <use style="stroke:#000000;stroke-width:0.8;" x="154.996364" xlink:href="#md09d11703b" y="307.584"/>
      </g>
     </g>
     <g id="text_3">
      <!-- 0.50 -->
      <g transform="translate(143.863551 322.182437)scale(0.1 -0.1)">
       <use xlink:href="#DejaVuSans-30"/>
       <use x="63.623047" xlink:href="#DejaVuSans-2e"/>
       <use x="95.410156" xlink:href="#DejaVuSans-35"/>
       <use x="159.033203" xlink:href="#DejaVuSans-30"/>
      </g>
     </g>
    </g>
    <g id="xtick_4">
     <g id="line2d_7">
      <path clip-path="url(#pd55aa7d238)" d="M 195.578182 307.584 
L 195.578182 41.472 
" style="fill:none;stroke:#b0b0b0;stroke-linecap:square;stroke-width:0.8;"/>
     </g>
     <g id="line2d_8">
      <g>
       <use style="stroke:#000000;stroke-width:0.8;" x="195.578182" xlink:href="#md09d11703b" y="307.584"/>
      </g>
     </g>
     <g id="text_4">
      <!-- 0.75 -->
      <g transform="translate(184.445369 322.182437)scale(0.1 -0.1)">
       <defs>
        <path d="M 525 4666 
L 3525 4666 
L 3525 4397 
L 1831 0 
L 1172 0 
L 2766 4134 
L 525 4134 
L 525 4666 
z
" id="DejaVuSans-37" transform="scale(0.015625)"/>
       </defs>
       <use xlink:href="#DejaVuSans-30"/>
       <use x="63.623047" xlink:href="#DejaVuSans-2e"/>
       <use x="95.410156" xlink:href="#DejaVuSans-37"/>
       <use x="159.033203" xlink:href="#DejaVuSans-35"/>
      </g>
     </g>
    </g>
    <g id="xtick_5">
     <g id="line2d_9">
      <path clip-path="url(#pd55aa7d238)" d="M 236.16 307.584 
L 236.16 41.472 
" style="fill:none;stroke:#b0b0b0;stroke-linecap:square;stroke-width:0.8;"/>
     </g>
     <g id="line2d_10">
      <g>
       <use style="stroke:#000000;stroke-width:0.8;" x="236.16" xlink:href="#md09d11703b" y="307.584"/>
      </g>
     </g>
     <g id="text_5">
      <!-- 1.00 -->
      <g transform="translate(225.027188 322.182437)scale(0.1 -0.1)">
       <defs>
        <path d="M 794 531 
L 1825 531 
L 1825 4091 
L 703 3866 
L 703 4441 
L 1819 4666 
L 2450 4666 
L 2450 531 
L 3481 531 
L 3481 0 
L 794 0 
L 794 531 
z
" id="DejaVuSans-31" transform="scale(0.015625)"/>
       </defs>
       <use xlink:href="#DejaVuSans-31"/>
       <use x="63.623047" xlink:href="#DejaVuSans-2e"/>
       <use x="95.410156" xlink:href="#DejaVuSans-30"/>
       <use x="159.033203" xlink:href="#DejaVuSans-30"/>
      </g>
     </g>
    </g>
    <g id="xtick_6">
     <g id="line2d_11">
      <path clip-path="url(#pd55aa7d238)" d="M 276.741818 307.584 
L 276.741818 41.472 
" style="fill:none;stroke:#b0b0b0;stroke-linecap:square;stroke-width:0.8;"/>
     </g>
     <g id="line2d_12">
      <g>
       <use style="stroke:#000000;stroke-width:0.8;" x="276.741818" xlink:href="#md09d11703b" y="307.584"/>
      </g>
     </g>
     <g id="text_6">
      <!-- 1.25 -->
      <g transform="translate(265.609006 322.182437)scale(0.1 -0.1)">
       <use xlink:href="#DejaVuSans-31"/>
       <use x="63.623047" xlink:href="#DejaVuSans-2e"/>
       <use x="95.410156" xlink:href="#DejaVuSans-32"/>
       <use x="159.033203" xlink:href="#DejaVuSans-35"/>
      </g>
     </g>
    </g>
    <g id="xtick_7">
     <g id="line2d_13">
      <path clip-path="url(#pd55aa7d238)" d="M 317.323636 307.584 
L 317.323636 41.472 
" style="fill:none;stroke:#b0b0b0;stroke-linecap:square;stroke-width:0.8;"/>
     </g>
     <g id="line2d_14">
      <g>
       <use style="stroke:#000000;stroke-width:0.8;" x="317.323636" xlink:href="#md09d11703b" y="307.584"/>
      </g>
     </g>
     <g id="text_7">
      <!-- 1.50 -->
      <g transform="translate(306.190824 322.182437)scale(0.1 -0.1)">
       <use xlink:href="#DejaVuSans-31"/>
       <use x="63.623047" xlink:href="#DejaVuSans-2e"/>
       <use x="95.410156" xlink:href="#DejaVuSans-35"/>
       <use x="159.033203" xlink:href="#DejaVuSans-30"/>
      </g>
     </g>
    </g>
    <g id="xtick_8">
     <g id="line2d_15">
      <path clip-path="url(#pd55aa7d238)" d="M 357.905455 307.584 
L 357.905455 41.472 
" style="fill:none;stroke:#b0b0b0;stroke-linecap:square;stroke-width:0.8;"/>
     </g>
     <g id="line2d_16">
      <g>
       <use style="stroke:#000000;stroke-width:0.8;" x="357.905455" xlink:href="#md09d11703b" y="307.584"/>
      </g>
     </g>
     <g id="text_8">
      <!-- 1.75 -->
      <g transform="translate(346.772642 322.182437)scale(0.1 -0.1)">
       <use xlink:href="#DejaVuSans-31"/>
       <use x="63.623047" xlink:href="#DejaVuSans-2e"/>
       <use x="95.410156" xlink:href="#DejaVuSans-37"/>
       <use x="159.033203" xlink:href="#DejaVuSans-35"/>
      </g>
     </g>
    </g>
    <g id="xtick_9">
     <g id="line2d_17">
      <path clip-path="url(#pd55aa7d238)" d="M 398.487273 307.584 
L 398.487273 41.472 
" style="fill:none;stroke:#b0b0b0;stroke-linecap:square;stroke-width:0.8;"/>
     </g>
     <g id="line2d_18">
      <g>
       <use style="stroke:#000000;stroke-width:0.8;" x="398.487273" xlink:href="#md09d11703b" y="307.584"/>
      </g>
     </g>
     <g id="text_9">
      <!-- 2.00 -->
      <g transform="translate(387.35446 322.182437)scale(0.1 -0.1)">
       <use xlink:href="#DejaVuSans-32"/>
       <use x="63.623047" xlink:href="#DejaVuSans-2e"/>
       <use x="95.410156" xlink:href="#DejaVuSans-30"/>
       <use x="159.033203" xlink:href="#DejaVuSans-30"/>
      </g>
     </g>
    </g>
    <g id="text_10">
     <!-- Traffic Dynamicity -->
     <g transform="translate(191.117031 335.860562)scale(0.1 -0.1)">
      <defs>
       <path d="M -19 4666 
L 3928 4666 
L 3928 4134 
L 2272 4134 
L 2272 0 
L 1638 0 
L 1638 4134 
L -19 4134 
L -19 4666 
z
" id="DejaVuSans-54" transform="scale(0.015625)"/>
       <path d="M 2631 2963 
Q 2534 3019 2420 3045 
Q 2306 3072 2169 3072 
Q 1681 3072 1420 2755 
Q 1159 2438 1159 1844 
L 1159 0 
L 581 0 
L 581 3500 
L 1159 3500 
L 1159 2956 
Q 1341 3275 1631 3429 
Q 1922 3584 2338 3584 
Q 2397 3584 2469 3576 
Q 2541 3569 2628 3553 
L 2631 2963 
z
" id="DejaVuSans-72" transform="scale(0.015625)"/>
       <path d="M 2194 1759 
Q 1497 1759 1228 1600 
Q 959 1441 959 1056 
Q 959 750 1161 570 
Q 1363 391 1709 391 
Q 2188 391 2477 730 
Q 2766 1069 2766 1631 
L 2766 1759 
L 2194 1759 
z
M 3341 1997 
L 3341 0 
L 2766 0 
L 2766 531 
Q 2569 213 2275 61 
Q 1981 -91 1556 -91 
Q 1019 -91 701 211 
Q 384 513 384 1019 
Q 384 1609 779 1909 
Q 1175 2209 1959 2209 
L 2766 2209 
L 2766 2266 
Q 2766 2663 2505 2880 
Q 2244 3097 1772 3097 
Q 1472 3097 1187 3025 
Q 903 2953 641 2809 
L 641 3341 
Q 956 3463 1253 3523 
Q 1550 3584 1831 3584 
Q 2591 3584 2966 3190 
Q 3341 2797 3341 1997 
z
" id="DejaVuSans-61" transform="scale(0.015625)"/>
       <path d="M 2375 4863 
L 2375 4384 
L 1825 4384 
Q 1516 4384 1395 4259 
Q 1275 4134 1275 3809 
L 1275 3500 
L 2222 3500 
L 2222 3053 
L 1275 3053 
L 1275 0 
L 697 0 
L 697 3053 
L 147 3053 
L 147 3500 
L 697 3500 
L 697 3744 
Q 697 4328 969 4595 
Q 1241 4863 1831 4863 
L 2375 4863 
z
" id="DejaVuSans-66" transform="scale(0.015625)"/>
       <path d="M 603 3500 
L 1178 3500 
L 1178 0 
L 603 0 
L 603 3500 
z
M 603 4863 
L 1178 4863 
L 1178 4134 
L 603 4134 
L 603 4863 
z
" id="DejaVuSans-69" transform="scale(0.015625)"/>
       <path d="M 3122 3366 
L 3122 2828 
Q 2878 2963 2633 3030 
Q 2388 3097 2138 3097 
Q 1578 3097 1268 2742 
Q 959 2388 959 1747 
Q 959 1106 1268 751 
Q 1578 397 2138 397 
Q 2388 397 2633 464 
Q 2878 531 3122 666 
L 3122 134 
Q 2881 22 2623 -34 
Q 2366 -91 2075 -91 
Q 1284 -91 818 406 
Q 353 903 353 1747 
Q 353 2603 823 3093 
Q 1294 3584 2113 3584 
Q 2378 3584 2631 3529 
Q 2884 3475 3122 3366 
z
" id="DejaVuSans-63" transform="scale(0.015625)"/>
       <path id="DejaVuSans-20" transform="scale(0.015625)"/>
       <path d="M 1259 4147 
L 1259 519 
L 2022 519 
Q 2988 519 3436 956 
Q 3884 1394 3884 2338 
Q 3884 3275 3436 3711 
Q 2988 4147 2022 4147 
L 1259 4147 
z
M 628 4666 
L 1925 4666 
Q 3281 4666 3915 4102 
Q 4550 3538 4550 2338 
Q 4550 1131 3912 565 
Q 3275 0 1925 0 
L 628 0 
L 628 4666 
z
" id="DejaVuSans-44" transform="scale(0.015625)"/>
       <path d="M 2059 -325 
Q 1816 -950 1584 -1140 
Q 1353 -1331 966 -1331 
L 506 -1331 
L 506 -850 
L 844 -850 
Q 1081 -850 1212 -737 
Q 1344 -625 1503 -206 
L 1606 56 
L 191 3500 
L 800 3500 
L 1894 763 
L 2988 3500 
L 3597 3500 
L 2059 -325 
z
" id="DejaVuSans-79" transform="scale(0.015625)"/>
       <path d="M 3513 2113 
L 3513 0 
L 2938 0 
L 2938 2094 
Q 2938 2591 2744 2837 
Q 2550 3084 2163 3084 
Q 1697 3084 1428 2787 
Q 1159 2491 1159 1978 
L 1159 0 
L 581 0 
L 581 3500 
L 1159 3500 
L 1159 2956 
Q 1366 3272 1645 3428 
Q 1925 3584 2291 3584 
Q 2894 3584 3203 3211 
Q 3513 2838 3513 2113 
z
" id="DejaVuSans-6e" transform="scale(0.015625)"/>
       <path d="M 3328 2828 
Q 3544 3216 3844 3400 
Q 4144 3584 4550 3584 
Q 5097 3584 5394 3201 
Q 5691 2819 5691 2113 
L 5691 0 
L 5113 0 
L 5113 2094 
Q 5113 2597 4934 2840 
Q 4756 3084 4391 3084 
Q 3944 3084 3684 2787 
Q 3425 2491 3425 1978 
L 3425 0 
L 2847 0 
L 2847 2094 
Q 2847 2600 2669 2842 
Q 2491 3084 2119 3084 
Q 1678 3084 1418 2786 
Q 1159 2488 1159 1978 
L 1159 0 
L 581 0 
L 581 3500 
L 1159 3500 
L 1159 2956 
Q 1356 3278 1631 3431 
Q 1906 3584 2284 3584 
Q 2666 3584 2933 3390 
Q 3200 3197 3328 2828 
z
" id="DejaVuSans-6d" transform="scale(0.015625)"/>
       <path d="M 1172 4494 
L 1172 3500 
L 2356 3500 
L 2356 3053 
L 1172 3053 
L 1172 1153 
Q 1172 725 1289 603 
Q 1406 481 1766 481 
L 2356 481 
L 2356 0 
L 1766 0 
Q 1100 0 847 248 
Q 594 497 594 1153 
L 594 3053 
L 172 3053 
L 172 3500 
L 594 3500 
L 594 4494 
L 1172 4494 
z
" id="DejaVuSans-74" transform="scale(0.015625)"/>
      </defs>
      <use xlink:href="#DejaVuSans-54"/>
      <use x="46.333984" xlink:href="#DejaVuSans-72"/>
      <use x="87.447266" xlink:href="#DejaVuSans-61"/>
      <use x="148.726562" xlink:href="#DejaVuSans-66"/>
      <use x="183.931641" xlink:href="#DejaVuSans-66"/>
      <use x="219.136719" xlink:href="#DejaVuSans-69"/>
      <use x="246.919922" xlink:href="#DejaVuSans-63"/>
      <use x="301.900391" xlink:href="#DejaVuSans-20"/>
      <use x="333.6875" xlink:href="#DejaVuSans-44"/>
      <use x="410.689453" xlink:href="#DejaVuSans-79"/>
      <use x="469.869141" xlink:href="#DejaVuSans-6e"/>
      <use x="533.248047" xlink:href="#DejaVuSans-61"/>
      <use x="594.527344" xlink:href="#DejaVuSans-6d"/>
      <use x="691.939453" xlink:href="#DejaVuSans-69"/>
      <use x="719.722656" xlink:href="#DejaVuSans-63"/>
      <use x="774.703125" xlink:href="#DejaVuSans-69"/>
      <use x="802.486328" xlink:href="#DejaVuSans-74"/>
      <use x="841.695312" xlink:href="#DejaVuSans-79"/>
     </g>
    </g>
   </g>
   <g id="matplotlib.axis_2">
    <g id="ytick_1">
     <g id="line2d_19">
      <path clip-path="url(#pd55aa7d238)" d="M 57.6 295.488355 
L 414.72 295.488355 
" style="fill:none;stroke:#b0b0b0;stroke-linecap:square;stroke-width:0.8;"/>
     </g>
     <g id="line2d_20">
      <defs>
       <path d="M 0 0 
L -3.5 0 
" id="m57718d3d88" style="stroke:#000000;stroke-width:0.8;"/>
      </defs>
      <g>
       <use style="stroke:#000000;stroke-width:0.8;" x="57.6" xlink:href="#m57718d3d88" y="295.488355"/>
      </g>
     </g>
     <g id="text_11">
      <!-- 0.0 -->
      <g transform="translate(34.696875 299.287573)scale(0.1 -0.1)">
       <use xlink:href="#DejaVuSans-30"/>
       <use x="63.623047" xlink:href="#DejaVuSans-2e"/>
       <use x="95.410156" xlink:href="#DejaVuSans-30"/>
      </g>
     </g>
    </g>
    <g id="ytick_2">
     <g id="line2d_21">
      <path clip-path="url(#pd55aa7d238)" d="M 57.6 247.104284 
L 414.72 247.104284 
" style="fill:none;stroke:#b0b0b0;stroke-linecap:square;stroke-width:0.8;"/>
     </g>
     <g id="line2d_22">
      <g>
       <use style="stroke:#000000;stroke-width:0.8;" x="57.6" xlink:href="#m57718d3d88" y="247.104284"/>
      </g>
     </g>
     <g id="text_12">
      <!-- 0.2 -->
      <g transform="translate(34.696875 250.903502)scale(0.1 -0.1)">
       <use xlink:href="#DejaVuSans-30"/>
       <use x="63.623047" xlink:href="#DejaVuSans-2e"/>
       <use x="95.410156" xlink:href="#DejaVuSans-32"/>
      </g>
     </g>
    </g>
    <g id="ytick_3">
     <g id="line2d_23">
      <path clip-path="url(#pd55aa7d238)" d="M 57.6 198.720213 
L 414.72 198.720213 
" style="fill:none;stroke:#b0b0b0;stroke-linecap:square;stroke-width:0.8;"/>
     </g>
     <g id="line2d_24">
      <g>
       <use style="stroke:#000000;stroke-width:0.8;" x="57.6" xlink:href="#m57718d3d88" y="198.720213"/>
      </g>
     </g>
     <g id="text_13">
      <!-- 0.4 -->
      <g transform="translate(34.696875 202.519431)scale(0.1 -0.1)">
       <defs>
        <path d="M 2419 4116 
L 825 1625 
L 2419 1625 
L 2419 4116 
z
M 2253 4666 
L 3047 4666 
L 3047 1625 
L 3713 1625 
L 3713 1100 
L 3047 1100 
L 3047 0 
L 2419 0 
L 2419 1100 
L 313 1100 
L 313 1709 
L 2253 4666 
z
" id="DejaVuSans-34" transform="scale(0.015625)"/>
       </defs>
       <use xlink:href="#DejaVuSans-30"/>
       <use x="63.623047" xlink:href="#DejaVuSans-2e"/>
       <use x="95.410156" xlink:href="#DejaVuSans-34"/>
      </g>
     </g>
    </g>
    <g id="ytick_4">
     <g id="line2d_25">
      <path clip-path="url(#pd55aa7d238)" d="M 57.6 150.336142 
L 414.72 150.336142 
" style="fill:none;stroke:#b0b0b0;stroke-linecap:square;stroke-width:0.8;"/>
     </g>
     <g id="line2d_26">
      <g>
       <use style="stroke:#000000;stroke-width:0.8;" x="57.6" xlink:href="#m57718d3d88" y="150.336142"/>
      </g>
     </g>
     <g id="text_14">
      <!-- 0.6 -->
      <g transform="translate(34.696875 154.135361)scale(0.1 -0.1)">
       <defs>
        <path d="M 2113 2584 
Q 1688 2584 1439 2293 
Q 1191 2003 1191 1497 
Q 1191 994 1439 701 
Q 1688 409 2113 409 
Q 2538 409 2786 701 
Q 3034 994 3034 1497 
Q 3034 2003 2786 2293 
Q 2538 2584 2113 2584 
z
M 3366 4563 
L 3366 3988 
Q 3128 4100 2886 4159 
Q 2644 4219 2406 4219 
Q 1781 4219 1451 3797 
Q 1122 3375 1075 2522 
Q 1259 2794 1537 2939 
Q 1816 3084 2150 3084 
Q 2853 3084 3261 2657 
Q 3669 2231 3669 1497 
Q 3669 778 3244 343 
Q 2819 -91 2113 -91 
Q 1303 -91 875 529 
Q 447 1150 447 2328 
Q 447 3434 972 4092 
Q 1497 4750 2381 4750 
Q 2619 4750 2861 4703 
Q 3103 4656 3366 4563 
z
" id="DejaVuSans-36" transform="scale(0.015625)"/>
       </defs>
       <use xlink:href="#DejaVuSans-30"/>
       <use x="63.623047" xlink:href="#DejaVuSans-2e"/>
       <use x="95.410156" xlink:href="#DejaVuSans-36"/>
      </g>
     </g>
    </g>
    <g id="ytick_5">
     <g id="line2d_27">
      <path clip-path="url(#pd55aa7d238)" d="M 57.6 101.952071 
L 414.72 101.952071 
" style="fill:none;stroke:#b0b0b0;stroke-linecap:square;stroke-width:0.8;"/>
     </g>
     <g id="line2d_28">
      <g>
       <use style="stroke:#000000;stroke-width:0.8;" x="57.6" xlink:href="#m57718d3d88" y="101.952071"/>
      </g>
     </g>
     <g id="text_15">
      <!-- 0.8 -->
      <g transform="translate(34.696875 105.75129)scale(0.1 -0.1)">
       <defs>
        <path d="M 2034 2216 
Q 1584 2216 1326 1975 
Q 1069 1734 1069 1313 
Q 1069 891 1326 650 
Q 1584 409 2034 409 
Q 2484 409 2743 651 
Q 3003 894 3003 1313 
Q 3003 1734 2745 1975 
Q 2488 2216 2034 2216 
z
M 1403 2484 
Q 997 2584 770 2862 
Q 544 3141 544 3541 
Q 544 4100 942 4425 
Q 1341 4750 2034 4750 
Q 2731 4750 3128 4425 
Q 3525 4100 3525 3541 
Q 3525 3141 3298 2862 
Q 3072 2584 2669 2484 
Q 3125 2378 3379 2068 
Q 3634 1759 3634 1313 
Q 3634 634 3220 271 
Q 2806 -91 2034 -91 
Q 1263 -91 848 271 
Q 434 634 434 1313 
Q 434 1759 690 2068 
Q 947 2378 1403 2484 
z
M 1172 3481 
Q 1172 3119 1398 2916 
Q 1625 2713 2034 2713 
Q 2441 2713 2670 2916 
Q 2900 3119 2900 3481 
Q 2900 3844 2670 4047 
Q 2441 4250 2034 4250 
Q 1625 4250 1398 4047 
Q 1172 3844 1172 3481 
z
" id="DejaVuSans-38" transform="scale(0.015625)"/>
       </defs>
       <use xlink:href="#DejaVuSans-30"/>
       <use x="63.623047" xlink:href="#DejaVuSans-2e"/>
       <use x="95.410156" xlink:href="#DejaVuSans-38"/>
      </g>
     </g>
    </g>
    <g id="ytick_6">
     <g id="line2d_29">
      <path clip-path="url(#pd55aa7d238)" d="M 57.6 53.568 
L 414.72 53.568 
" style="fill:none;stroke:#b0b0b0;stroke-linecap:square;stroke-width:0.8;"/>
     </g>
     <g id="line2d_30">
      <g>
       <use style="stroke:#000000;stroke-width:0.8;" x="57.6" xlink:href="#m57718d3d88" y="53.568"/>
      </g>
     </g>
     <g id="text_16">
      <!-- 1.0 -->
      <g transform="translate(34.696875 57.367219)scale(0.1 -0.1)">
       <use xlink:href="#DejaVuSans-31"/>
       <use x="63.623047" xlink:href="#DejaVuSans-2e"/>
       <use x="95.410156" xlink:href="#DejaVuSans-30"/>
      </g>
     </g>
    </g>
    <g id="text_17">
     <!-- Cumulative Probability -->
     <g transform="translate(28.617187 231.083469)rotate(-90)scale(0.1 -0.1)">
      <defs>
       <path d="M 4122 4306 
L 4122 3641 
Q 3803 3938 3442 4084 
Q 3081 4231 2675 4231 
Q 1875 4231 1450 3742 
Q 1025 3253 1025 2328 
Q 1025 1406 1450 917 
Q 1875 428 2675 428 
Q 3081 428 3442 575 
Q 3803 722 4122 1019 
L 4122 359 
Q 3791 134 3420 21 
Q 3050 -91 2638 -91 
Q 1578 -91 968 557 
Q 359 1206 359 2328 
Q 359 3453 968 4101 
Q 1578 4750 2638 4750 
Q 3056 4750 3426 4639 
Q 3797 4528 4122 4306 
z
" id="DejaVuSans-43" transform="scale(0.015625)"/>
       <path d="M 544 1381 
L 544 3500 
L 1119 3500 
L 1119 1403 
Q 1119 906 1312 657 
Q 1506 409 1894 409 
Q 2359 409 2629 706 
Q 2900 1003 2900 1516 
L 2900 3500 
L 3475 3500 
L 3475 0 
L 2900 0 
L 2900 538 
Q 2691 219 2414 64 
Q 2138 -91 1772 -91 
Q 1169 -91 856 284 
Q 544 659 544 1381 
z
M 1991 3584 
L 1991 3584 
z
" id="DejaVuSans-75" transform="scale(0.015625)"/>
       <path d="M 603 4863 
L 1178 4863 
L 1178 0 
L 603 0 
L 603 4863 
z
" id="DejaVuSans-6c" transform="scale(0.015625)"/>
       <path d="M 191 3500 
L 800 3500 
L 1894 563 
L 2988 3500 
L 3597 3500 
L 2284 0 
L 1503 0 
L 191 3500 
z
" id="DejaVuSans-76" transform="scale(0.015625)"/>
       <path d="M 3597 1894 
L 3597 1613 
L 953 1613 
Q 991 1019 1311 708 
Q 1631 397 2203 397 
Q 2534 397 2845 478 
Q 3156 559 3463 722 
L 3463 178 
Q 3153 47 2828 -22 
Q 2503 -91 2169 -91 
Q 1331 -91 842 396 
Q 353 884 353 1716 
Q 353 2575 817 3079 
Q 1281 3584 2069 3584 
Q 2775 3584 3186 3129 
Q 3597 2675 3597 1894 
z
M 3022 2063 
Q 3016 2534 2758 2815 
Q 2500 3097 2075 3097 
Q 1594 3097 1305 2825 
Q 1016 2553 972 2059 
L 3022 2063 
z
" id="DejaVuSans-65" transform="scale(0.015625)"/>
       <path d="M 1259 4147 
L 1259 2394 
L 2053 2394 
Q 2494 2394 2734 2622 
Q 2975 2850 2975 3272 
Q 2975 3691 2734 3919 
Q 2494 4147 2053 4147 
L 1259 4147 
z
M 628 4666 
L 2053 4666 
Q 2838 4666 3239 4311 
Q 3641 3956 3641 3272 
Q 3641 2581 3239 2228 
Q 2838 1875 2053 1875 
L 1259 1875 
L 1259 0 
L 628 0 
L 628 4666 
z
" id="DejaVuSans-50" transform="scale(0.015625)"/>
       <path d="M 1959 3097 
Q 1497 3097 1228 2736 
Q 959 2375 959 1747 
Q 959 1119 1226 758 
Q 1494 397 1959 397 
Q 2419 397 2687 759 
Q 2956 1122 2956 1747 
Q 2956 2369 2687 2733 
Q 2419 3097 1959 3097 
z
M 1959 3584 
Q 2709 3584 3137 3096 
Q 3566 2609 3566 1747 
Q 3566 888 3137 398 
Q 2709 -91 1959 -91 
Q 1206 -91 779 398 
Q 353 888 353 1747 
Q 353 2609 779 3096 
Q 1206 3584 1959 3584 
z
" id="DejaVuSans-6f" transform="scale(0.015625)"/>
       <path d="M 3116 1747 
Q 3116 2381 2855 2742 
Q 2594 3103 2138 3103 
Q 1681 3103 1420 2742 
Q 1159 2381 1159 1747 
Q 1159 1113 1420 752 
Q 1681 391 2138 391 
Q 2594 391 2855 752 
Q 3116 1113 3116 1747 
z
M 1159 2969 
Q 1341 3281 1617 3432 
Q 1894 3584 2278 3584 
Q 2916 3584 3314 3078 
Q 3713 2572 3713 1747 
Q 3713 922 3314 415 
Q 2916 -91 2278 -91 
Q 1894 -91 1617 61 
Q 1341 213 1159 525 
L 1159 0 
L 581 0 
L 581 4863 
L 1159 4863 
L 1159 2969 
z
" id="DejaVuSans-62" transform="scale(0.015625)"/>
      </defs>
      <use xlink:href="#DejaVuSans-43"/>
      <use x="69.824219" xlink:href="#DejaVuSans-75"/>
      <use x="133.203125" xlink:href="#DejaVuSans-6d"/>
      <use x="230.615234" xlink:href="#DejaVuSans-75"/>
      <use x="293.994141" xlink:href="#DejaVuSans-6c"/>
      <use x="321.777344" xlink:href="#DejaVuSans-61"/>
      <use x="383.056641" xlink:href="#DejaVuSans-74"/>
      <use x="422.265625" xlink:href="#DejaVuSans-69"/>
      <use x="450.048828" xlink:href="#DejaVuSans-76"/>
      <use x="509.228516" xlink:href="#DejaVuSans-65"/>
      <use x="570.751953" xlink:href="#DejaVuSans-20"/>
      <use x="602.539062" xlink:href="#DejaVuSans-50"/>
      <use x="661.091797" xlink:href="#DejaVuSans-72"/>
      <use x="699.955078" xlink:href="#DejaVuSans-6f"/>
      <use x="761.136719" xlink:href="#DejaVuSans-62"/>
      <use x="824.613281" xlink:href="#DejaVuSans-61"/>
      <use x="885.892578" xlink:href="#DejaVuSans-62"/>
      <use x="949.369141" xlink:href="#DejaVuSans-69"/>
      <use x="977.152344" xlink:href="#DejaVuSans-6c"/>
      <use x="1004.935547" xlink:href="#DejaVuSans-69"/>
      <use x="1032.71875" xlink:href="#DejaVuSans-74"/>
      <use x="1071.927734" xlink:href="#DejaVuSans-79"/>
     </g>
    </g>
   </g>
   <g id="line2d_31">
    <path clip-path="url(#pd55aa7d238)" d="M 73.832727 295.487783 
L 73.943835 268.866164 
L 74.086136 267.676709 
L 74.32498 265.686286 
L 74.453198 264.663081 
L 74.578198 263.664442 
L 74.898261 261.03473 
L 74.943843 260.639959 
L 75.073968 259.599614 
L 75.849608 253.250714 
L 75.962703 252.379475 
L 76.174927 250.710125 
L 76.627772 247.074347 
L 76.686242 246.617304 
L 76.950572 244.520619 
L 77.205951 242.538766 
L 77.350823 241.388731 
L 77.448059 240.616328 
L 77.579375 239.591409 
L 77.914047 237.035395 
L 78.092935 235.667122 
L 78.194079 234.889006 
L 78.410709 233.2168 
L 78.504353 232.520952 
L 78.879729 229.662718 
L 78.926698 229.294227 
L 79.490898 225.227686 
L 80.957446 214.727691 
L 80.994025 214.468891 
L 81.478983 211.095341 
L 81.533191 210.729135 
L 81.618901 210.162973 
L 81.791372 209.011224 
L 81.856221 208.553039 
L 82.186609 206.315241 
L 82.356887 205.205769 
L 82.544735 203.968896 
L 82.586747 203.716951 
L 82.790142 202.400667 
L 83.197755 199.867505 
L 83.312608 199.177941 
L 84.061001 194.57666 
L 84.569233 191.601309 
L 84.628072 191.235103 
L 84.843026 190.005657 
L 84.965893 189.330376 
L 85.965468 183.757878 
L 86.016234 183.473368 
L 86.14297 182.798087 
L 88.339521 171.659375 
L 88.385269 171.443993 
L 88.537194 170.71958 
L 88.598821 170.413932 
L 88.773371 169.566688 
L 88.819943 169.359305 
L 88.976594 168.650888 
L 89.020988 168.423509 
L 89.545397 166.053169 
L 89.60139 165.820649 
L 89.723901 165.276196 
L 89.796958 164.972834 
L 89.9164 164.457518 
L 89.973396 164.213571 
L 90.602504 161.573004 
L 90.690088 161.197657 
L 90.942884 160.136175 
L 91.930348 156.174754 
L 92.087642 155.561744 
L 92.159901 155.299516 
L 92.550565 153.837549 
L 92.645105 153.475343 
L 93.015219 152.049939 
L 93.426147 150.582831 
L 93.632224 149.857846 
L 93.695685 149.624754 
L 93.856002 149.031741 
L 93.910137 148.837497 
L 94.148701 148.005108 
L 94.387552 147.191571 
L 94.460617 146.937341 
L 95.18412 144.563002 
L 95.317716 144.148806 
L 95.603007 143.179303 
L 95.725983 142.770821 
L 95.841464 142.376621 
L 95.98018 141.952143 
L 96.141348 141.46882 
L 97.080077 138.606016 
L 97.786813 136.585314 
L 97.852628 136.407638 
L 98.097275 135.727787 
L 98.211974 135.390717 
L 98.284253 135.193617 
L 98.579543 134.399505 
L 99.631039 131.545842 
L 99.751165 131.228768 
L 99.909324 130.802576 
L 99.980138 130.631756 
L 100.121469 130.256409 
L 100.556456 129.173788 
L 101.55299 126.721752 
L 101.646674 126.502371 
L 101.760772 126.232716 
L 101.819133 126.095031 
L 102.431033 124.629637 
L 102.50959 124.452533 
L 102.928294 123.530448 
L 104.604776 119.997505 
L 104.770637 119.668434 
L 104.8816 119.451338 
L 105.066892 119.065137 
L 105.189763 118.836044 
L 105.381813 118.46641 
L 105.473012 118.295019 
L 105.584296 118.065355 
L 106.215678 116.831338 
L 106.291742 116.683371 
L 106.557596 116.151487 
L 106.629991 116.018373 
L 107.345364 114.718085 
L 108.046802 113.469215 
L 108.140899 113.316106 
L 108.926144 111.99068 
L 109.047813 111.794723 
L 110.450903 109.564924 
L 110.572244 109.371252 
L 110.695397 109.175295 
L 111.055907 108.610275 
L 111.198468 108.382896 
L 111.388261 108.08639 
L 111.509828 107.90243 
L 112.592846 106.283926 
L 112.708247 106.121104 
L 112.967498 105.785749 
L 113.125981 105.594362 
L 113.280053 105.381266 
L 113.402602 105.211588 
L 113.513424 105.053908 
L 113.701703 104.816246 
L 114.00974 104.402622 
L 114.119453 104.265509 
L 114.438036 103.827319 
L 115.456088 102.484183 
L 115.561244 102.3425 
L 115.679103 102.177964 
L 115.8058 102.015714 
L 116.141425 101.608946 
L 117.354987 100.108702 
L 117.516776 99.927027 
L 117.649963 99.779631 
L 117.920496 99.456273 
L 118.137202 99.184903 
L 118.288649 99.020368 
L 118.422521 98.858117 
L 118.699962 98.561039 
L 118.852574 98.399932 
L 119.0289 98.199975 
L 119.169346 98.047437 
L 122.603164 94.473931 
L 122.73753 94.335104 
L 122.860558 94.216844 
L 123.249618 93.850639 
L 123.379362 93.70667 
L 123.553047 93.543277 
L 123.764681 93.334751 
L 123.892214 93.214206 
L 124.319017 92.820006 
L 127.011032 90.474233 
L 127.524186 90.061751 
L 127.729875 89.89036 
L 127.942495 89.673264 
L 128.051846 89.549292 
L 128.220737 89.405894 
L 128.416812 89.249357 
L 128.733419 88.97456 
L 129.164608 88.626636 
L 129.349614 88.476954 
L 129.851151 88.091324 
L 130.032418 87.950212 
L 130.369611 87.717691 
L 130.763418 87.407473 
L 130.95015 87.285214 
L 131.183387 87.113823 
L 131.292169 87.032127 
L 131.506953 86.902441 
L 132.230346 86.39855 
L 132.510014 86.200308 
L 132.667976 86.101472 
L 132.911126 85.918655 
L 133.036743 85.835816 
L 133.47408 85.553592 
L 133.591236 85.464469 
L 134.207475 85.052558 
L 134.373785 84.944582 
L 135.690162 84.056204 
L 135.822535 83.968224 
L 136.08682 83.804259 
L 136.253878 83.689427 
L 136.588201 83.488328 
L 136.712343 83.405489 
L 137.130093 83.160971 
L 137.266995 83.083845 
L 138.021293 82.624517 
L 140.409329 81.237962 
L 140.712917 81.077426 
L 140.895419 80.975162 
L 141.278448 80.766065 
L 141.612395 80.594103 
L 142.165276 80.273601 
L 142.281034 80.210187 
L 142.824659 79.911395 
L 143.236621 79.700012 
L 147.203023 77.709018 
L 147.555305 77.528486 
L 148.940767 76.91262 
L 149.308669 76.754369 
L 150.148432 76.396162 
L 152.877481 75.259267 
L 153.239859 75.12044 
L 153.689644 74.950763 
L 154.428089 74.663397 
L 154.619572 74.588556 
L 154.994842 74.416594 
L 155.105878 74.149795 
L 159.977175 72.393606 
L 160.457362 72.231356 
L 164.07262 71.019049 
L 164.190117 70.982486 
L 165.868054 70.491164 
L 166.014407 70.444317 
L 169.620127 69.481099 
L 170.783416 69.169738 
L 170.947403 69.126319 
L 171.656159 68.948073 
L 174.453559 68.243084 
L 174.584501 68.207091 
L 177.644998 67.475251 
L 177.953226 67.403267 
L 182.050233 66.460044 
L 182.15692 66.389202 
L 182.867862 66.239521 
L 183.04909 66.201243 
L 188.667797 65.114623 
L 189.82277 64.906669 
L 190.722589 64.758701 
L 191.766589 64.5656 
L 192.920189 64.373642 
L 193.649244 64.247955 
L 194.539332 64.08799 
L 194.889332 64.032574 
L 208.765173 61.926748 
L 210.264336 61.737075 
L 211.342905 61.605103 
L 226.942595 59.768933 
L 228.454439 59.630106 
L 231.986358 59.350167 
L 235.55128 59.106791 
L 235.661697 58.410943 
L 235.855634 58.210987 
L 235.966237 57.976752 
L 236.053854 57.836783 
L 236.269891 57.472862 
L 281.394055 55.752666 
L 285.759168 55.624123 
L 290.481664 55.504149 
L 298.772157 55.297337 
L 300.74572 55.243634 
L 349.24927 54.334119 
L 398.481186 53.630272 
L 398.487273 53.568 
L 398.487273 53.568 
" style="fill:none;stroke:#1f77b4;stroke-linecap:square;stroke-width:1.5;"/>
   </g>
   <g id="line2d_32">
    <path clip-path="url(#pd55aa7d238)" d="M 73.832727 295.48781 
L 73.943751 270.852687 
L 74.115446 270.044103 
L 75.951148 261.033619 
L 76.223011 259.745551 
L 76.384478 258.955492 
L 76.443504 258.680334 
L 76.542805 258.186683 
L 77.171897 255.197537 
L 77.557527 253.48883 
L 77.758207 252.601785 
L 78.152244 250.869104 
L 79.347474 245.678691 
L 79.413339 245.412795 
L 79.567093 244.75296 
L 79.629606 244.50232 
L 82.677826 232.753874 
L 82.803053 232.297819 
L 82.923659 231.845034 
L 86.097294 221.258247 
L 86.295467 220.615302 
L 86.502412 219.9413 
L 91.530265 205.594923 
L 91.595941 205.424924 
L 91.738415 205.045696 
L 92.142221 204.000639 
L 92.573949 202.896736 
L 92.692744 202.606866 
L 92.887961 202.096325 
L 93.019762 201.74543 
L 93.371851 200.888352 
L 93.50556 200.534188 
L 93.606791 200.289542 
L 93.814066 199.796981 
L 94.016402 199.285895 
L 94.15853 198.934455 
L 94.247652 198.732854 
L 95.323525 196.072808 
L 95.388651 195.931687 
L 95.762141 195.052814 
L 95.897412 194.756406 
L 96.223972 193.983783 
L 96.381025 193.619811 
L 96.666636 192.946899 
L 96.801984 192.655395 
L 96.936861 192.356807 
L 97.291065 191.56021 
L 97.384955 191.37332 
L 97.523587 191.057841 
L 97.599967 190.891112 
L 97.712995 190.635024 
L 97.7776 190.496082 
L 97.889386 190.243808 
L 98.688569 188.464814 
L 98.947374 187.863824 
L 99.220567 187.285175 
L 99.337614 187.044888 
L 99.642126 186.398129 
L 99.761196 186.134958 
L 99.972363 185.687621 
L 100.631661 184.302022 
L 100.789825 183.971831 
L 101.538505 182.436393 
L 101.675889 182.146523 
L 102.498766 180.483041 
L 102.684346 180.105992 
L 102.772431 179.939263 
L 102.910505 179.66247 
L 103.107232 179.257633 
L 103.280351 178.898564 
L 103.400257 178.669175 
L 103.53047 178.395651 
L 103.774481 177.886199 
L 103.836351 177.751617 
L 103.9745 177.49335 
L 104.258683 176.961013 
L 104.387623 176.735983 
L 104.536616 176.449927 
L 105.133991 175.325319 
L 105.335598 174.962437 
L 105.454247 174.734137 
L 105.596491 174.480229 
L 105.862241 173.969687 
L 106.090964 173.540876 
L 106.182117 173.385044 
L 108.32909 169.533916 
L 108.48932 169.249495 
L 108.583091 169.077317 
L 108.756685 168.774915 
L 110.966857 164.983178 
L 111.300632 164.459014 
L 111.425828 164.221452 
L 114.366252 159.529048 
L 114.440542 159.395555 
L 114.559009 159.229915 
L 114.675698 159.025045 
L 114.806263 158.827802 
L 116.278014 156.601471 
L 116.400642 156.411312 
L 116.814092 155.80215 
L 117.046203 155.443082 
L 120.473894 150.486416 
L 120.598831 150.295713 
L 120.795658 150.03799 
L 120.942471 149.836934 
L 121.062659 149.677287 
L 121.519078 149.071394 
L 121.646103 148.883959 
L 121.751282 148.752101 
L 122.091928 148.293322 
L 122.501614 147.737012 
L 122.604205 147.573007 
L 123.118647 146.888107 
L 123.309632 146.635289 
L 123.567064 146.308913 
L 123.750885 146.077889 
L 124.149548 145.565168 
L 124.384679 145.271484 
L 124.76301 144.754404 
L 125.370187 143.974698 
L 125.579066 143.689732 
L 125.73076 143.497938 
L 125.842417 143.340471 
L 125.964738 143.187363 
L 126.131659 142.975409 
L 126.242359 142.82666 
L 126.594378 142.413106 
L 126.752851 142.220222 
L 127.501154 141.291767 
L 127.614463 141.150646 
L 127.855361 140.874943 
L 128.252365 140.354049 
L 128.418842 140.154627 
L 128.532049 140.020045 
L 129.213313 139.232165 
L 129.374713 139.047455 
L 129.602075 138.795181 
L 129.839833 138.522202 
L 130.202014 138.110827 
L 130.374563 137.898328 
L 130.504444 137.754483 
L 130.757291 137.458075 
L 130.901312 137.309326 
L 131.065342 137.114808 
L 131.462147 136.665837 
L 131.698583 136.379236 
L 131.964667 136.080648 
L 132.260538 135.774432 
L 132.404188 135.612607 
L 132.571207 135.426262 
L 132.733645 135.241551 
L 132.935329 135.002899 
L 133.094093 134.827996 
L 133.696181 134.153995 
L 133.898426 133.92624 
L 134.074519 133.74044 
L 134.320242 133.438583 
L 135.41118 132.241508 
L 135.526048 132.115098 
L 136.393593 131.190457 
L 136.569827 131.000298 
L 136.688311 130.862991 
L 136.847847 130.690813 
L 141.63986 125.778827 
L 141.801693 125.626264 
L 149.930641 118.086924 
L 150.317697 117.762727 
L 150.437492 117.663561 
L 150.688812 117.454877 
L 150.917465 117.262538 
L 151.453856 116.773247 
L 151.598257 116.668087 
L 151.777674 116.519338 
L 152.001064 116.339532 
L 152.177873 116.188058 
L 152.566041 115.880753 
L 153.022716 115.504794 
L 153.187868 115.37348 
L 153.36024 115.237263 
L 153.528176 115.082521 
L 153.792047 114.880375 
L 154.235362 114.515858 
L 154.402855 114.379096 
L 154.74918 114.101213 
L 155.747011 113.208174 
L 156.800062 112.37834 
L 157.073212 112.175104 
L 157.899121 111.563218 
L 158.059832 111.417738 
L 164.921567 106.28617 
L 165.141235 106.132517 
L 165.891617 105.600181 
L 166.434802 105.230215 
L 166.580425 105.141402 
L 166.836193 104.958326 
L 167.232185 104.689706 
L 167.566135 104.46631 
L 169.310335 103.323177 
L 170.091446 102.81645 
L 170.232875 102.727091 
L 171.229091 102.032384 
L 171.338719 101.94684 
L 171.555823 101.811713 
L 174.608411 99.889418 
L 174.992691 99.662753 
L 175.135731 99.562497 
L 180.193101 96.43114 
L 180.484211 96.281301 
L 180.738119 96.133642 
L 180.872042 96.05954 
L 181.10872 95.911336 
L 181.419342 95.741882 
L 181.917191 95.46182 
L 182.136068 95.301629 
L 182.291538 95.223712 
L 183.114914 94.736056 
L 183.436113 94.552435 
L 183.820397 94.32686 
L 183.949373 94.255482 
L 184.306251 94.076765 
L 184.574474 93.91058 
L 185.126435 93.614717 
L 185.238795 93.557506 
L 185.879094 93.166835 
L 186.007272 93.082926 
L 186.602516 92.765812 
L 190.699632 90.56727 
L 191.008955 90.404899 
L 191.31875 90.235445 
L 191.805126 89.974453 
L 191.967402 89.88346 
L 192.235228 89.747243 
L 192.59917 89.560353 
L 193.292112 89.211093 
L 193.403298 89.150068 
L 193.689561 89.007857 
L 193.920041 88.879268 
L 194.044744 88.80789 
L 194.64568 88.482059 
L 197.90494 86.862166 
L 198.254398 86.716687 
L 198.362541 86.672552 
L 198.637787 86.533066 
L 198.919583 86.379958 
L 199.691896 86.012172 
L 199.815039 85.951692 
L 202.424189 84.695226 
L 202.831161 84.505612 
L 203.259505 84.291479 
L 203.607399 84.113307 
L 206.125488 82.92386 
L 206.294643 82.843219 
L 206.677443 82.685207 
L 212.329415 80.15375 
L 212.701766 79.987565 
L 213.094222 79.816477 
L 217.323976 78.035303 
L 217.487986 77.971008 
L 217.869421 77.807003 
L 218.247137 77.648446 
L 218.933289 77.375468 
L 219.093495 77.303 
L 219.494057 77.135726 
L 219.725153 77.033835 
L 221.713311 76.200732 
L 222.146695 76.008393 
L 222.276946 75.946278 
L 222.828832 75.702178 
L 222.939572 75.649325 
L 223.559827 75.389968 
L 224.096471 75.161124 
L 224.273168 75.082118 
L 224.860208 74.847824 
L 226.71996 74.023984 
L 227.094256 73.861613 
L 227.562453 73.657832 
L 227.838227 73.518891 
L 228.055133 73.406103 
L 228.563965 73.050849 
L 228.675039 72.98601 
L 228.942247 72.679249 
L 229.052735 72.421527 
L 230.608452 71.361213 
L 230.717879 71.248426 
L 230.985423 71.088234 
L 231.267677 70.823428 
L 231.37777 70.716089 
L 231.594077 70.554808 
L 231.705695 70.477982 
L 231.976307 70.278015 
L 232.087033 70.195195 
L 232.361982 69.979428 
L 232.470592 69.875358 
L 232.551925 69.745679 
L 232.662947 69.662859 
L 232.987687 69.447636 
L 233.098548 69.33049 
L 233.273155 69.171388 
L 233.384226 69.065684 
L 233.50218 68.975781 
L 233.748217 68.769276 
L 233.863264 68.648315 
L 233.911553 68.531713 
L 234.097916 68.344823 
L 234.208387 68.217324 
L 234.441706 67.968864 
L 234.552183 67.850628 
L 234.716578 67.670277 
L 234.826079 67.535694 
L 234.995946 67.376593 
L 235.106406 67.258901 
L 235.294352 67.07964 
L 235.963886 66.152819 
L 236.074894 65.516413 
L 236.129619 65.208018 
L 236.253336 64.995519 
L 237.096691 64.894718 
L 239.922485 64.560714 
L 240.2656 64.514945 
L 243.235384 64.175493 
L 243.898472 64.114467 
L 245.162159 63.961359 
L 247.463798 63.685111 
L 248.894438 63.530369 
L 252.399945 63.155499 
L 253.007716 63.090115 
L 267.443147 61.674003 
L 267.603669 61.658202 
L 274.368274 61.031603 
L 274.731014 60.994552 
L 279.943456 60.57228 
L 288.582311 59.855233 
L 290.710992 59.697221 
L 291.22795 59.647638 
L 292.159947 59.569177 
L 295.101959 59.355589 
L 297.229277 59.200302 
L 299.434562 59.032482 
L 299.915301 59.005239 
L 303.07973 58.77258 
L 303.235218 58.758959 
L 305.866974 58.572614 
L 306.245572 58.540466 
L 309.215861 58.336686 
L 321.605897 57.472525 
L 321.720103 57.467076 
L 326.954923 57.143969 
L 328.724361 57.046983 
L 331.962091 56.845382 
L 338.641669 56.422564 
L 339.447339 56.380609 
L 343.693368 56.132694 
L 344.053108 56.115803 
L 351.519943 55.720774 
L 351.893523 55.698979 
L 354.505521 55.553499 
L 363.04178 55.113246 
L 366.461055 54.95033 
L 372.428312 54.672448 
L 375.492419 54.51716 
L 375.811206 54.504083 
L 379.060437 54.361328 
L 383.683303 54.159727 
L 384.097746 54.143926 
L 389.160056 53.939055 
L 395.797365 53.667166 
L 398.487273 53.568 
L 398.487273 53.568 
" style="fill:none;stroke:#ff7f0e;stroke-linecap:square;stroke-width:1.5;"/>
   </g>
   <g id="line2d_33">
    <path clip-path="url(#pd55aa7d238)" d="M 73.832727 295.488 
L 73.943827 287.914527 
L 75.17441 284.257915 
L 75.39228 283.869668 
L 75.559234 283.602682 
L 75.668374 283.416536 
L 75.790173 283.213371 
L 75.913073 283.030062 
L 76.083285 282.775131 
L 76.419508 282.286188 
L 76.532197 282.143299 
L 76.793195 281.797245 
L 76.999702 281.504021 
L 77.951561 280.231139 
L 78.110337 280.030101 
L 78.32754 279.752123 
L 78.473703 279.562432 
L 78.602103 279.398624 
L 79.66114 278.047028 
L 80.163943 277.375485 
L 80.318003 277.171966 
L 80.72499 276.651821 
L 80.852383 276.486595 
L 80.993386 276.298676 
L 81.108598 276.14976 
L 81.607304 275.495945 
L 81.768464 275.286043 
L 95.107214 257.751467 
L 95.256453 257.540502 
L 95.372031 257.383076 
L 95.531851 257.170337 
L 96.601238 255.747475 
L 96.718676 255.595367 
L 96.905437 255.347527 
L 97.79711 254.162576 
L 97.928583 253.993804 
L 98.234563 253.59102 
L 98.440343 253.309852 
L 98.590245 253.10385 
L 98.7092 252.955997 
L 98.840683 252.793607 
L 99.142852 252.402524 
L 99.267167 252.241198 
L 99.380846 252.083772 
L 99.52492 251.898689 
L 100.330922 250.836772 
L 100.541839 250.573686 
L 101.972402 248.723575 
L 102.150873 248.474671 
L 102.285443 248.30519 
L 103.134472 247.168814 
L 103.283614 246.98125 
L 104.589858 245.257009 
L 104.730494 245.057389 
L 104.857912 244.896772 
L 105.123609 244.561355 
L 105.254235 244.395065 
L 105.406529 244.192255 
L 105.627792 243.896549 
L 105.782753 243.687357 
L 106.35155 242.933909 
L 106.488576 242.782865 
L 106.715666 242.481487 
L 106.829791 242.309878 
L 107.019352 242.056365 
L 107.239663 241.758177 
L 107.348189 241.614225 
L 107.548993 241.357875 
L 107.659592 241.218886 
L 107.81688 241.007567 
L 107.940596 240.852622 
L 110.547917 237.421867 
L 111.16654 236.598926 
L 111.299717 236.439018 
L 111.420696 236.272373 
L 111.552593 236.106792 
L 123.491937 220.300357 
L 123.642681 220.10322 
L 123.78191 219.90041 
L 123.994724 219.610377 
L 124.118569 219.450823 
L 124.248932 219.267869 
L 132.008825 208.718545 
L 132.149223 208.531336 
L 133.218155 207.120528 
L 133.333032 206.964165 
L 133.447638 206.805676 
L 133.634303 206.54188 
L 133.760624 206.362826 
L 134.153021 205.835945 
L 134.311052 205.616825 
L 134.466534 205.400541 
L 134.679702 205.114054 
L 134.825128 204.915498 
L 134.98205 204.704179 
L 135.179689 204.418401 
L 135.374761 204.157796 
L 135.520715 203.952504 
L 135.997218 203.291953 
L 136.165201 203.058295 
L 136.475004 202.626437 
L 136.605882 202.436037 
L 136.816892 202.137849 
L 137.377355 201.370574 
L 137.576722 201.102169 
L 137.714566 200.913542 
L 138.281569 200.133502 
L 138.422581 199.94452 
L 138.574451 199.73781 
L 138.930726 199.230075 
L 139.042215 199.07974 
L 139.662316 198.231624 
L 139.824926 198.012859 
L 140.305897 197.346989 
L 140.461127 197.142406 
L 140.575936 196.991716 
L 140.742885 196.76976 
L 141.229863 196.107435 
L 141.419168 195.855695 
L 141.707229 195.481986 
L 141.921042 195.175288 
L 142.195174 194.815052 
L 142.435408 194.495945 
L 142.613731 194.250587 
L 142.703293 194.113016 
L 144.726293 191.32473 
L 144.843419 191.160922 
L 145.200917 190.663469 
L 145.318149 190.49257 
L 145.475418 190.287987 
L 145.724755 189.954697 
L 145.884237 189.73345 
L 146.979638 188.187554 
L 147.337625 187.695065 
L 147.457336 187.527002 
L 148.443735 186.152714 
L 148.536304 186.018335 
L 148.814511 185.613069 
L 149.149007 185.139727 
L 149.308637 184.906424 
L 149.74308 184.288066 
L 149.924718 184.02888 
L 150.081041 183.820751 
L 150.547142 183.165873 
L 150.977962 182.567724 
L 151.121007 182.374487 
L 151.379561 182.004323 
L 151.563416 181.749747 
L 151.682687 181.589484 
L 152.202045 180.850928 
L 152.326662 180.655919 
L 152.467436 180.463745 
L 152.582579 180.30171 
L 152.808491 179.967357 
L 153.258428 179.346162 
L 153.377822 179.172071 
L 153.533849 178.971388 
L 155.398548 176.327764 
L 155.540291 176.140909 
L 155.687059 175.948735 
L 156.194917 175.225781 
L 156.334335 175.028643 
L 156.480643 174.827251 
L 156.655077 174.603522 
L 156.852093 174.323062 
L 157.024991 174.065295 
L 159.331968 170.763955 
L 159.422891 170.63454 
L 159.586222 170.411519 
L 159.69014 170.261894 
L 160.204851 169.522274 
L 160.99883 168.411427 
L 161.145112 168.219254 
L 161.374444 167.886674 
L 161.470769 167.752649 
L 161.918192 167.125781 
L 162.03496 166.968355 
L 162.161602 166.798164 
L 167.37845 159.508341 
L 167.543446 159.280003 
L 168.577616 157.792964 
L 168.721167 157.594054 
L 168.850344 157.411808 
L 169.010848 157.16645 
L 169.127261 156.988105 
L 169.241903 156.815433 
L 169.63704 156.233949 
L 169.809177 155.984691 
L 170.495163 155.040489 
L 170.659877 154.81215 
L 183.269181 136.684034 
L 183.396544 136.506043 
L 183.716658 136.055393 
L 183.831419 135.871729 
L 184.107103 135.491283 
L 184.226701 135.317192 
L 184.642588 134.740318 
L 184.75077 134.584664 
L 184.91883 134.339307 
L 185.033929 134.179044 
L 185.147435 134.007081 
L 185.361588 133.700029 
L 185.521392 133.476654 
L 185.631441 133.316037 
L 187.022361 131.323391 
L 187.176008 131.103207 
L 187.311043 130.902879 
L 187.750652 130.308276 
L 187.863596 130.160777 
L 188.236938 129.622905 
L 190.220018 126.893121 
L 190.349417 126.695275 
L 190.973754 125.804257 
L 191.208061 125.470613 
L 191.334377 125.310705 
L 191.454897 125.12775 
L 194.539628 120.789313 
L 194.650967 120.64536 
L 194.93193 120.239031 
L 195.132401 119.952189 
L 195.346092 119.64691 
L 196.156389 118.561237 
L 196.445987 118.175472 
L 196.562118 118.019819 
L 196.895781 117.558177 
L 205.341148 106.347238 
L 205.453911 106.202931 
L 205.574551 106.047632 
L 205.916188 105.601592 
L 206.410143 104.953804 
L 206.599231 104.721211 
L 206.71141 104.58825 
L 207.210577 103.98691 
L 207.356486 103.817074 
L 207.574588 103.564271 
L 207.738688 103.369261 
L 208.023688 103.026398 
L 208.14251 102.872163 
L 208.254699 102.732819 
L 208.667582 102.208775 
L 210.605635 99.897022 
L 210.730308 99.751296 
L 211.042479 99.407015 
L 211.208702 99.216969 
L 212.267567 98.019963 
L 212.419945 97.848 
L 216.117724 93.862708 
L 216.259713 93.713791 
L 216.39927 93.576575 
L 216.548206 93.421986 
L 218.161496 91.84737 
L 218.361152 91.666542 
L 220.277835 89.969602 
L 220.485606 89.785229 
L 220.950743 89.410456 
L 221.073003 89.300896 
L 221.351049 89.066884 
L 221.692351 88.794934 
L 222.601111 88.138282 
L 223.011354 87.844349 
L 223.22324 87.686569 
L 225.61916 86.132517 
L 225.948903 85.955945 
L 226.123897 85.860213 
L 230.411069 83.974645 
L 230.873008 83.834592 
L 232.440472 83.409825 
L 233.842441 83.051716 
L 234.268994 82.949957 
L 235.44606 82.66737 
L 235.577414 82.632268 
L 236.159902 82.418112 
L 236.270377 81.90825 
L 238.343698 81.405833 
L 238.514034 81.365058 
L 239.138391 81.211887 
L 239.26131 81.180331 
L 239.854903 81.033896 
L 239.963578 81.008368 
L 240.600698 80.855196 
L 241.409857 80.651677 
L 241.53571 80.627567 
L 242.236 80.460922 
L 242.396661 80.416956 
L 243.387922 80.169116 
L 243.683242 80.101395 
L 244.266358 79.966306 
L 244.618577 79.873056 
L 246.421077 79.44758 
L 246.79803 79.363903 
L 249.515878 78.700869 
L 250.1679 78.542734 
L 250.384941 78.487068 
L 254.42847 77.521946 
L 254.593377 77.479753 
L 256.004336 77.171992 
L 256.732616 76.99542 
L 257.439988 76.844376 
L 258.162983 76.696523 
L 258.864494 76.536969 
L 259.301398 76.441592 
L 260.555271 76.17886 
L 260.698622 76.143404 
L 261.560762 75.949103 
L 261.747231 75.904074 
L 262.530455 75.752675 
L 264.425522 75.343863 
L 264.54764 75.312662 
L 265.447633 75.110561 
L 265.949425 74.999228 
L 266.834504 74.82691 
L 267.24591 74.74997 
L 268.039709 74.575879 
L 270.81205 73.989077 
L 271.629565 73.818532 
L 272.008048 73.7306 
L 272.673159 73.584875 
L 273.139584 73.479569 
L 274.387889 73.211874 
L 274.671136 73.148053 
L 275.744441 72.937442 
L 275.965812 72.895249 
L 276.912788 72.712294 
L 277.313621 72.625072 
L 278.099846 72.470127 
L 278.971974 72.311638 
L 279.32128 72.243916 
L 280.054084 72.095708 
L 284.149669 71.304323 
L 284.971616 71.145124 
L 286.094045 70.918913 
L 286.944844 70.752622 
L 288.399616 70.484573 
L 289.693986 70.236024 
L 289.804505 70.214395 
L 290.944401 69.983575 
L 291.541505 69.879687 
L 297.359876 68.803942 
L 297.547887 68.767422 
L 299.803255 68.351165 
L 299.91306 68.328118 
L 300.875596 68.153673 
L 300.986757 68.132754 
L 304.045375 67.600909 
L 304.560479 67.505886 
L 305.369414 67.367251 
L 305.481367 67.346332 
L 306.664139 67.122248 
L 308.463701 66.814133 
L 309.468198 66.632242 
L 309.636683 66.602104 
L 310.73374 66.40603 
L 310.891618 66.37802 
L 312.014386 66.189747 
L 312.563292 66.096496 
L 313.568666 65.901132 
L 313.87527 65.846884 
L 315.675967 65.545859 
L 316.629789 65.383469 
L 316.802322 65.356168 
L 317.777616 65.194487 
L 318.485811 65.086345 
L 319.963975 64.85127 
L 322.830585 64.378637 
L 323.72115 64.226175 
L 323.839239 64.204192 
L 327.0385 63.667737 
L 327.392803 63.612425 
L 328.43769 63.44649 
L 332.810766 62.721762 
L 332.936693 62.699425 
L 333.769245 62.563272 
L 370.082824 57.227094 
L 371.211909 57.076759 
L 372.185361 56.941316 
L 373.269842 56.808 
L 373.512819 56.769707 
L 375.524263 56.506267 
L 378.993891 56.054907 
L 379.279791 56.020515 
L 380.749224 55.819477 
L 381.772835 55.684743 
L 383.230069 55.485479 
L 384.051661 55.372018 
L 385.282388 55.206792 
L 385.402272 55.194382 
L 386.67967 55.039793 
L 387.107926 54.983772 
L 387.858396 54.894067 
L 388.91185 54.75756 
L 395.48875 53.934264 
L 396.667899 53.78322 
L 398.052693 53.620121 
L 398.485526 53.568 
L 398.485526 53.568 
" style="fill:none;stroke:#2ca02c;stroke-linecap:square;stroke-width:1.5;"/>
   </g>
   <g id="line2d_34">
    <path clip-path="url(#pd55aa7d238)" d="M 73.832727 295.487979 
L 73.943807 191.240267 
L 74.229218 190.684186 
L 74.322761 190.502831 
L 74.571169 189.995187 
L 74.65254 189.833356 
L 74.776823 189.603189 
L 74.881305 189.416202 
L 75.380216 188.482016 
L 75.589516 188.045337 
L 75.700525 187.841077 
L 76.060154 187.126921 
L 76.177238 186.897129 
L 77.015615 184.896589 
L 77.126495 184.115973 
L 77.364773 183.655264 
L 77.50881 183.382668 
L 77.791929 182.836349 
L 77.902386 182.624205 
L 77.987083 182.471386 
L 78.341818 181.794026 
L 78.452836 181.573246 
L 78.913483 180.682615 
L 79.304253 179.960573 
L 79.486734 179.614759 
L 79.598396 179.419512 
L 79.737219 179.176203 
L 80.036317 178.643401 
L 80.146989 178.421495 
L 80.246078 178.263043 
L 80.589271 177.620603 
L 80.908531 177.040492 
L 81.029299 176.832102 
L 81.149668 176.62972 
L 81.350514 176.290289 
L 81.751131 175.599037 
L 81.861943 175.388019 
L 82.109897 174.907784 
L 82.228575 174.677992 
L 82.365516 174.444446 
L 86.951771 166.781719 
L 87.033324 166.648049 
L 87.235897 166.326641 
L 87.346598 166.155048 
L 87.520692 165.868935 
L 87.879303 165.309475 
L 87.989466 165.140886 
L 92.647471 158.36954 
L 92.781068 158.204706 
L 92.912008 158.021097 
L 93.019281 157.863397 
L 93.501363 157.218704 
L 93.617211 157.051992 
L 93.993596 156.539467 
L 94.741402 155.565105 
L 94.864958 155.417167 
L 95.413385 154.735677 
L 95.829679 154.219396 
L 97.00258 152.765175 
L 97.134638 152.549652 
L 97.418741 152.180934 
L 97.529635 152.052521 
L 97.846229 151.678546 
L 98.17261 151.305698 
L 98.314684 151.138611 
L 98.503873 150.916328 
L 98.747519 150.636223 
L 98.989774 150.345228 
L 99.777761 149.438452 
L 99.941171 149.243955 
L 100.140648 149.023175 
L 100.320777 148.81028 
L 100.603897 148.480611 
L 101.581012 147.265569 
L 101.732831 147.102988 
L 101.850159 146.966314 
L 102.478717 146.269429 
L 102.589642 146.14815 
L 104.557861 143.933965 
L 104.681255 143.808555 
L 105.376653 143.097027 
L 105.494271 142.974246 
L 105.691962 142.782753 
L 105.823656 142.660723 
L 106.298182 142.219538 
L 106.409206 141.955578 
L 106.621446 141.764085 
L 106.954726 141.447558 
L 107.081236 141.318394 
L 107.207377 141.197491 
L 107.582925 140.843792 
L 107.71503 140.701862 
L 109.544727 138.925106 
L 109.65547 138.694188 
L 110.142775 138.248122 
L 110.252455 138.152751 
L 110.395632 138.005188 
L 113.184793 135.341557 
L 113.295029 135.223657 
L 113.586345 134.994617 
L 113.696523 134.907881 
L 113.943316 134.694986 
L 114.414545 134.124637 
L 114.525442 134.031519 
L 117.372455 131.689671 
L 117.552097 131.54699 
L 117.682043 131.42909 
L 118.103802 131.118196 
L 118.214779 131.023951 
L 118.879092 130.520812 
L 119.067111 130.378507 
L 119.429335 130.092394 
L 121.034275 128.837175 
L 121.144831 128.760202 
L 121.426074 128.564204 
L 121.538821 128.477093 
L 121.769953 128.291232 
L 122.019315 128.056184 
L 122.504526 127.735527 
L 122.758125 127.516624 
L 124.048662 126.598208 
L 124.313864 126.390194 
L 124.498883 126.273045 
L 125.093971 125.852887 
L 125.204071 125.765025 
L 125.514181 125.552881 
L 126.284955 124.79592 
L 127.087847 124.282643 
L 127.811618 123.808041 
L 127.941818 123.631191 
L 128.052478 123.422802 
L 129.365742 122.576102 
L 129.47579 122.513022 
L 129.824709 122.287736 
L 129.944829 122.214142 
L 134.668585 119.213333 
L 134.868321 119.046246 
L 134.985115 118.981289 
L 135.39433 118.763137 
L 136.572716 118.055739 
L 136.683219 117.998666 
L 137.186537 117.712177 
L 137.310967 117.63896 
L 137.754348 117.387015 
L 138.133152 117.175246 
L 138.615422 116.918044 
L 138.996589 116.624046 
L 139.265536 116.493756 
L 139.466924 116.3905 
L 140.904875 115.587355 
L 141.259326 115.406 
L 141.995552 115.02001 
L 142.122456 114.893099 
L 142.321594 114.782333 
L 142.574204 114.637024 
L 143.158908 114.317869 
L 143.401558 114.153034 
L 143.511462 114.072682 
L 143.914339 113.857159 
L 145.532712 112.994689 
L 145.6485 112.941371 
L 145.773405 112.87754 
L 146.88 112.258379 
L 146.990406 112.195299 
L 147.853964 111.730084 
L 147.96355 111.683149 
L 148.305564 111.515686 
L 149.396285 110.945337 
L 149.793566 110.775622 
L 149.902217 110.70691 
L 150.165935 110.571363 
L 152.052605 109.557576 
L 152.163007 109.435546 
L 152.689387 109.181724 
L 152.800448 109.139295 
L 154.996364 108.051914 
L 155.107369 107.579565 
L 155.350469 107.469926 
L 155.800541 107.254026 
L 155.968396 107.175552 
L 156.195826 107.007338 
L 156.306391 106.923232 
L 157.155833 106.55151 
L 157.300537 106.488805 
L 157.703698 106.284921 
L 157.869678 106.211328 
L 158.242909 106.03936 
L 158.353756 105.976279 
L 160.407273 104.886271 
L 160.516743 104.835206 
L 161.007437 104.621184 
L 161.122423 104.562985 
L 161.406654 104.419178 
L 161.526771 104.357975 
L 162.418319 103.970108 
L 162.545079 103.916039 
L 163.112727 103.647949 
L 163.223283 103.59801 
L 163.692468 103.386617 
L 163.802711 103.325039 
L 164.133706 103.155323 
L 164.387367 103.047937 
L 165.494476 102.539166 
L 165.620156 102.491105 
L 166.191348 102.246294 
L 166.302182 102.200486 
L 166.562012 102.091223 
L 166.971326 101.858052 
L 167.082202 101.822006 
L 167.811675 101.523502 
L 167.922719 101.479196 
L 168.781462 101.059037 
L 169.037831 100.951651 
L 170.026667 100.457899 
L 170.130909 100.411716 
L 170.441187 100.28518 
L 170.567721 100.242376 
L 170.915624 100.107579 
L 171.899268 99.58379 
L 172.251625 99.423836 
L 172.361113 99.381408 
L 172.852364 99.166635 
L 172.962216 99.120451 
L 173.535934 98.877893 
L 173.661903 98.826453 
L 173.952275 98.691282 
L 174.073518 98.638339 
L 174.367431 98.518562 
L 174.672397 98.381889 
L 174.781947 98.298908 
L 175.287273 98.0954 
L 175.397697 98.013546 
L 176.038788 97.770613 
L 176.148628 97.691763 
L 176.592949 97.513411 
L 176.703262 97.469105 
L 177.722182 97.027544 
L 177.832878 96.965966 
L 178.29666 96.767715 
L 178.778103 96.589363 
L 179.109646 96.446307 
L 179.333512 96.344177 
L 180.001025 96.074585 
L 180.140412 96.026148 
L 180.498327 95.895107 
L 180.657781 95.831276 
L 180.984341 95.691223 
L 181.108971 95.643538 
L 182.050909 95.135142 
L 182.160855 95.071311 
L 182.590843 94.891833 
L 183.53846 94.467545 
L 188.317517 92.44748 
L 188.649579 92.318692 
L 188.759853 92.275888 
L 189.085091 92.125697 
L 189.196167 92.079889 
L 190.018402 91.711922 
L 190.15227 91.672121 
L 190.56265 91.512168 
L 192.85988 90.550197 
L 193.133494 90.42629 
L 193.954909 90.09587 
L 194.06334 90.03279 
L 194.422049 89.878469 
L 194.680795 89.77296 
L 195.271518 89.549552 
L 195.380222 89.496609 
L 195.578182 89.358809 
L 195.686587 89.203362 
L 196.177408 89.026888 
L 196.631702 88.82751 
L 197.139021 88.645028 
L 197.250092 88.549282 
L 210.187636 82.958059 
L 210.298268 82.920511 
L 210.697838 82.765064 
L 211.327443 82.50223 
L 211.766901 82.334392 
L 212.111515 82.110984 
L 212.222406 82.050157 
L 212.97039 81.759162 
L 213.07905 81.681438 
L 213.394646 81.546267 
L 213.553568 81.382184 
L 213.663911 81.336375 
L 214.028544 81.1783 
L 214.744793 80.880547 
L 215.057455 80.720594 
L 215.16782 80.614709 
L 215.869091 80.334604 
L 215.979248 80.248244 
L 216.444723 80.073272 
L 216.680727 79.901304 
L 216.791405 79.738722 
L 217.108514 79.586654 
L 217.705391 79.343345 
L 218.276487 79.087646 
L 218.341419 78.966742 
L 218.573935 78.860482 
L 219.013831 78.676874 
L 219.316275 78.549963 
L 219.927273 78.264601 
L 220.036322 78.118165 
L 220.436913 77.934932 
L 220.846106 77.732551 
L 220.953572 77.688995 
L 221.299052 77.545939 
L 221.550545 77.345059 
L 221.661046 77.206508 
L 222.190355 76.9249 
L 222.299615 76.860318 
L 222.631112 76.709377 
L 223.030224 76.509623 
L 223.173818 76.368068 
L 223.284464 76.202108 
L 223.98241 75.87732 
L 224.091836 75.833765 
L 224.36296 75.691084 
L 224.495864 75.620494 
L 224.732629 75.482319 
L 224.797091 75.311477 
L 224.907879 75.156405 
L 226.354997 74.37654 
L 226.420364 74.255261 
L 226.53127 74.007822 
L 228.043636 73.153988 
L 228.154719 72.91481 
L 228.290002 72.826197 
L 228.524663 72.692152 
L 228.945455 72.436077 
L 229.056251 72.369618 
L 229.52695 72.079374 
L 229.666909 71.904027 
L 229.777538 71.435432 
L 230.132024 71.195878 
L 230.293456 71.072346 
L 230.565645 70.88273 
L 230.983841 70.595866 
L 231.168291 70.457691 
L 231.290182 70.210251 
L 231.40006 70.026643 
L 231.596399 69.872322 
L 231.843933 69.615496 
L 231.905026 69.488585 
L 232.014768 69.276066 
L 232.140008 69.141269 
L 232.250311 69.033132 
L 232.402219 68.897961 
L 232.63886 68.696705 
L 232.870071 68.501833 
L 232.913455 68.326485 
L 233.024159 67.738113 
L 233.385175 67.405441 
L 233.495777 67.306691 
L 233.884944 66.914693 
L 234.318929 66.334581 
L 234.520796 66.109295 
L 236.135826 62.550152 
L 236.16 62.03237 
L 236.242274 61.999704 
L 237.95864 61.87467 
L 238.500359 61.836747 
L 241.029818 61.647882 
L 241.140805 61.534488 
L 244.244794 61.320091 
L 245.1198 61.260766 
L 248.994882 60.967143 
L 249.140902 60.955879 
L 283.079024 58.65308 
L 286.414169 58.46384 
L 286.547995 58.448445 
L 290.269091 58.220907 
L 290.370929 58.207765 
L 293.451979 58.035046 
L 293.552456 58.030164 
L 297.998961 57.814641 
L 298.109246 57.801124 
L 314.635673 56.97883 
L 314.808527 56.969443 
L 317.323636 56.790341 
L 317.418582 56.776823 
L 323.125455 56.543277 
L 323.471483 56.529384 
L 327.729231 56.330006 
L 327.83129 56.324374 
L 333.556364 56.079188 
L 333.657014 56.070927 
L 340.049455 55.77355 
L 340.155512 55.757029 
L 361.422514 54.891555 
L 363.256903 54.818713 
L 373.017955 54.479282 
L 378.69494 54.247613 
L 383.549573 54.09179 
L 398.487273 53.568 
L 398.487273 53.568 
" style="fill:none;stroke:#d62728;stroke-linecap:square;stroke-width:1.5;"/>
   </g>
   <g id="patch_3">
    <path d="M 57.6 307.584 
L 57.6 41.472 
" style="fill:none;stroke:#000000;stroke-linecap:square;stroke-linejoin:miter;stroke-width:0.8;"/>
   </g>
   <g id="patch_4">
    <path d="M 414.72 307.584 
L 414.72 41.472 
" style="fill:none;stroke:#000000;stroke-linecap:square;stroke-linejoin:miter;stroke-width:0.8;"/>
   </g>
   <g id="patch_5">
    <path d="M 57.6 307.584 
L 414.72 307.584 
" style="fill:none;stroke:#000000;stroke-linecap:square;stroke-linejoin:miter;stroke-width:0.8;"/>
   </g>
   <g id="patch_6">
    <path d="M 57.6 41.472 
L 414.72 41.472 
" style="fill:none;stroke:#000000;stroke-linecap:square;stroke-linejoin:miter;stroke-width:0.8;"/>
   </g>
   <g id="text_18">
    <!-- CDF of Traffic Dynamicity -->
    <g transform="translate(160.250625 35.472)scale(0.12 -0.12)">
     <defs>
      <path d="M 628 4666 
L 3309 4666 
L 3309 4134 
L 1259 4134 
L 1259 2759 
L 3109 2759 
L 3109 2228 
L 1259 2228 
L 1259 0 
L 628 0 
L 628 4666 
z
" id="DejaVuSans-46" transform="scale(0.015625)"/>
     </defs>
     <use xlink:href="#DejaVuSans-43"/>
     <use x="69.824219" xlink:href="#DejaVuSans-44"/>
     <use x="146.826172" xlink:href="#DejaVuSans-46"/>
     <use x="204.345703" xlink:href="#DejaVuSans-20"/>
     <use x="236.132812" xlink:href="#DejaVuSans-6f"/>
     <use x="297.314453" xlink:href="#DejaVuSans-66"/>
     <use x="332.519531" xlink:href="#DejaVuSans-20"/>
     <use x="364.306641" xlink:href="#DejaVuSans-54"/>
     <use x="410.640625" xlink:href="#DejaVuSans-72"/>
     <use x="451.753906" xlink:href="#DejaVuSans-61"/>
     <use x="513.033203" xlink:href="#DejaVuSans-66"/>
     <use x="548.238281" xlink:href="#DejaVuSans-66"/>
     <use x="583.443359" xlink:href="#DejaVuSans-69"/>
     <use x="611.226562" xlink:href="#DejaVuSans-63"/>
     <use x="666.207031" xlink:href="#DejaVuSans-20"/>
     <use x="697.994141" xlink:href="#DejaVuSans-44"/>
     <use x="774.996094" xlink:href="#DejaVuSans-79"/>
     <use x="834.175781" xlink:href="#DejaVuSans-6e"/>
     <use x="897.554688" xlink:href="#DejaVuSans-61"/>
     <use x="958.833984" xlink:href="#DejaVuSans-6d"/>
     <use x="1056.246094" xlink:href="#DejaVuSans-69"/>
     <use x="1084.029297" xlink:href="#DejaVuSans-63"/>
     <use x="1139.009766" xlink:href="#DejaVuSans-69"/>
     <use x="1166.792969" xlink:href="#DejaVuSans-74"/>
     <use x="1206.001953" xlink:href="#DejaVuSans-79"/>
    </g>
   </g>
   <g id="legend_1">
    <g id="patch_7">
     <path d="M 328.890313 302.584 
L 407.72 302.584 
Q 409.72 302.584 409.72 300.584 
L 409.72 242.8715 
Q 409.72 240.8715 407.72 240.8715 
L 328.890313 240.8715 
Q 326.890313 240.8715 326.890313 242.8715 
L 326.890313 300.584 
Q 326.890313 302.584 328.890313 302.584 
z
" style="fill:#ffffff;opacity:0.8;stroke:#cccccc;stroke-linejoin:miter;"/>
    </g>
    <g id="line2d_35">
     <path d="M 330.890313 248.969937 
L 350.890313 248.969937 
" style="fill:none;stroke:#1f77b4;stroke-linecap:square;stroke-width:1.5;"/>
    </g>
    <g id="line2d_36"/>
    <g id="text_19">
     <!-- Abilene -->
     <g transform="translate(358.890313 252.469937)scale(0.1 -0.1)">
      <defs>
       <path d="M 2188 4044 
L 1331 1722 
L 3047 1722 
L 2188 4044 
z
M 1831 4666 
L 2547 4666 
L 4325 0 
L 3669 0 
L 3244 1197 
L 1141 1197 
L 716 0 
L 50 0 
L 1831 4666 
z
" id="DejaVuSans-41" transform="scale(0.015625)"/>
      </defs>
      <use xlink:href="#DejaVuSans-41"/>
      <use x="68.408203" xlink:href="#DejaVuSans-62"/>
      <use x="131.884766" xlink:href="#DejaVuSans-69"/>
      <use x="159.667969" xlink:href="#DejaVuSans-6c"/>
      <use x="187.451172" xlink:href="#DejaVuSans-65"/>
      <use x="248.974609" xlink:href="#DejaVuSans-6e"/>
      <use x="312.353516" xlink:href="#DejaVuSans-65"/>
     </g>
    </g>
    <g id="line2d_37">
     <path d="M 330.890313 263.648062 
L 350.890313 263.648062 
" style="fill:none;stroke:#ff7f0e;stroke-linecap:square;stroke-width:1.5;"/>
    </g>
    <g id="line2d_38"/>
    <g id="text_20">
     <!-- Geant -->
     <g transform="translate(358.890313 267.148062)scale(0.1 -0.1)">
      <defs>
       <path d="M 3809 666 
L 3809 1919 
L 2778 1919 
L 2778 2438 
L 4434 2438 
L 4434 434 
Q 4069 175 3628 42 
Q 3188 -91 2688 -91 
Q 1594 -91 976 548 
Q 359 1188 359 2328 
Q 359 3472 976 4111 
Q 1594 4750 2688 4750 
Q 3144 4750 3555 4637 
Q 3966 4525 4313 4306 
L 4313 3634 
Q 3963 3931 3569 4081 
Q 3175 4231 2741 4231 
Q 1884 4231 1454 3753 
Q 1025 3275 1025 2328 
Q 1025 1384 1454 906 
Q 1884 428 2741 428 
Q 3075 428 3337 486 
Q 3600 544 3809 666 
z
" id="DejaVuSans-47" transform="scale(0.015625)"/>
      </defs>
      <use xlink:href="#DejaVuSans-47"/>
      <use x="77.490234" xlink:href="#DejaVuSans-65"/>
      <use x="139.013672" xlink:href="#DejaVuSans-61"/>
      <use x="200.292969" xlink:href="#DejaVuSans-6e"/>
      <use x="263.671875" xlink:href="#DejaVuSans-74"/>
     </g>
    </g>
    <g id="line2d_39">
     <path d="M 330.890313 278.326187 
L 350.890313 278.326187 
" style="fill:none;stroke:#2ca02c;stroke-linecap:square;stroke-width:1.5;"/>
    </g>
    <g id="line2d_40"/>
    <g id="text_21">
     <!-- Gnnet-40 -->
     <g transform="translate(358.890313 281.826187)scale(0.1 -0.1)">
      <defs>
       <path d="M 313 2009 
L 1997 2009 
L 1997 1497 
L 313 1497 
L 313 2009 
z
" id="DejaVuSans-2d" transform="scale(0.015625)"/>
      </defs>
      <use xlink:href="#DejaVuSans-47"/>
      <use x="77.490234" xlink:href="#DejaVuSans-6e"/>
      <use x="140.869141" xlink:href="#DejaVuSans-6e"/>
      <use x="204.248047" xlink:href="#DejaVuSans-65"/>
      <use x="265.771484" xlink:href="#DejaVuSans-74"/>
      <use x="304.980469" xlink:href="#DejaVuSans-2d"/>
      <use x="341.064453" xlink:href="#DejaVuSans-34"/>
      <use x="404.6875" xlink:href="#DejaVuSans-30"/>
     </g>
    </g>
    <g id="line2d_41">
     <path d="M 330.890313 293.004312 
L 350.890313 293.004312 
" style="fill:none;stroke:#d62728;stroke-linecap:square;stroke-width:1.5;"/>
    </g>
    <g id="line2d_42"/>
    <g id="text_22">
     <!-- Germany -->
     <g transform="translate(358.890313 296.504312)scale(0.1 -0.1)">
      <use xlink:href="#DejaVuSans-47"/>
      <use x="77.490234" xlink:href="#DejaVuSans-65"/>
      <use x="139.013672" xlink:href="#DejaVuSans-72"/>
      <use x="178.376953" xlink:href="#DejaVuSans-6d"/>
      <use x="275.789062" xlink:href="#DejaVuSans-61"/>
      <use x="337.068359" xlink:href="#DejaVuSans-6e"/>
      <use x="400.447266" xlink:href="#DejaVuSans-79"/>
     </g>
    </g>
   </g>
  </g>
 </g>
 <defs>
  <clipPath id="pd55aa7d238">
   <rect height="266.112" width="357.12" x="57.6" y="41.472"/>
  </clipPath>
 </defs>
</svg>
