<?xml version="1.0" encoding="utf-8" standalone="no"?>
<!DOCTYPE svg PUBLIC "-//W3C//DTD SVG 1.1//EN"
  "http://www.w3.org/Graphics/SVG/1.1/DTD/svg11.dtd">
<svg height="345.6pt" version="1.1" viewBox="0 0 460.8 345.6" width="460.8pt" xmlns="http://www.w3.org/2000/svg" xmlns:xlink="http://www.w3.org/1999/xlink">
 <metadata>
  <rdf:RDF xmlns:cc="http://creativecommons.org/ns#" xmlns:dc="http://purl.org/dc/elements/1.1/" xmlns:rdf="http://www.w3.org/1999/02/22-rdf-syntax-ns#">
   <cc:Work>
    <dc:type rdf:resource="http://purl.org/dc/dcmitype/StillImage"/>
    <dc:date>2023-08-20T01:09:27.199350</dc:date>
    <dc:format>image/svg+xml</dc:format>
    <dc:creator>
     <cc:Agent>
      <dc:title>Matplotlib v3.4.1, https://matplotlib.org/</dc:title>
     </cc:Agent>
    </dc:creator>
   </cc:Work>
  </rdf:RDF>
 </metadata>
 <defs>
  <style type="text/css">*{stroke-linecap:butt;stroke-linejoin:round;}</style>
 </defs>
 <g id="figure_1">
  <g id="patch_1">
   <path d="M 0 345.6 
L 460.8 345.6 
L 460.8 0 
L 0 0 
z
" style="fill:#ffffff;"/>
  </g>
  <g id="axes_1">
   <g id="patch_2">
    <path d="M 57.6 307.584 
L 414.72 307.584 
L 414.72 41.472 
L 57.6 41.472 
z
" style="fill:#ffffff;"/>
   </g>
   <g id="matplotlib.axis_1">
    <g id="xtick_1">
     <g id="line2d_1">
      <path clip-path="url(#p2c97b48967)" d="M 73.832727 307.584 
L 73.832727 41.472 
" style="fill:none;stroke:#b0b0b0;stroke-linecap:square;stroke-width:0.8;"/>
     </g>
     <g id="line2d_2">
      <defs>
       <path d="M 0 0 
L 0 3.5 
" id="m000879be13" style="stroke:#000000;stroke-width:0.8;"/>
      </defs>
      <g>
       <use style="stroke:#000000;stroke-width:0.8;" x="73.832727" xlink:href="#m000879be13" y="307.584"/>
      </g>
     </g>
     <g id="text_1">
      <!-- 0.0 -->
      <g transform="translate(65.881165 322.182437)scale(0.1 -0.1)">
       <defs>
        <path d="M 2034 4250 
Q 1547 4250 1301 3770 
Q 1056 3291 1056 2328 
Q 1056 1369 1301 889 
Q 1547 409 2034 409 
Q 2525 409 2770 889 
Q 3016 1369 3016 2328 
Q 3016 3291 2770 3770 
Q 2525 4250 2034 4250 
z
M 2034 4750 
Q 2819 4750 3233 4129 
Q 3647 3509 3647 2328 
Q 3647 1150 3233 529 
Q 2819 -91 2034 -91 
Q 1250 -91 836 529 
Q 422 1150 422 2328 
Q 422 3509 836 4129 
Q 1250 4750 2034 4750 
z
" id="DejaVuSans-30" transform="scale(0.015625)"/>
        <path d="M 684 794 
L 1344 794 
L 1344 0 
L 684 0 
L 684 794 
z
" id="DejaVuSans-2e" transform="scale(0.015625)"/>
       </defs>
       <use xlink:href="#DejaVuSans-30"/>
       <use x="63.623047" xlink:href="#DejaVuSans-2e"/>
       <use x="95.410156" xlink:href="#DejaVuSans-30"/>
      </g>
     </g>
    </g>
    <g id="xtick_2">
     <g id="line2d_3">
      <path clip-path="url(#p2c97b48967)" d="M 138.763636 307.584 
L 138.763636 41.472 
" style="fill:none;stroke:#b0b0b0;stroke-linecap:square;stroke-width:0.8;"/>
     </g>
     <g id="line2d_4">
      <g>
       <use style="stroke:#000000;stroke-width:0.8;" x="138.763636" xlink:href="#m000879be13" y="307.584"/>
      </g>
     </g>
     <g id="text_2">
      <!-- 0.2 -->
      <g transform="translate(130.812074 322.182437)scale(0.1 -0.1)">
       <defs>
        <path d="M 1228 531 
L 3431 531 
L 3431 0 
L 469 0 
L 469 531 
Q 828 903 1448 1529 
Q 2069 2156 2228 2338 
Q 2531 2678 2651 2914 
Q 2772 3150 2772 3378 
Q 2772 3750 2511 3984 
Q 2250 4219 1831 4219 
Q 1534 4219 1204 4116 
Q 875 4013 500 3803 
L 500 4441 
Q 881 4594 1212 4672 
Q 1544 4750 1819 4750 
Q 2544 4750 2975 4387 
Q 3406 4025 3406 3419 
Q 3406 3131 3298 2873 
Q 3191 2616 2906 2266 
Q 2828 2175 2409 1742 
Q 1991 1309 1228 531 
z
" id="DejaVuSans-32" transform="scale(0.015625)"/>
       </defs>
       <use xlink:href="#DejaVuSans-30"/>
       <use x="63.623047" xlink:href="#DejaVuSans-2e"/>
       <use x="95.410156" xlink:href="#DejaVuSans-32"/>
      </g>
     </g>
    </g>
    <g id="xtick_3">
     <g id="line2d_5">
      <path clip-path="url(#p2c97b48967)" d="M 203.694545 307.584 
L 203.694545 41.472 
" style="fill:none;stroke:#b0b0b0;stroke-linecap:square;stroke-width:0.8;"/>
     </g>
     <g id="line2d_6">
      <g>
       <use style="stroke:#000000;stroke-width:0.8;" x="203.694545" xlink:href="#m000879be13" y="307.584"/>
      </g>
     </g>
     <g id="text_3">
      <!-- 0.4 -->
      <g transform="translate(195.742983 322.182437)scale(0.1 -0.1)">
       <defs>
        <path d="M 2419 4116 
L 825 1625 
L 2419 1625 
L 2419 4116 
z
M 2253 4666 
L 3047 4666 
L 3047 1625 
L 3713 1625 
L 3713 1100 
L 3047 1100 
L 3047 0 
L 2419 0 
L 2419 1100 
L 313 1100 
L 313 1709 
L 2253 4666 
z
" id="DejaVuSans-34" transform="scale(0.015625)"/>
       </defs>
       <use xlink:href="#DejaVuSans-30"/>
       <use x="63.623047" xlink:href="#DejaVuSans-2e"/>
       <use x="95.410156" xlink:href="#DejaVuSans-34"/>
      </g>
     </g>
    </g>
    <g id="xtick_4">
     <g id="line2d_7">
      <path clip-path="url(#p2c97b48967)" d="M 268.625455 307.584 
L 268.625455 41.472 
" style="fill:none;stroke:#b0b0b0;stroke-linecap:square;stroke-width:0.8;"/>
     </g>
     <g id="line2d_8">
      <g>
       <use style="stroke:#000000;stroke-width:0.8;" x="268.625455" xlink:href="#m000879be13" y="307.584"/>
      </g>
     </g>
     <g id="text_4">
      <!-- 0.6 -->
      <g transform="translate(260.673892 322.182437)scale(0.1 -0.1)">
       <defs>
        <path d="M 2113 2584 
Q 1688 2584 1439 2293 
Q 1191 2003 1191 1497 
Q 1191 994 1439 701 
Q 1688 409 2113 409 
Q 2538 409 2786 701 
Q 3034 994 3034 1497 
Q 3034 2003 2786 2293 
Q 2538 2584 2113 2584 
z
M 3366 4563 
L 3366 3988 
Q 3128 4100 2886 4159 
Q 2644 4219 2406 4219 
Q 1781 4219 1451 3797 
Q 1122 3375 1075 2522 
Q 1259 2794 1537 2939 
Q 1816 3084 2150 3084 
Q 2853 3084 3261 2657 
Q 3669 2231 3669 1497 
Q 3669 778 3244 343 
Q 2819 -91 2113 -91 
Q 1303 -91 875 529 
Q 447 1150 447 2328 
Q 447 3434 972 4092 
Q 1497 4750 2381 4750 
Q 2619 4750 2861 4703 
Q 3103 4656 3366 4563 
z
" id="DejaVuSans-36" transform="scale(0.015625)"/>
       </defs>
       <use xlink:href="#DejaVuSans-30"/>
       <use x="63.623047" xlink:href="#DejaVuSans-2e"/>
       <use x="95.410156" xlink:href="#DejaVuSans-36"/>
      </g>
     </g>
    </g>
    <g id="xtick_5">
     <g id="line2d_9">
      <path clip-path="url(#p2c97b48967)" d="M 333.556364 307.584 
L 333.556364 41.472 
" style="fill:none;stroke:#b0b0b0;stroke-linecap:square;stroke-width:0.8;"/>
     </g>
     <g id="line2d_10">
      <g>
       <use style="stroke:#000000;stroke-width:0.8;" x="333.556364" xlink:href="#m000879be13" y="307.584"/>
      </g>
     </g>
     <g id="text_5">
      <!-- 0.8 -->
      <g transform="translate(325.604801 322.182437)scale(0.1 -0.1)">
       <defs>
        <path d="M 2034 2216 
Q 1584 2216 1326 1975 
Q 1069 1734 1069 1313 
Q 1069 891 1326 650 
Q 1584 409 2034 409 
Q 2484 409 2743 651 
Q 3003 894 3003 1313 
Q 3003 1734 2745 1975 
Q 2488 2216 2034 2216 
z
M 1403 2484 
Q 997 2584 770 2862 
Q 544 3141 544 3541 
Q 544 4100 942 4425 
Q 1341 4750 2034 4750 
Q 2731 4750 3128 4425 
Q 3525 4100 3525 3541 
Q 3525 3141 3298 2862 
Q 3072 2584 2669 2484 
Q 3125 2378 3379 2068 
Q 3634 1759 3634 1313 
Q 3634 634 3220 271 
Q 2806 -91 2034 -91 
Q 1263 -91 848 271 
Q 434 634 434 1313 
Q 434 1759 690 2068 
Q 947 2378 1403 2484 
z
M 1172 3481 
Q 1172 3119 1398 2916 
Q 1625 2713 2034 2713 
Q 2441 2713 2670 2916 
Q 2900 3119 2900 3481 
Q 2900 3844 2670 4047 
Q 2441 4250 2034 4250 
Q 1625 4250 1398 4047 
Q 1172 3844 1172 3481 
z
" id="DejaVuSans-38" transform="scale(0.015625)"/>
       </defs>
       <use xlink:href="#DejaVuSans-30"/>
       <use x="63.623047" xlink:href="#DejaVuSans-2e"/>
       <use x="95.410156" xlink:href="#DejaVuSans-38"/>
      </g>
     </g>
    </g>
    <g id="xtick_6">
     <g id="line2d_11">
      <path clip-path="url(#p2c97b48967)" d="M 398.487273 307.584 
L 398.487273 41.472 
" style="fill:none;stroke:#b0b0b0;stroke-linecap:square;stroke-width:0.8;"/>
     </g>
     <g id="line2d_12">
      <g>
       <use style="stroke:#000000;stroke-width:0.8;" x="398.487273" xlink:href="#m000879be13" y="307.584"/>
      </g>
     </g>
     <g id="text_6">
      <!-- 1.0 -->
      <g transform="translate(390.53571 322.182437)scale(0.1 -0.1)">
       <defs>
        <path d="M 794 531 
L 1825 531 
L 1825 4091 
L 703 3866 
L 703 4441 
L 1819 4666 
L 2450 4666 
L 2450 531 
L 3481 531 
L 3481 0 
L 794 0 
L 794 531 
z
" id="DejaVuSans-31" transform="scale(0.015625)"/>
       </defs>
       <use xlink:href="#DejaVuSans-31"/>
       <use x="63.623047" xlink:href="#DejaVuSans-2e"/>
       <use x="95.410156" xlink:href="#DejaVuSans-30"/>
      </g>
     </g>
    </g>
    <g id="text_7">
     <!-- Normalized traffic volume -->
     <g transform="translate(171.364688 335.860562)scale(0.1 -0.1)">
      <defs>
       <path d="M 628 4666 
L 1478 4666 
L 3547 763 
L 3547 4666 
L 4159 4666 
L 4159 0 
L 3309 0 
L 1241 3903 
L 1241 0 
L 628 0 
L 628 4666 
z
" id="DejaVuSans-4e" transform="scale(0.015625)"/>
       <path d="M 1959 3097 
Q 1497 3097 1228 2736 
Q 959 2375 959 1747 
Q 959 1119 1226 758 
Q 1494 397 1959 397 
Q 2419 397 2687 759 
Q 2956 1122 2956 1747 
Q 2956 2369 2687 2733 
Q 2419 3097 1959 3097 
z
M 1959 3584 
Q 2709 3584 3137 3096 
Q 3566 2609 3566 1747 
Q 3566 888 3137 398 
Q 2709 -91 1959 -91 
Q 1206 -91 779 398 
Q 353 888 353 1747 
Q 353 2609 779 3096 
Q 1206 3584 1959 3584 
z
" id="DejaVuSans-6f" transform="scale(0.015625)"/>
       <path d="M 2631 2963 
Q 2534 3019 2420 3045 
Q 2306 3072 2169 3072 
Q 1681 3072 1420 2755 
Q 1159 2438 1159 1844 
L 1159 0 
L 581 0 
L 581 3500 
L 1159 3500 
L 1159 2956 
Q 1341 3275 1631 3429 
Q 1922 3584 2338 3584 
Q 2397 3584 2469 3576 
Q 2541 3569 2628 3553 
L 2631 2963 
z
" id="DejaVuSans-72" transform="scale(0.015625)"/>
       <path d="M 3328 2828 
Q 3544 3216 3844 3400 
Q 4144 3584 4550 3584 
Q 5097 3584 5394 3201 
Q 5691 2819 5691 2113 
L 5691 0 
L 5113 0 
L 5113 2094 
Q 5113 2597 4934 2840 
Q 4756 3084 4391 3084 
Q 3944 3084 3684 2787 
Q 3425 2491 3425 1978 
L 3425 0 
L 2847 0 
L 2847 2094 
Q 2847 2600 2669 2842 
Q 2491 3084 2119 3084 
Q 1678 3084 1418 2786 
Q 1159 2488 1159 1978 
L 1159 0 
L 581 0 
L 581 3500 
L 1159 3500 
L 1159 2956 
Q 1356 3278 1631 3431 
Q 1906 3584 2284 3584 
Q 2666 3584 2933 3390 
Q 3200 3197 3328 2828 
z
" id="DejaVuSans-6d" transform="scale(0.015625)"/>
       <path d="M 2194 1759 
Q 1497 1759 1228 1600 
Q 959 1441 959 1056 
Q 959 750 1161 570 
Q 1363 391 1709 391 
Q 2188 391 2477 730 
Q 2766 1069 2766 1631 
L 2766 1759 
L 2194 1759 
z
M 3341 1997 
L 3341 0 
L 2766 0 
L 2766 531 
Q 2569 213 2275 61 
Q 1981 -91 1556 -91 
Q 1019 -91 701 211 
Q 384 513 384 1019 
Q 384 1609 779 1909 
Q 1175 2209 1959 2209 
L 2766 2209 
L 2766 2266 
Q 2766 2663 2505 2880 
Q 2244 3097 1772 3097 
Q 1472 3097 1187 3025 
Q 903 2953 641 2809 
L 641 3341 
Q 956 3463 1253 3523 
Q 1550 3584 1831 3584 
Q 2591 3584 2966 3190 
Q 3341 2797 3341 1997 
z
" id="DejaVuSans-61" transform="scale(0.015625)"/>
       <path d="M 603 4863 
L 1178 4863 
L 1178 0 
L 603 0 
L 603 4863 
z
" id="DejaVuSans-6c" transform="scale(0.015625)"/>
       <path d="M 603 3500 
L 1178 3500 
L 1178 0 
L 603 0 
L 603 3500 
z
M 603 4863 
L 1178 4863 
L 1178 4134 
L 603 4134 
L 603 4863 
z
" id="DejaVuSans-69" transform="scale(0.015625)"/>
       <path d="M 353 3500 
L 3084 3500 
L 3084 2975 
L 922 459 
L 3084 459 
L 3084 0 
L 275 0 
L 275 525 
L 2438 3041 
L 353 3041 
L 353 3500 
z
" id="DejaVuSans-7a" transform="scale(0.015625)"/>
       <path d="M 3597 1894 
L 3597 1613 
L 953 1613 
Q 991 1019 1311 708 
Q 1631 397 2203 397 
Q 2534 397 2845 478 
Q 3156 559 3463 722 
L 3463 178 
Q 3153 47 2828 -22 
Q 2503 -91 2169 -91 
Q 1331 -91 842 396 
Q 353 884 353 1716 
Q 353 2575 817 3079 
Q 1281 3584 2069 3584 
Q 2775 3584 3186 3129 
Q 3597 2675 3597 1894 
z
M 3022 2063 
Q 3016 2534 2758 2815 
Q 2500 3097 2075 3097 
Q 1594 3097 1305 2825 
Q 1016 2553 972 2059 
L 3022 2063 
z
" id="DejaVuSans-65" transform="scale(0.015625)"/>
       <path d="M 2906 2969 
L 2906 4863 
L 3481 4863 
L 3481 0 
L 2906 0 
L 2906 525 
Q 2725 213 2448 61 
Q 2172 -91 1784 -91 
Q 1150 -91 751 415 
Q 353 922 353 1747 
Q 353 2572 751 3078 
Q 1150 3584 1784 3584 
Q 2172 3584 2448 3432 
Q 2725 3281 2906 2969 
z
M 947 1747 
Q 947 1113 1208 752 
Q 1469 391 1925 391 
Q 2381 391 2643 752 
Q 2906 1113 2906 1747 
Q 2906 2381 2643 2742 
Q 2381 3103 1925 3103 
Q 1469 3103 1208 2742 
Q 947 2381 947 1747 
z
" id="DejaVuSans-64" transform="scale(0.015625)"/>
       <path id="DejaVuSans-20" transform="scale(0.015625)"/>
       <path d="M 1172 4494 
L 1172 3500 
L 2356 3500 
L 2356 3053 
L 1172 3053 
L 1172 1153 
Q 1172 725 1289 603 
Q 1406 481 1766 481 
L 2356 481 
L 2356 0 
L 1766 0 
Q 1100 0 847 248 
Q 594 497 594 1153 
L 594 3053 
L 172 3053 
L 172 3500 
L 594 3500 
L 594 4494 
L 1172 4494 
z
" id="DejaVuSans-74" transform="scale(0.015625)"/>
       <path d="M 2375 4863 
L 2375 4384 
L 1825 4384 
Q 1516 4384 1395 4259 
Q 1275 4134 1275 3809 
L 1275 3500 
L 2222 3500 
L 2222 3053 
L 1275 3053 
L 1275 0 
L 697 0 
L 697 3053 
L 147 3053 
L 147 3500 
L 697 3500 
L 697 3744 
Q 697 4328 969 4595 
Q 1241 4863 1831 4863 
L 2375 4863 
z
" id="DejaVuSans-66" transform="scale(0.015625)"/>
       <path d="M 3122 3366 
L 3122 2828 
Q 2878 2963 2633 3030 
Q 2388 3097 2138 3097 
Q 1578 3097 1268 2742 
Q 959 2388 959 1747 
Q 959 1106 1268 751 
Q 1578 397 2138 397 
Q 2388 397 2633 464 
Q 2878 531 3122 666 
L 3122 134 
Q 2881 22 2623 -34 
Q 2366 -91 2075 -91 
Q 1284 -91 818 406 
Q 353 903 353 1747 
Q 353 2603 823 3093 
Q 1294 3584 2113 3584 
Q 2378 3584 2631 3529 
Q 2884 3475 3122 3366 
z
" id="DejaVuSans-63" transform="scale(0.015625)"/>
       <path d="M 191 3500 
L 800 3500 
L 1894 563 
L 2988 3500 
L 3597 3500 
L 2284 0 
L 1503 0 
L 191 3500 
z
" id="DejaVuSans-76" transform="scale(0.015625)"/>
       <path d="M 544 1381 
L 544 3500 
L 1119 3500 
L 1119 1403 
Q 1119 906 1312 657 
Q 1506 409 1894 409 
Q 2359 409 2629 706 
Q 2900 1003 2900 1516 
L 2900 3500 
L 3475 3500 
L 3475 0 
L 2900 0 
L 2900 538 
Q 2691 219 2414 64 
Q 2138 -91 1772 -91 
Q 1169 -91 856 284 
Q 544 659 544 1381 
z
M 1991 3584 
L 1991 3584 
z
" id="DejaVuSans-75" transform="scale(0.015625)"/>
      </defs>
      <use xlink:href="#DejaVuSans-4e"/>
      <use x="74.804688" xlink:href="#DejaVuSans-6f"/>
      <use x="135.986328" xlink:href="#DejaVuSans-72"/>
      <use x="175.349609" xlink:href="#DejaVuSans-6d"/>
      <use x="272.761719" xlink:href="#DejaVuSans-61"/>
      <use x="334.041016" xlink:href="#DejaVuSans-6c"/>
      <use x="361.824219" xlink:href="#DejaVuSans-69"/>
      <use x="389.607422" xlink:href="#DejaVuSans-7a"/>
      <use x="442.097656" xlink:href="#DejaVuSans-65"/>
      <use x="503.621094" xlink:href="#DejaVuSans-64"/>
      <use x="567.097656" xlink:href="#DejaVuSans-20"/>
      <use x="598.884766" xlink:href="#DejaVuSans-74"/>
      <use x="638.09375" xlink:href="#DejaVuSans-72"/>
      <use x="679.207031" xlink:href="#DejaVuSans-61"/>
      <use x="740.486328" xlink:href="#DejaVuSans-66"/>
      <use x="775.691406" xlink:href="#DejaVuSans-66"/>
      <use x="810.896484" xlink:href="#DejaVuSans-69"/>
      <use x="838.679688" xlink:href="#DejaVuSans-63"/>
      <use x="893.660156" xlink:href="#DejaVuSans-20"/>
      <use x="925.447266" xlink:href="#DejaVuSans-76"/>
      <use x="984.626953" xlink:href="#DejaVuSans-6f"/>
      <use x="1045.808594" xlink:href="#DejaVuSans-6c"/>
      <use x="1073.591797" xlink:href="#DejaVuSans-75"/>
      <use x="1136.970703" xlink:href="#DejaVuSans-6d"/>
      <use x="1234.382812" xlink:href="#DejaVuSans-65"/>
     </g>
    </g>
   </g>
   <g id="matplotlib.axis_2">
    <g id="ytick_1">
     <g id="line2d_13">
      <path clip-path="url(#p2c97b48967)" d="M 57.6 295.488302 
L 414.72 295.488302 
" style="fill:none;stroke:#b0b0b0;stroke-linecap:square;stroke-width:0.8;"/>
     </g>
     <g id="line2d_14">
      <defs>
       <path d="M 0 0 
L -3.5 0 
" id="m01bef8b288" style="stroke:#000000;stroke-width:0.8;"/>
      </defs>
      <g>
       <use style="stroke:#000000;stroke-width:0.8;" x="57.6" xlink:href="#m01bef8b288" y="295.488302"/>
      </g>
     </g>
     <g id="text_8">
      <!-- 0.0 -->
      <g transform="translate(34.696875 299.287521)scale(0.1 -0.1)">
       <use xlink:href="#DejaVuSans-30"/>
       <use x="63.623047" xlink:href="#DejaVuSans-2e"/>
       <use x="95.410156" xlink:href="#DejaVuSans-30"/>
      </g>
     </g>
    </g>
    <g id="ytick_2">
     <g id="line2d_15">
      <path clip-path="url(#p2c97b48967)" d="M 57.6 247.104242 
L 414.72 247.104242 
" style="fill:none;stroke:#b0b0b0;stroke-linecap:square;stroke-width:0.8;"/>
     </g>
     <g id="line2d_16">
      <g>
       <use style="stroke:#000000;stroke-width:0.8;" x="57.6" xlink:href="#m01bef8b288" y="247.104242"/>
      </g>
     </g>
     <g id="text_9">
      <!-- 0.2 -->
      <g transform="translate(34.696875 250.903461)scale(0.1 -0.1)">
       <use xlink:href="#DejaVuSans-30"/>
       <use x="63.623047" xlink:href="#DejaVuSans-2e"/>
       <use x="95.410156" xlink:href="#DejaVuSans-32"/>
      </g>
     </g>
    </g>
    <g id="ytick_3">
     <g id="line2d_17">
      <path clip-path="url(#p2c97b48967)" d="M 57.6 198.720181 
L 414.72 198.720181 
" style="fill:none;stroke:#b0b0b0;stroke-linecap:square;stroke-width:0.8;"/>
     </g>
     <g id="line2d_18">
      <g>
       <use style="stroke:#000000;stroke-width:0.8;" x="57.6" xlink:href="#m01bef8b288" y="198.720181"/>
      </g>
     </g>
     <g id="text_10">
      <!-- 0.4 -->
      <g transform="translate(34.696875 202.5194)scale(0.1 -0.1)">
       <use xlink:href="#DejaVuSans-30"/>
       <use x="63.623047" xlink:href="#DejaVuSans-2e"/>
       <use x="95.410156" xlink:href="#DejaVuSans-34"/>
      </g>
     </g>
    </g>
    <g id="ytick_4">
     <g id="line2d_19">
      <path clip-path="url(#p2c97b48967)" d="M 57.6 150.336121 
L 414.72 150.336121 
" style="fill:none;stroke:#b0b0b0;stroke-linecap:square;stroke-width:0.8;"/>
     </g>
     <g id="line2d_20">
      <g>
       <use style="stroke:#000000;stroke-width:0.8;" x="57.6" xlink:href="#m01bef8b288" y="150.336121"/>
      </g>
     </g>
     <g id="text_11">
      <!-- 0.6 -->
      <g transform="translate(34.696875 154.13534)scale(0.1 -0.1)">
       <use xlink:href="#DejaVuSans-30"/>
       <use x="63.623047" xlink:href="#DejaVuSans-2e"/>
       <use x="95.410156" xlink:href="#DejaVuSans-36"/>
      </g>
     </g>
    </g>
    <g id="ytick_5">
     <g id="line2d_21">
      <path clip-path="url(#p2c97b48967)" d="M 57.6 101.95206 
L 414.72 101.95206 
" style="fill:none;stroke:#b0b0b0;stroke-linecap:square;stroke-width:0.8;"/>
     </g>
     <g id="line2d_22">
      <g>
       <use style="stroke:#000000;stroke-width:0.8;" x="57.6" xlink:href="#m01bef8b288" y="101.95206"/>
      </g>
     </g>
     <g id="text_12">
      <!-- 0.8 -->
      <g transform="translate(34.696875 105.751279)scale(0.1 -0.1)">
       <use xlink:href="#DejaVuSans-30"/>
       <use x="63.623047" xlink:href="#DejaVuSans-2e"/>
       <use x="95.410156" xlink:href="#DejaVuSans-38"/>
      </g>
     </g>
    </g>
    <g id="ytick_6">
     <g id="line2d_23">
      <path clip-path="url(#p2c97b48967)" d="M 57.6 53.568 
L 414.72 53.568 
" style="fill:none;stroke:#b0b0b0;stroke-linecap:square;stroke-width:0.8;"/>
     </g>
     <g id="line2d_24">
      <g>
       <use style="stroke:#000000;stroke-width:0.8;" x="57.6" xlink:href="#m01bef8b288" y="53.568"/>
      </g>
     </g>
     <g id="text_13">
      <!-- 1.0 -->
      <g transform="translate(34.696875 57.367219)scale(0.1 -0.1)">
       <use xlink:href="#DejaVuSans-31"/>
       <use x="63.623047" xlink:href="#DejaVuSans-2e"/>
       <use x="95.410156" xlink:href="#DejaVuSans-30"/>
      </g>
     </g>
    </g>
    <g id="text_14">
     <!-- Cumulative Probability -->
     <g transform="translate(28.617187 231.083469)rotate(-90)scale(0.1 -0.1)">
      <defs>
       <path d="M 4122 4306 
L 4122 3641 
Q 3803 3938 3442 4084 
Q 3081 4231 2675 4231 
Q 1875 4231 1450 3742 
Q 1025 3253 1025 2328 
Q 1025 1406 1450 917 
Q 1875 428 2675 428 
Q 3081 428 3442 575 
Q 3803 722 4122 1019 
L 4122 359 
Q 3791 134 3420 21 
Q 3050 -91 2638 -91 
Q 1578 -91 968 557 
Q 359 1206 359 2328 
Q 359 3453 968 4101 
Q 1578 4750 2638 4750 
Q 3056 4750 3426 4639 
Q 3797 4528 4122 4306 
z
" id="DejaVuSans-43" transform="scale(0.015625)"/>
       <path d="M 1259 4147 
L 1259 2394 
L 2053 2394 
Q 2494 2394 2734 2622 
Q 2975 2850 2975 3272 
Q 2975 3691 2734 3919 
Q 2494 4147 2053 4147 
L 1259 4147 
z
M 628 4666 
L 2053 4666 
Q 2838 4666 3239 4311 
Q 3641 3956 3641 3272 
Q 3641 2581 3239 2228 
Q 2838 1875 2053 1875 
L 1259 1875 
L 1259 0 
L 628 0 
L 628 4666 
z
" id="DejaVuSans-50" transform="scale(0.015625)"/>
       <path d="M 3116 1747 
Q 3116 2381 2855 2742 
Q 2594 3103 2138 3103 
Q 1681 3103 1420 2742 
Q 1159 2381 1159 1747 
Q 1159 1113 1420 752 
Q 1681 391 2138 391 
Q 2594 391 2855 752 
Q 3116 1113 3116 1747 
z
M 1159 2969 
Q 1341 3281 1617 3432 
Q 1894 3584 2278 3584 
Q 2916 3584 3314 3078 
Q 3713 2572 3713 1747 
Q 3713 922 3314 415 
Q 2916 -91 2278 -91 
Q 1894 -91 1617 61 
Q 1341 213 1159 525 
L 1159 0 
L 581 0 
L 581 4863 
L 1159 4863 
L 1159 2969 
z
" id="DejaVuSans-62" transform="scale(0.015625)"/>
       <path d="M 2059 -325 
Q 1816 -950 1584 -1140 
Q 1353 -1331 966 -1331 
L 506 -1331 
L 506 -850 
L 844 -850 
Q 1081 -850 1212 -737 
Q 1344 -625 1503 -206 
L 1606 56 
L 191 3500 
L 800 3500 
L 1894 763 
L 2988 3500 
L 3597 3500 
L 2059 -325 
z
" id="DejaVuSans-79" transform="scale(0.015625)"/>
      </defs>
      <use xlink:href="#DejaVuSans-43"/>
      <use x="69.824219" xlink:href="#DejaVuSans-75"/>
      <use x="133.203125" xlink:href="#DejaVuSans-6d"/>
      <use x="230.615234" xlink:href="#DejaVuSans-75"/>
      <use x="293.994141" xlink:href="#DejaVuSans-6c"/>
      <use x="321.777344" xlink:href="#DejaVuSans-61"/>
      <use x="383.056641" xlink:href="#DejaVuSans-74"/>
      <use x="422.265625" xlink:href="#DejaVuSans-69"/>
      <use x="450.048828" xlink:href="#DejaVuSans-76"/>
      <use x="509.228516" xlink:href="#DejaVuSans-65"/>
      <use x="570.751953" xlink:href="#DejaVuSans-20"/>
      <use x="602.539062" xlink:href="#DejaVuSans-50"/>
      <use x="661.091797" xlink:href="#DejaVuSans-72"/>
      <use x="699.955078" xlink:href="#DejaVuSans-6f"/>
      <use x="761.136719" xlink:href="#DejaVuSans-62"/>
      <use x="824.613281" xlink:href="#DejaVuSans-61"/>
      <use x="885.892578" xlink:href="#DejaVuSans-62"/>
      <use x="949.369141" xlink:href="#DejaVuSans-69"/>
      <use x="977.152344" xlink:href="#DejaVuSans-6c"/>
      <use x="1004.935547" xlink:href="#DejaVuSans-69"/>
      <use x="1032.71875" xlink:href="#DejaVuSans-74"/>
      <use x="1071.927734" xlink:href="#DejaVuSans-79"/>
     </g>
    </g>
   </g>
   <g id="line2d_25">
    <path clip-path="url(#p2c97b48967)" d="M 73.832727 53.568 
L 73.943832 102.582061 
L 74.729781 143.241472 
L 74.760891 144.272433 
L 74.862794 147.724838 
L 75.776552 175.448792 
L 75.848055 177.408795 
L 76.420621 190.931692 
L 76.54816 193.592815 
L 76.618608 195.007937 
L 76.925361 200.640984 
L 76.961454 201.234025 
L 77.568065 210.883957 
L 77.643346 211.997798 
L 77.767402 213.77244 
L 77.862244 215.131562 
L 78.55281 224.394534 
L 78.983212 229.1887 
L 80.759578 244.592079 
L 80.788969 244.830639 
L 80.913442 245.76864 
L 81.596636 250.323126 
L 81.653084 250.688806 
L 81.784267 251.441447 
L 82.1344 253.38465 
L 82.3404 254.502971 
L 82.39215 254.759451 
L 82.511979 255.337932 
L 82.584805 255.693533 
L 82.808704 256.770974 
L 82.972387 257.526415 
L 83.090745 258.069056 
L 83.148061 258.318256 
L 83.284492 258.949377 
L 83.69769 260.691539 
L 83.810512 261.150179 
L 83.861101 261.34786 
L 83.97265 261.7505 
L 86.190487 269.65323 
L 86.378015 270.250191 
L 86.555006 270.837632 
L 86.805882 271.630033 
L 86.851197 271.784593 
L 87.325582 273.212035 
L 87.441785 273.546915 
L 87.588721 273.942275 
L 87.691842 274.222836 
L 88.148547 275.411717 
L 88.282151 275.725318 
L 88.410871 276.060198 
L 88.475203 276.236038 
L 88.750062 276.904119 
L 88.845593 277.130359 
L 89.00202 277.49772 
L 89.072096 277.65844 
L 89.201614 277.95524 
L 89.413312 278.370201 
L 89.498427 278.553321 
L 89.611815 278.771722 
L 89.929256 279.384362 
L 90.045957 279.624043 
L 90.180662 279.877723 
L 90.346364 280.181803 
L 90.426721 280.319003 
L 90.692487 280.809564 
L 90.785098 280.976444 
L 90.905565 281.179725 
L 91.343495 281.911085 
L 91.437067 282.052766 
L 91.674053 282.415086 
L 91.845751 282.687806 
L 92.005611 282.937007 
L 92.396211 283.502607 
L 92.522313 283.686288 
L 92.716181 283.943888 
L 92.850057 284.104048 
L 94.66095 286.095411 
L 94.894901 286.345731 
L 95.470003 286.950532 
L 95.638588 287.117412 
L 95.796309 287.259092 
L 96.150198 287.570453 
L 96.310993 287.721093 
L 96.783476 288.073893 
L 97.285804 288.421654 
L 97.423635 288.509014 
L 98.252974 289.032614 
L 98.428232 289.148534 
L 99.145222 289.552855 
L 99.302421 289.638535 
L 100.002182 290.001976 
L 100.137602 290.070856 
L 100.512629 290.270216 
L 100.714055 290.378856 
L 101.753225 290.884537 
L 102.205872 291.106857 
L 102.839566 291.355497 
L 103.028949 291.427177 
L 104.337984 291.957498 
L 104.453105 292.006778 
L 105.410637 292.337738 
L 106.268791 292.609339 
L 106.783957 292.783499 
L 106.915175 292.831659 
L 107.352895 292.971659 
L 107.828546 293.105499 
L 108.396277 293.24718 
L 108.614747 293.31494 
L 109.4792 293.51318 
L 109.753593 293.58318 
L 110.542473 293.7327 
L 110.650934 293.75734 
L 112.362093 294.041261 
L 112.520335 294.061981 
L 113.79148 294.242861 
L 113.92899 294.261341 
L 117.122517 294.662301 
L 120.526693 294.907022 
L 123.185623 295.049822 
L 125.806493 295.152862 
L 168.318461 295.458062 
L 398.487273 295.487742 
L 398.487273 295.487742 
" style="fill:none;stroke:#1f77b4;stroke-linecap:square;stroke-width:1.5;"/>
   </g>
   <g id="line2d_26">
    <path clip-path="url(#p2c97b48967)" d="M 73.832727 53.568 
L 73.943837 148.996562 
L 74.294917 183.872073 
L 74.41563 190.587861 
L 74.526735 195.772153 
L 74.714357 202.967282 
L 75.511135 222.823741 
L 75.76977 227.292769 
L 75.894323 229.26062 
L 75.932896 229.844928 
L 75.987729 230.65666 
L 76.141523 232.723979 
L 76.601464 238.331132 
L 76.742442 239.859629 
L 76.861818 241.061733 
L 77.028246 242.665204 
L 77.091049 243.207526 
L 78.050425 250.422649 
L 78.184597 251.283865 
L 78.448737 252.848849 
L 78.574385 253.549119 
L 79.630326 258.799389 
L 79.730048 259.285729 
L 79.975625 260.302394 
L 80.200018 261.205097 
L 80.313975 261.633955 
L 80.631635 262.782577 
L 80.744153 263.159453 
L 80.782522 263.291909 
L 80.908522 263.723767 
L 81.097422 264.315072 
L 81.325106 264.983352 
L 81.385578 265.160294 
L 81.598826 265.767094 
L 82.383866 267.624482 
L 82.464179 267.799924 
L 83.057268 268.961541 
L 83.162264 269.145981 
L 84.440253 271.056851 
L 84.707252 271.388242 
L 84.977377 271.702138 
L 85.269622 272.035029 
L 85.399915 272.18298 
L 85.922186 272.719803 
L 86.06926 272.872753 
L 86.668379 273.449063 
L 86.894039 273.643999 
L 87.140183 273.871924 
L 87.347297 274.054863 
L 87.740211 274.39875 
L 87.906663 274.527208 
L 88.112603 274.687155 
L 88.84532 275.226477 
L 89.063811 275.354435 
L 89.252507 275.489891 
L 89.552371 275.668832 
L 89.66523 275.73381 
L 90.76898 276.356605 
L 91.082585 276.528548 
L 91.559472 276.813954 
L 91.670525 276.879933 
L 91.977341 277.035381 
L 92.29958 277.214323 
L 92.432063 277.279801 
L 92.800612 277.462241 
L 93.181676 277.661175 
L 93.319328 277.731152 
L 93.646997 277.882103 
L 93.783907 277.95108 
L 96.299934 279.026725 
L 96.661164 279.179175 
L 96.980264 279.303134 
L 97.762064 279.574045 
L 98.236416 279.752986 
L 99.023331 280.004403 
L 99.603155 280.183344 
L 100.231813 280.372782 
L 101.079248 280.615202 
L 102.838037 281.082548 
L 108.280559 282.543567 
L 108.768107 282.692518 
L 108.899727 282.731505 
L 109.680307 282.976924 
L 110.327401 283.163363 
L 110.770525 283.295819 
L 111.300525 283.44527 
L 111.565041 283.527243 
L 112.434427 283.789656 
L 112.823877 283.909117 
L 113.340117 284.060567 
L 121.040905 286.106393 
L 121.169513 286.141881 
L 121.531496 286.235851 
L 122.07559 286.3878 
L 123.777543 286.835153 
L 124.34575 286.983604 
L 125.071042 287.138053 
L 125.549701 287.265011 
L 127.806143 287.805333 
L 127.936982 287.833824 
L 128.964797 288.062749 
L 129.631065 288.214699 
L 129.743607 288.238691 
L 131.966636 288.716033 
L 132.102361 288.745524 
L 132.957273 288.912469 
L 133.272512 288.96945 
L 134.863074 289.254356 
L 135.625852 289.39531 
L 136.705633 289.579749 
L 137.812995 289.766187 
L 139.243407 289.989614 
L 139.596905 290.046095 
L 149.320808 291.174224 
L 166.576077 292.340339 
L 170.157266 292.526778 
L 175.44772 292.7627 
L 179.302039 292.923647 
L 179.688971 292.940142 
L 183.915264 293.122082 
L 190.667044 293.417984 
L 191.723658 293.457471 
L 196.801876 293.602924 
L 268.035703 295.157411 
L 274.380047 295.304363 
L 286.82868 295.451315 
L 398.487273 295.487803 
L 398.487273 295.487803 
" style="fill:none;stroke:#ff7f0e;stroke-linecap:square;stroke-width:1.5;"/>
   </g>
   <g id="line2d_27">
    <path clip-path="url(#p2c97b48967)" d="M 73.832727 53.568 
L 73.832727 60.08745 
L 81.524905 60.198733 
L 81.992128 60.295804 
L 82.63478 60.48813 
L 85.166924 61.800245 
L 85.354264 61.91667 
L 85.764512 62.189435 
L 85.96344 62.326725 
L 86.398796 62.653922 
L 86.606736 62.810565 
L 86.80502 62.960858 
L 87.031469 63.150161 
L 87.790324 63.756474 
L 87.901376 63.848101 
L 92.546564 68.36445 
L 92.856704 68.710699 
L 93.391363 69.365396 
L 93.7588 69.819299 
L 94.323877 70.502421 
L 94.434607 70.643642 
L 94.581871 70.835364 
L 94.950918 71.292291 
L 95.379192 71.846893 
L 95.490244 71.990836 
L 95.906769 72.536971 
L 96.29207 73.051354 
L 96.723885 73.626519 
L 96.853285 73.809774 
L 96.964015 73.957648 
L 97.100174 74.144229 
L 97.55259 74.758404 
L 97.677161 74.923817 
L 97.788052 75.077739 
L 98.141165 75.561882 
L 98.762251 76.492368 
L 99.069977 76.933872 
L 99.772179 78.017071 
L 99.916707 78.238428 
L 100.027759 78.416239 
L 100.655605 79.360031 
L 100.751689 79.500647 
L 100.862741 79.667269 
L 101.142141 80.082163 
L 101.253032 80.242737 
L 101.362474 80.402405 
L 101.473526 80.567213 
L 102.139194 81.581464 
L 102.405557 81.983959 
L 102.516448 82.17054 
L 102.772672 82.56366 
L 103.54392 83.777495 
L 103.626806 83.914785 
L 104.544674 85.402897 
L 104.641724 85.558029 
L 104.752776 85.72949 
L 105.886632 87.623423 
L 106.125152 87.999912 
L 107.205574 89.795263 
L 107.278804 89.918945 
L 107.389856 90.105223 
L 108.571512 92.089877 
L 108.658583 92.241077 
L 109.861484 94.265345 
L 109.950004 94.41715 
L 111.024149 96.198893 
L 111.244483 96.558145 
L 111.355535 96.73142 
L 112.591108 98.816471 
L 112.684938 98.983094 
L 112.795829 99.177235 
L 112.993148 99.515016 
L 113.103234 99.706133 
L 113.183384 99.836165 
L 113.294275 100.020327 
L 113.524104 100.388651 
L 114.830654 102.607362 
L 114.95088 102.813599 
L 115.061932 102.993527 
L 116.324543 105.129381 
L 116.41934 105.283605 
L 116.530231 105.46807 
L 116.740103 105.817645 
L 117.939624 107.835865 
L 118.029431 107.971038 
L 118.140483 108.153083 
L 119.312 110.11808 
L 119.43464 110.325829 
L 119.545209 110.515737 
L 119.636948 110.668751 
L 119.831852 111.004113 
L 119.942904 111.194928 
L 121.338778 113.581169 
L 121.425688 113.73237 
L 121.53674 113.922882 
L 122.569683 115.627513 
L 122.698439 115.839193 
L 123.617755 117.330027 
L 123.74796 117.542614 
L 123.859012 117.717099 
L 123.984388 117.926663 
L 124.095118 118.115965 
L 124.231116 118.332182 
L 124.342007 118.526625 
L 124.527254 118.852915 
L 124.638306 119.051592 
L 124.846086 119.39905 
L 124.957138 119.593191 
L 126.244857 121.776522 
L 126.377797 121.990622 
L 126.488527 122.163292 
L 126.590566 122.333846 
L 127.865571 124.493287 
L 127.987728 124.700734 
L 128.09878 124.899411 
L 128.292235 125.233563 
L 129.299106 126.888903 
L 129.503666 127.233337 
L 129.614235 127.417499 
L 129.698571 127.567792 
L 129.907316 127.916157 
L 130.018368 128.103948 
L 131.247503 130.177507 
L 131.341334 130.331429 
L 131.452386 130.509543 
L 132.554374 132.344508 
L 132.633559 132.485729 
L 133.765967 134.377243 
L 133.900677 134.592552 
L 134.011246 134.760989 
L 134.109262 134.929729 
L 135.021819 136.408467 
L 135.124984 136.579625 
L 136.415761 138.768702 
L 136.537114 138.975544 
L 136.647361 139.156077 
L 136.735237 139.300019 
L 137.892912 141.239918 
L 137.983363 141.384465 
L 139.535515 144.064337 
L 139.645118 144.263921 
L 139.75617 144.451107 
L 140.988202 146.530715 
L 141.064168 146.65984 
L 141.17522 146.837651 
L 141.305102 147.049936 
L 141.416154 147.229864 
L 142.370074 148.786924 
L 142.450868 148.917258 
L 142.561276 149.100815 
L 142.653015 149.25383 
L 143.354412 150.335214 
L 143.626248 150.742849 
L 143.7373 150.92308 
L 144.521905 152.160805 
L 144.74755 152.525197 
L 145.467617 153.641962 
L 145.602328 153.857271 
L 146.466762 155.245289 
L 146.584091 155.4231 
L 147.254104 156.445818 
L 147.392677 156.663546 
L 148.247777 158.033723 
L 148.339676 158.173432 
L 149.015805 159.207943 
L 149.099335 159.336463 
L 149.210226 159.510948 
L 149.319347 159.670616 
L 149.908244 160.540924 
L 150.080616 160.77982 
L 150.747571 161.79649 
L 150.891938 162.017848 
L 151.506586 162.936238 
L 151.660449 163.163643 
L 152.296825 164.123159 
L 152.447952 164.34875 
L 153.138405 165.410175 
L 153.246399 165.569238 
L 153.357451 165.725276 
L 153.673225 166.174341 
L 153.784116 166.333403 
L 154.121134 166.802426 
L 154.635513 167.532421 
L 154.759602 167.713256 
L 154.870493 167.865364 
L 155.16985 168.299006 
L 155.280902 168.46956 
L 155.604401 168.925882 
L 155.715453 169.081316 
L 155.838254 169.261546 
L 155.949306 169.428471 
L 156.134231 169.67523 
L 156.615456 170.343232 
L 156.790081 170.583641 
L 157.293999 171.294584 
L 157.422433 171.461509 
L 157.904141 172.130116 
L 158.297972 172.652362 
L 158.408863 172.804771 
L 158.841161 173.363305 
L 158.952213 173.5139 
L 159.410906 174.139567 
L 159.606292 174.392978 
L 159.717183 174.527849 
L 159.936068 174.795776 
L 160.046798 174.941533 
L 160.174588 175.108155 
L 160.581296 175.637658 
L 160.678667 175.771319 
L 161.10163 176.321083 
L 161.212521 176.465026 
L 161.745892 177.118513 
L 162.133125 177.609611 
L 162.254478 177.763835 
L 162.36553 177.899915 
L 162.723793 178.336582 
L 163.25314 178.986138 
L 163.364192 179.125847 
L 163.860224 179.744255 
L 163.971275 179.870659 
L 164.345311 180.374458 
L 164.711299 180.825941 
L 164.883349 181.029457 
L 164.994401 181.171283 
L 165.374875 181.650587 
L 165.491721 181.792111 
L 165.879919 182.28593 
L 166.027989 182.460113 
L 166.467046 183.024997 
L 166.578098 183.16894 
L 167.064795 183.778579 
L 167.175847 183.927057 
L 167.305407 184.094285 
L 167.834755 184.743841 
L 167.945645 184.88234 
L 168.396613 185.458413 
L 168.507665 185.590259 
L 168.864962 186.026321 
L 168.987602 186.174195 
L 169.182989 186.427606 
L 169.29388 186.570944 
L 169.797315 187.196308 
L 170.180524 187.679846 
L 170.390879 187.942632 
L 170.767007 188.413167 
L 170.92248 188.60882 
L 171.281065 189.046091 
L 171.50687 189.318554 
L 172.116207 190.043407 
L 172.226615 190.17344 
L 172.369051 190.334317 
L 172.710254 190.739231 
L 172.854783 190.912204 
L 172.996897 191.101506 
L 173.356448 191.542104 
L 173.483433 191.686046 
L 173.594002 191.823336 
L 173.727264 191.973931 
L 173.837511 192.106383 
L 173.953553 192.247604 
L 174.592825 193.000581 
L 174.93435 193.406402 
L 175.040413 193.539156 
L 175.151465 193.682494 
L 175.275231 193.83067 
L 175.449373 194.035092 
L 175.560264 194.163915 
L 175.703344 194.336283 
L 176.017508 194.690092 
L 176.64133 195.428553 
L 176.978992 195.826512 
L 177.709199 196.664766 
L 177.819768 196.790867 
L 177.967998 196.953558 
L 178.299383 197.339724 
L 179.151908 198.29289 
L 179.262638 198.406592 
L 179.502284 198.687522 
L 179.613336 198.809692 
L 179.901105 199.115419 
L 180.023745 199.258152 
L 180.80127 200.140858 
L 180.911839 200.261214 
L 181.060713 200.424208 
L 182.176221 201.624435 
L 182.28679 201.742068 
L 182.440492 201.906574 
L 182.551383 202.022696 
L 183.641623 203.199336 
L 183.930197 203.505365 
L 184.12333 203.718557 
L 184.2339 203.834074 
L 184.404501 204.016724 
L 184.515392 204.129217 
L 184.714481 204.345433 
L 184.990179 204.62727 
L 185.292594 204.947512 
L 185.403646 205.066356 
L 185.676286 205.343052 
L 185.823229 205.491531 
L 186.131116 205.83415 
L 186.348231 206.058834 
L 186.638092 206.36698 
L 186.797267 206.545396 
L 187.095658 206.863219 
L 187.36685 207.136286 
L 189.034882 208.855735 
L 189.145934 208.968228 
L 189.412136 209.231921 
L 189.743361 209.570307 
L 189.854413 209.684312 
L 190.138641 209.982781 
L 190.281399 210.136098 
L 190.392451 210.253429 
L 190.601357 210.450595 
L 193.317461 213.154659 
L 193.587687 213.426517 
L 193.788707 213.620658 
L 208.469928 227.261334 
L 208.661935 227.420397 
L 208.772665 227.521398 
L 209.320682 227.995562 
L 209.553569 228.196961 
L 209.825083 228.447046 
L 209.936135 228.556515 
L 210.222134 228.813555 
L 212.658998 230.950619 
L 212.966403 231.217638 
L 213.190921 231.403614 
L 213.519248 231.680311 
L 213.6303 231.774357 
L 213.851599 231.953681 
L 215.428214 233.283033 
L 215.637764 233.446329 
L 215.748816 233.538863 
L 215.966252 233.723328 
L 216.077143 233.81556 
L 216.279612 233.984904 
L 216.504612 234.171787 
L 216.757779 234.385584 
L 218.023931 235.42312 
L 218.257945 235.612725 
L 219.364923 236.500573 
L 219.594591 236.677174 
L 219.70516 236.764871 
L 220.019163 237.034914 
L 220.238531 237.211214 
L 220.619487 237.512707 
L 220.83966 237.690518 
L 221.078019 237.869539 
L 221.37802 238.100875 
L 222.714988 239.204637 
L 222.954796 239.396056 
L 223.166277 239.556933 
L 223.879424 240.134518 
L 224.10877 240.328961 
L 224.430498 240.602634 
L 224.541228 240.686096 
L 224.826905 240.911989 
L 224.936992 240.997569 
L 225.116767 241.148466 
L 225.227819 241.24342 
L 225.441714 241.409438 
L 225.618271 241.545216 
L 225.729001 241.635936 
L 225.945954 241.820098 
L 226.056362 241.908096 
L 226.295526 242.099213 
L 226.504594 242.258276 
L 226.689197 242.391634 
L 227.461249 242.965288 
L 227.695907 243.127677 
L 228.023268 243.369295 
L 228.133998 243.460317 
L 229.379067 244.371147 
L 229.595377 244.543213 
L 229.793661 244.693506 
L 229.903103 244.782714 
L 230.084649 244.921214 
L 230.922366 245.556557 
L 231.12065 245.70685 
L 231.329718 245.864098 
L 231.629558 246.074266 
L 231.844258 246.242401 
L 232.046888 246.398137 
L 232.264807 246.571412 
L 232.573982 246.806075 
L 232.684873 246.885909 
L 232.915345 247.047391 
L 233.97066 247.839377 
L 234.772487 248.440549 
L 235.006018 248.609289 
L 235.11707 248.693054 
L 235.331126 248.846068 
L 235.442178 248.931043 
L 235.635312 249.080126 
L 235.746364 249.156331 
L 235.958811 249.309043 
L 236.068253 249.389482 
L 236.245293 249.517699 
L 236.452911 249.669504 
L 236.563963 249.756596 
L 236.766754 249.907493 
L 236.877806 249.996702 
L 237.114394 250.15395 
L 237.225446 250.233481 
L 237.423408 250.383472 
L 237.53446 250.468446 
L 237.76944 250.625392 
L 237.880491 250.713693 
L 238.08972 250.8658 
L 238.200772 250.952287 
L 238.411609 251.104697 
L 238.522661 251.181204 
L 238.738327 251.334521 
L 238.849379 251.404073 
L 239.058607 251.55618 
L 239.169659 251.637828 
L 239.412686 251.796286 
L 239.523738 251.872189 
L 239.744232 252.026413 
L 239.855284 252.106247 
L 240.058074 252.257144 
L 240.169126 252.340607 
L 240.383183 252.493621 
L 240.494234 252.570129 
L 240.71151 252.723748 
L 240.822562 252.813561 
L 241.022133 252.963854 
L 241.133185 253.029777 
L 241.350461 253.183397 
L 241.461513 253.255368 
L 241.678788 253.408987 
L 241.78984 253.488519 
L 242.000677 253.640928 
L 242.111729 253.727415 
L 242.335443 253.882244 
L 242.444885 253.958449 
L 242.631581 254.087574 
L 242.741023 254.168617 
L 242.947033 254.299557 
L 243.164308 254.453176 
L 243.27536 254.525752 
L 243.492635 254.679371 
L 243.603687 254.752855 
L 243.846714 254.911312 
L 243.957766 254.983586 
L 244.171822 255.136601 
L 244.282874 255.211596 
L 244.517854 255.368542 
L 244.628905 255.440816 
L 244.860666 255.597157 
L 244.971718 255.675176 
L 245.201869 255.831214 
L 245.312921 255.909839 
L 245.559166 256.068901 
L 245.670218 256.152061 
L 245.910026 256.309914 
L 246.021078 256.383398 
L 246.249619 256.539134 
L 246.360671 256.615339 
L 246.576337 256.768656 
L 246.687389 256.843348 
L 246.967433 257.008762 
L 247.078485 257.094038 
L 247.32473 257.253101 
L 247.435782 257.326282 
L 247.682028 257.485344 
L 247.79147 257.563969 
L 247.981385 257.693396 
L 248.092437 257.765972 
L 248.338682 257.925035 
L 248.449734 257.992772 
L 248.654134 258.123409 
L 248.765186 258.201126 
L 248.996946 258.357467 
L 249.107998 258.423995 
L 249.354244 258.583058 
L 249.465296 258.653517 
L 249.730855 258.816209 
L 249.841906 258.882737 
L 250.109075 259.04573 
L 250.220127 259.114678 
L 250.469591 259.274345 
L 250.580643 259.343292 
L 250.802747 259.497819 
L 250.913799 259.577653 
L 251.145559 259.711011 
L 251.256611 259.78268 
L 251.501247 259.94144 
L 251.612299 260.011295 
L 251.844059 260.167636 
L 251.955111 260.234769 
L 252.233546 260.399879 
L 252.342988 260.468827 
L 252.6005 260.604604 
L 252.711552 260.671132 
L 252.965844 260.831707 
L 253.076896 260.904283 
L 253.369816 261.072115 
L 253.480868 261.142272 
L 253.686877 261.273212 
L 253.797929 261.33853 
L 254.08602 261.505455 
L 254.197072 261.577729 
L 254.489991 261.745561 
L 254.601043 261.803017 
L 254.876259 261.967523 
L 254.987311 262.033144 
L 255.296325 262.204 
L 255.407376 262.274762 
L 255.684201 262.43957 
L 255.795253 262.504888 
L 256.035061 262.638852 
L 256.146113 262.709009 
L 256.424547 262.874119 
L 256.535599 262.946695 
L 256.860708 263.120576 
L 256.97176 263.182265 
L 257.26307 263.349795 
L 257.372512 263.413602 
L 257.638071 263.549984 
L 257.749123 263.615605 
L 258.056527 263.786159 
L 258.167579 263.846941 
L 258.483031 264.019007 
L 258.594083 264.07979 
L 258.841938 264.21466 
L 259.130029 264.381585 
L 259.241081 264.439041 
L 259.574236 264.614433 
L 259.685288 264.683381 
L 259.958894 264.82067 
L 260.069946 264.873893 
L 260.414368 265.051402 
L 260.52542 265.113999 
L 260.853747 265.288484 
L 260.964799 265.352593 
L 261.318878 265.531916 
L 261.42993 265.586348 
L 261.80815 265.770208 
L 261.919202 265.825245 
L 262.237872 265.997915 
L 262.348924 266.053557 
L 262.741629 266.240138 
L 262.852681 266.302432 
L 263.172961 266.475405 
L 263.284013 266.52893 
L 263.626826 266.706137 
L 263.737877 266.762081 
L 264.032406 266.930216 
L 264.143458 266.982531 
L 264.513631 267.164878 
L 264.624683 267.220217 
L 265.015779 267.406496 
L 265.126831 267.463952 
L 265.487347 267.644485 
L 265.598399 267.694684 
L 265.870396 267.831671 
L 265.981448 267.896687 
L 266.374153 268.083268 
L 266.485205 268.134071 
L 266.853768 268.316116 
L 266.96482 268.370549 
L 267.252911 268.509048 
L 267.363963 268.568923 
L 267.796904 268.763064 
L 267.907956 268.818403 
L 268.179953 268.955391 
L 268.291005 269.011335 
L 268.678882 269.197009 
L 268.789934 269.255674 
L 269.172982 269.440441 
L 269.284034 269.483684 
L 269.556031 269.620672 
L 269.667083 269.67208 
L 270.100024 269.866221 
L 270.211076 269.914605 
L 270.616657 270.103605 
L 270.727709 270.147756 
L 271.120414 270.334337 
L 271.231466 270.39149 
L 271.574278 270.568697 
L 271.68533 270.629479 
L 272.024923 270.806081 
L 272.135975 270.858396 
L 272.494882 271.038627 
L 272.604325 271.092454 
L 272.906901 271.232466 
L 273.017953 271.28841 
L 273.380078 271.469245 
L 273.49113 271.517024 
L 273.858084 271.698767 
L 273.969136 271.755316 
L 274.435876 271.955807 
L 274.546928 272.010239 
L 274.981479 272.204683 
L 275.092531 272.246717 
L 275.382231 272.385518 
L 275.493283 272.437531 
L 275.926225 272.631672 
L 276.037276 272.684895 
L 276.452514 272.875709 
L 276.563566 272.928327 
L 277.072151 273.136681 
L 277.183203 273.180529 
L 277.666037 273.384044 
L 277.777089 273.4288 
L 278.290503 273.638061 
L 278.401555 273.686142 
L 278.762071 273.831597 
L 278.873123 273.882703 
L 279.397803 274.09408 
L 279.508855 274.143069 
L 279.962719 274.341142 
L 280.073771 274.386502 
L 280.625812 274.60302 
L 280.736864 274.646868 
L 281.247058 274.855525 
L 281.356501 274.897558 
L 281.689657 275.029707 
L 282.249744 275.247738 
L 282.360796 275.292191 
L 282.895133 275.505383 
L 283.006185 275.548324 
L 283.350607 275.692266 
L 283.461658 275.74307 
L 284.110266 275.977732 
L 284.221318 276.027931 
L 284.770139 276.243845 
L 284.881191 276.291624 
L 285.478296 276.51661 
L 285.587739 276.5532 
L 285.975616 276.701074 
L 286.086668 276.749761 
L 286.706305 276.97898 
L 286.817357 277.023735 
L 287.438604 277.253257 
L 287.548046 277.304363 
L 287.94558 277.453144 
L 288.056632 277.495782 
L 288.766398 277.741936 
L 288.87745 277.78276 
L 289.476164 278.008049 
L 289.587216 278.050082 
L 290.219729 278.281721 
L 290.330781 278.319219 
L 291.043766 278.565977 
L 291.154818 278.605592 
L 291.785722 278.836928 
L 291.896774 278.878054 
L 292.630682 279.128744 
L 292.741734 279.172895 
L 293.520706 279.432052 
L 293.630149 279.478017 
L 294.132296 279.636777 
L 294.867814 279.887769 
L 294.977256 279.922848 
L 295.439168 280.077677 
L 295.55022 280.12092 
L 295.930049 280.255791 
L 296.041101 280.291776 
L 296.80237 280.547607 
L 296.911812 280.588733 
L 297.426836 280.748703 
L 298.215465 281.009675 
L 298.326517 281.047172 
L 299.234245 281.330522 
L 299.343688 281.370438 
L 299.889291 281.53313 
L 300.000343 281.565184 
L 300.483177 281.72213 
L 301.452064 282.01697 
L 301.559897 282.044791 
L 301.981573 282.175731 
L 303.034151 282.486296 
L 303.145203 282.520769 
L 303.703682 282.68467 
L 303.813124 282.715213 
L 304.368383 282.861272 
L 304.479435 282.893931 
L 305.569031 283.211452 
L 305.680083 283.241994 
L 306.687598 283.544092 
L 306.798649 283.58038 
L 307.830305 283.887014 
L 307.941357 283.92179 
L 309.240182 284.278623 
L 309.351233 284.305536 
L 309.91615 284.470042 
L 310.027201 284.49242 
L 311.374309 284.858324 
L 311.485361 284.88675 
L 313.14792 285.311925 
L 313.258972 285.341258 
L 313.870562 285.5103 
L 315.573358 285.943034 
L 315.68441 285.97146 
L 317.6077 286.445624 
L 317.718752 286.477074 
L 318.504162 286.662445 
L 318.615214 286.690266 
L 320.744513 287.203137 
L 320.855565 287.230958 
L 321.573379 287.409979 
L 321.682821 287.436288 
L 322.262222 287.583859 
L 322.373274 287.61168 
L 325.197855 288.255188 
L 325.308907 288.282101 
L 329.61257 289.203515 
L 329.723622 289.224986 
L 330.898519 289.446948 
L 331.00957 289.468418 
L 331.899595 289.635343 
L 332.009037 289.65893 
L 333.13887 289.876659 
L 339.546081 290.968626 
L 340.405526 291.10259 
L 343.312188 291.535929 
L 344.548244 291.704971 
L 344.654468 291.719184 
L 345.92915 291.89004 
L 346.040202 291.909394 
L 348.241926 292.210585 
L 349.384634 292.375393 
L 351.515543 292.687168 
L 353.665765 292.978984 
L 354.756971 293.119298 
L 356.575646 293.34882 
L 358.006445 293.513628 
L 358.112669 293.525422 
L 359.776838 293.714724 
L 359.884671 293.725308 
L 361.919013 293.931848 
L 362.030065 293.940617 
L 363.270949 294.060973 
L 369.634705 294.57082 
L 370.553699 294.632812 
L 372.816583 294.786431 
L 373.740406 294.847516 
L 388.47168 295.429637 
L 398.487273 295.488 
L 398.487273 295.488 
" style="fill:none;stroke:#2ca02c;stroke-linecap:square;stroke-width:1.5;"/>
   </g>
   <g id="line2d_28">
    <path clip-path="url(#p2c97b48967)" d="M 73.832727 53.568 
L 73.943837 261.000883 
L 74.371254 277.60636 
L 74.892153 283.328783 
L 74.964987 283.8348 
L 75.088378 284.547457 
L 75.273629 285.458354 
L 75.427369 286.070211 
L 75.611303 286.653507 
L 76.206737 288.038501 
L 76.310919 288.224645 
L 76.440254 288.444054 
L 76.523128 288.58215 
L 76.635202 288.744438 
L 76.809916 288.978966 
L 77.237984 289.499767 
L 77.685844 289.939255 
L 77.871098 290.107928 
L 79.111246 291.007737 
L 79.645927 291.317193 
L 79.794751 291.405225 
L 80.168897 291.593386 
L 81.076078 292.044634 
L 81.422762 292.190458 
L 81.542767 292.240522 
L 83.446693 292.905803 
L 83.693534 292.973339 
L 90.449137 294.288781 
L 92.676266 294.572701 
L 92.846763 294.591181 
L 93.263523 294.637885 
L 99.003196 294.975902 
L 106.664131 295.23563 
L 144.202761 295.473854 
L 398.487273 295.487966 
L 398.487273 295.487966 
" style="fill:none;stroke:#d62728;stroke-linecap:square;stroke-width:1.5;"/>
   </g>
   <g id="patch_3">
    <path d="M 57.6 307.584 
L 57.6 41.472 
" style="fill:none;stroke:#000000;stroke-linecap:square;stroke-linejoin:miter;stroke-width:0.8;"/>
   </g>
   <g id="patch_4">
    <path d="M 414.72 307.584 
L 414.72 41.472 
" style="fill:none;stroke:#000000;stroke-linecap:square;stroke-linejoin:miter;stroke-width:0.8;"/>
   </g>
   <g id="patch_5">
    <path d="M 57.6 307.584 
L 414.72 307.584 
" style="fill:none;stroke:#000000;stroke-linecap:square;stroke-linejoin:miter;stroke-width:0.8;"/>
   </g>
   <g id="patch_6">
    <path d="M 57.6 41.472 
L 414.72 41.472 
" style="fill:none;stroke:#000000;stroke-linecap:square;stroke-linejoin:miter;stroke-width:0.8;"/>
   </g>
   <g id="text_15">
    <!-- Flow distribution -->
    <g transform="translate(186.365625 35.472)scale(0.12 -0.12)">
     <defs>
      <path d="M 628 4666 
L 3309 4666 
L 3309 4134 
L 1259 4134 
L 1259 2759 
L 3109 2759 
L 3109 2228 
L 1259 2228 
L 1259 0 
L 628 0 
L 628 4666 
z
" id="DejaVuSans-46" transform="scale(0.015625)"/>
      <path d="M 269 3500 
L 844 3500 
L 1563 769 
L 2278 3500 
L 2956 3500 
L 3675 769 
L 4391 3500 
L 4966 3500 
L 4050 0 
L 3372 0 
L 2619 2869 
L 1863 0 
L 1184 0 
L 269 3500 
z
" id="DejaVuSans-77" transform="scale(0.015625)"/>
      <path d="M 2834 3397 
L 2834 2853 
Q 2591 2978 2328 3040 
Q 2066 3103 1784 3103 
Q 1356 3103 1142 2972 
Q 928 2841 928 2578 
Q 928 2378 1081 2264 
Q 1234 2150 1697 2047 
L 1894 2003 
Q 2506 1872 2764 1633 
Q 3022 1394 3022 966 
Q 3022 478 2636 193 
Q 2250 -91 1575 -91 
Q 1294 -91 989 -36 
Q 684 19 347 128 
L 347 722 
Q 666 556 975 473 
Q 1284 391 1588 391 
Q 1994 391 2212 530 
Q 2431 669 2431 922 
Q 2431 1156 2273 1281 
Q 2116 1406 1581 1522 
L 1381 1569 
Q 847 1681 609 1914 
Q 372 2147 372 2553 
Q 372 3047 722 3315 
Q 1072 3584 1716 3584 
Q 2034 3584 2315 3537 
Q 2597 3491 2834 3397 
z
" id="DejaVuSans-73" transform="scale(0.015625)"/>
      <path d="M 3513 2113 
L 3513 0 
L 2938 0 
L 2938 2094 
Q 2938 2591 2744 2837 
Q 2550 3084 2163 3084 
Q 1697 3084 1428 2787 
Q 1159 2491 1159 1978 
L 1159 0 
L 581 0 
L 581 3500 
L 1159 3500 
L 1159 2956 
Q 1366 3272 1645 3428 
Q 1925 3584 2291 3584 
Q 2894 3584 3203 3211 
Q 3513 2838 3513 2113 
z
" id="DejaVuSans-6e" transform="scale(0.015625)"/>
     </defs>
     <use xlink:href="#DejaVuSans-46"/>
     <use x="57.519531" xlink:href="#DejaVuSans-6c"/>
     <use x="85.302734" xlink:href="#DejaVuSans-6f"/>
     <use x="146.484375" xlink:href="#DejaVuSans-77"/>
     <use x="228.271484" xlink:href="#DejaVuSans-20"/>
     <use x="260.058594" xlink:href="#DejaVuSans-64"/>
     <use x="323.535156" xlink:href="#DejaVuSans-69"/>
     <use x="351.318359" xlink:href="#DejaVuSans-73"/>
     <use x="403.417969" xlink:href="#DejaVuSans-74"/>
     <use x="442.626953" xlink:href="#DejaVuSans-72"/>
     <use x="483.740234" xlink:href="#DejaVuSans-69"/>
     <use x="511.523438" xlink:href="#DejaVuSans-62"/>
     <use x="575" xlink:href="#DejaVuSans-75"/>
     <use x="638.378906" xlink:href="#DejaVuSans-74"/>
     <use x="677.587891" xlink:href="#DejaVuSans-69"/>
     <use x="705.371094" xlink:href="#DejaVuSans-6f"/>
     <use x="766.552734" xlink:href="#DejaVuSans-6e"/>
    </g>
   </g>
   <g id="legend_1">
    <g id="patch_7">
     <path d="M 328.890313 108.1845 
L 407.72 108.1845 
Q 409.72 108.1845 409.72 106.1845 
L 409.72 48.472 
Q 409.72 46.472 407.72 46.472 
L 328.890313 46.472 
Q 326.890313 46.472 326.890313 48.472 
L 326.890313 106.1845 
Q 326.890313 108.1845 328.890313 108.1845 
z
" style="fill:#ffffff;opacity:0.8;stroke:#cccccc;stroke-linejoin:miter;"/>
    </g>
    <g id="line2d_29">
     <path d="M 330.890313 54.570438 
L 350.890313 54.570438 
" style="fill:none;stroke:#1f77b4;stroke-linecap:square;stroke-width:1.5;"/>
    </g>
    <g id="line2d_30"/>
    <g id="text_16">
     <!-- Abilene -->
     <g transform="translate(358.890313 58.070438)scale(0.1 -0.1)">
      <defs>
       <path d="M 2188 4044 
L 1331 1722 
L 3047 1722 
L 2188 4044 
z
M 1831 4666 
L 2547 4666 
L 4325 0 
L 3669 0 
L 3244 1197 
L 1141 1197 
L 716 0 
L 50 0 
L 1831 4666 
z
" id="DejaVuSans-41" transform="scale(0.015625)"/>
      </defs>
      <use xlink:href="#DejaVuSans-41"/>
      <use x="68.408203" xlink:href="#DejaVuSans-62"/>
      <use x="131.884766" xlink:href="#DejaVuSans-69"/>
      <use x="159.667969" xlink:href="#DejaVuSans-6c"/>
      <use x="187.451172" xlink:href="#DejaVuSans-65"/>
      <use x="248.974609" xlink:href="#DejaVuSans-6e"/>
      <use x="312.353516" xlink:href="#DejaVuSans-65"/>
     </g>
    </g>
    <g id="line2d_31">
     <path d="M 330.890313 69.248563 
L 350.890313 69.248563 
" style="fill:none;stroke:#ff7f0e;stroke-linecap:square;stroke-width:1.5;"/>
    </g>
    <g id="line2d_32"/>
    <g id="text_17">
     <!-- Geant -->
     <g transform="translate(358.890313 72.748563)scale(0.1 -0.1)">
      <defs>
       <path d="M 3809 666 
L 3809 1919 
L 2778 1919 
L 2778 2438 
L 4434 2438 
L 4434 434 
Q 4069 175 3628 42 
Q 3188 -91 2688 -91 
Q 1594 -91 976 548 
Q 359 1188 359 2328 
Q 359 3472 976 4111 
Q 1594 4750 2688 4750 
Q 3144 4750 3555 4637 
Q 3966 4525 4313 4306 
L 4313 3634 
Q 3963 3931 3569 4081 
Q 3175 4231 2741 4231 
Q 1884 4231 1454 3753 
Q 1025 3275 1025 2328 
Q 1025 1384 1454 906 
Q 1884 428 2741 428 
Q 3075 428 3337 486 
Q 3600 544 3809 666 
z
" id="DejaVuSans-47" transform="scale(0.015625)"/>
      </defs>
      <use xlink:href="#DejaVuSans-47"/>
      <use x="77.490234" xlink:href="#DejaVuSans-65"/>
      <use x="139.013672" xlink:href="#DejaVuSans-61"/>
      <use x="200.292969" xlink:href="#DejaVuSans-6e"/>
      <use x="263.671875" xlink:href="#DejaVuSans-74"/>
     </g>
    </g>
    <g id="line2d_33">
     <path d="M 330.890313 83.926688 
L 350.890313 83.926688 
" style="fill:none;stroke:#2ca02c;stroke-linecap:square;stroke-width:1.5;"/>
    </g>
    <g id="line2d_34"/>
    <g id="text_18">
     <!-- Gnnet-40 -->
     <g transform="translate(358.890313 87.426688)scale(0.1 -0.1)">
      <defs>
       <path d="M 313 2009 
L 1997 2009 
L 1997 1497 
L 313 1497 
L 313 2009 
z
" id="DejaVuSans-2d" transform="scale(0.015625)"/>
      </defs>
      <use xlink:href="#DejaVuSans-47"/>
      <use x="77.490234" xlink:href="#DejaVuSans-6e"/>
      <use x="140.869141" xlink:href="#DejaVuSans-6e"/>
      <use x="204.248047" xlink:href="#DejaVuSans-65"/>
      <use x="265.771484" xlink:href="#DejaVuSans-74"/>
      <use x="304.980469" xlink:href="#DejaVuSans-2d"/>
      <use x="341.064453" xlink:href="#DejaVuSans-34"/>
      <use x="404.6875" xlink:href="#DejaVuSans-30"/>
     </g>
    </g>
    <g id="line2d_35">
     <path d="M 330.890313 98.604813 
L 350.890313 98.604813 
" style="fill:none;stroke:#d62728;stroke-linecap:square;stroke-width:1.5;"/>
    </g>
    <g id="line2d_36"/>
    <g id="text_19">
     <!-- Germany -->
     <g transform="translate(358.890313 102.104813)scale(0.1 -0.1)">
      <use xlink:href="#DejaVuSans-47"/>
      <use x="77.490234" xlink:href="#DejaVuSans-65"/>
      <use x="139.013672" xlink:href="#DejaVuSans-72"/>
      <use x="178.376953" xlink:href="#DejaVuSans-6d"/>
      <use x="275.789062" xlink:href="#DejaVuSans-61"/>
      <use x="337.068359" xlink:href="#DejaVuSans-6e"/>
      <use x="400.447266" xlink:href="#DejaVuSans-79"/>
     </g>
    </g>
   </g>
  </g>
 </g>
 <defs>
  <clipPath id="p2c97b48967">
   <rect height="266.112" width="357.12" x="57.6" y="41.472"/>
  </clipPath>
 </defs>
</svg>
