<?xml version="1.0" encoding="utf-8" standalone="no"?>
<!DOCTYPE svg PUBLIC "-//W3C//DTD SVG 1.1//EN"
  "http://www.w3.org/Graphics/SVG/1.1/DTD/svg11.dtd">
<svg xmlns:xlink="http://www.w3.org/1999/xlink" width="460.8pt" height="345.6pt" viewBox="0 0 460.8 345.6" xmlns="http://www.w3.org/2000/svg" version="1.1">
 <metadata>
  <rdf:RDF xmlns:dc="http://purl.org/dc/elements/1.1/" xmlns:cc="http://creativecommons.org/ns#" xmlns:rdf="http://www.w3.org/1999/02/22-rdf-syntax-ns#">
   <cc:Work>
    <dc:type rdf:resource="http://purl.org/dc/dcmitype/StillImage"/>
    <dc:date>2023-08-20T13:20:51.401792</dc:date>
    <dc:format>image/svg+xml</dc:format>
    <dc:creator>
     <cc:Agent>
      <dc:title>Matplotlib v3.5.2, https://matplotlib.org/</dc:title>
     </cc:Agent>
    </dc:creator>
   </cc:Work>
  </rdf:RDF>
 </metadata>
 <defs>
  <style type="text/css">*{stroke-linejoin: round; stroke-linecap: butt}</style>
 </defs>
 <g id="figure_1">
  <g id="patch_1">
   <path d="M 0 345.6 
L 460.8 345.6 
L 460.8 0 
L 0 0 
z
" style="fill: #ffffff"/>
  </g>
  <g id="axes_1">
   <g id="patch_2">
    <path d="M 57.6 307.584 
L 414.72 307.584 
L 414.72 41.472 
L 57.6 41.472 
z
" style="fill: #ffffff"/>
   </g>
   <g id="matplotlib.axis_1">
    <g id="xtick_1">
     <g id="line2d_1">
      <path d="M 73.832727 307.584 
L 73.832727 41.472 
" clip-path="url(#p67c1f37b81)" style="fill: none; stroke: #b0b0b0; stroke-width: 0.8; stroke-linecap: square"/>
     </g>
     <g id="line2d_2">
      <defs>
       <path id="ma044762be8" d="M 0 0 
L 0 3.5 
" style="stroke: #000000; stroke-width: 0.8"/>
      </defs>
      <g>
       <use xlink:href="#ma044762be8" x="73.832727" y="307.584" style="stroke: #000000; stroke-width: 0.8"/>
      </g>
     </g>
     <g id="text_1">
      <!-- 0.0 -->
      <g transform="translate(65.881165 322.182437)scale(0.1 -0.1)">
       <defs>
        <path id="DejaVuSans-30" d="M 2034 4250 
Q 1547 4250 1301 3770 
Q 1056 3291 1056 2328 
Q 1056 1369 1301 889 
Q 1547 409 2034 409 
Q 2525 409 2770 889 
Q 3016 1369 3016 2328 
Q 3016 3291 2770 3770 
Q 2525 4250 2034 4250 
z
M 2034 4750 
Q 2819 4750 3233 4129 
Q 3647 3509 3647 2328 
Q 3647 1150 3233 529 
Q 2819 -91 2034 -91 
Q 1250 -91 836 529 
Q 422 1150 422 2328 
Q 422 3509 836 4129 
Q 1250 4750 2034 4750 
z
" transform="scale(0.015625)"/>
        <path id="DejaVuSans-2e" d="M 684 794 
L 1344 794 
L 1344 0 
L 684 0 
L 684 794 
z
" transform="scale(0.015625)"/>
       </defs>
       <use xlink:href="#DejaVuSans-30"/>
       <use xlink:href="#DejaVuSans-2e" x="63.623047"/>
       <use xlink:href="#DejaVuSans-30" x="95.410156"/>
      </g>
     </g>
    </g>
    <g id="xtick_2">
     <g id="line2d_3">
      <path d="M 138.763636 307.584 
L 138.763636 41.472 
" clip-path="url(#p67c1f37b81)" style="fill: none; stroke: #b0b0b0; stroke-width: 0.8; stroke-linecap: square"/>
     </g>
     <g id="line2d_4">
      <g>
       <use xlink:href="#ma044762be8" x="138.763636" y="307.584" style="stroke: #000000; stroke-width: 0.8"/>
      </g>
     </g>
     <g id="text_2">
      <!-- 0.2 -->
      <g transform="translate(130.812074 322.182437)scale(0.1 -0.1)">
       <defs>
        <path id="DejaVuSans-32" d="M 1228 531 
L 3431 531 
L 3431 0 
L 469 0 
L 469 531 
Q 828 903 1448 1529 
Q 2069 2156 2228 2338 
Q 2531 2678 2651 2914 
Q 2772 3150 2772 3378 
Q 2772 3750 2511 3984 
Q 2250 4219 1831 4219 
Q 1534 4219 1204 4116 
Q 875 4013 500 3803 
L 500 4441 
Q 881 4594 1212 4672 
Q 1544 4750 1819 4750 
Q 2544 4750 2975 4387 
Q 3406 4025 3406 3419 
Q 3406 3131 3298 2873 
Q 3191 2616 2906 2266 
Q 2828 2175 2409 1742 
Q 1991 1309 1228 531 
z
" transform="scale(0.015625)"/>
       </defs>
       <use xlink:href="#DejaVuSans-30"/>
       <use xlink:href="#DejaVuSans-2e" x="63.623047"/>
       <use xlink:href="#DejaVuSans-32" x="95.410156"/>
      </g>
     </g>
    </g>
    <g id="xtick_3">
     <g id="line2d_5">
      <path d="M 203.694545 307.584 
L 203.694545 41.472 
" clip-path="url(#p67c1f37b81)" style="fill: none; stroke: #b0b0b0; stroke-width: 0.8; stroke-linecap: square"/>
     </g>
     <g id="line2d_6">
      <g>
       <use xlink:href="#ma044762be8" x="203.694545" y="307.584" style="stroke: #000000; stroke-width: 0.8"/>
      </g>
     </g>
     <g id="text_3">
      <!-- 0.4 -->
      <g transform="translate(195.742983 322.182437)scale(0.1 -0.1)">
       <defs>
        <path id="DejaVuSans-34" d="M 2419 4116 
L 825 1625 
L 2419 1625 
L 2419 4116 
z
M 2253 4666 
L 3047 4666 
L 3047 1625 
L 3713 1625 
L 3713 1100 
L 3047 1100 
L 3047 0 
L 2419 0 
L 2419 1100 
L 313 1100 
L 313 1709 
L 2253 4666 
z
" transform="scale(0.015625)"/>
       </defs>
       <use xlink:href="#DejaVuSans-30"/>
       <use xlink:href="#DejaVuSans-2e" x="63.623047"/>
       <use xlink:href="#DejaVuSans-34" x="95.410156"/>
      </g>
     </g>
    </g>
    <g id="xtick_4">
     <g id="line2d_7">
      <path d="M 268.625455 307.584 
L 268.625455 41.472 
" clip-path="url(#p67c1f37b81)" style="fill: none; stroke: #b0b0b0; stroke-width: 0.8; stroke-linecap: square"/>
     </g>
     <g id="line2d_8">
      <g>
       <use xlink:href="#ma044762be8" x="268.625455" y="307.584" style="stroke: #000000; stroke-width: 0.8"/>
      </g>
     </g>
     <g id="text_4">
      <!-- 0.6 -->
      <g transform="translate(260.673892 322.182437)scale(0.1 -0.1)">
       <defs>
        <path id="DejaVuSans-36" d="M 2113 2584 
Q 1688 2584 1439 2293 
Q 1191 2003 1191 1497 
Q 1191 994 1439 701 
Q 1688 409 2113 409 
Q 2538 409 2786 701 
Q 3034 994 3034 1497 
Q 3034 2003 2786 2293 
Q 2538 2584 2113 2584 
z
M 3366 4563 
L 3366 3988 
Q 3128 4100 2886 4159 
Q 2644 4219 2406 4219 
Q 1781 4219 1451 3797 
Q 1122 3375 1075 2522 
Q 1259 2794 1537 2939 
Q 1816 3084 2150 3084 
Q 2853 3084 3261 2657 
Q 3669 2231 3669 1497 
Q 3669 778 3244 343 
Q 2819 -91 2113 -91 
Q 1303 -91 875 529 
Q 447 1150 447 2328 
Q 447 3434 972 4092 
Q 1497 4750 2381 4750 
Q 2619 4750 2861 4703 
Q 3103 4656 3366 4563 
z
" transform="scale(0.015625)"/>
       </defs>
       <use xlink:href="#DejaVuSans-30"/>
       <use xlink:href="#DejaVuSans-2e" x="63.623047"/>
       <use xlink:href="#DejaVuSans-36" x="95.410156"/>
      </g>
     </g>
    </g>
    <g id="xtick_5">
     <g id="line2d_9">
      <path d="M 333.556364 307.584 
L 333.556364 41.472 
" clip-path="url(#p67c1f37b81)" style="fill: none; stroke: #b0b0b0; stroke-width: 0.8; stroke-linecap: square"/>
     </g>
     <g id="line2d_10">
      <g>
       <use xlink:href="#ma044762be8" x="333.556364" y="307.584" style="stroke: #000000; stroke-width: 0.8"/>
      </g>
     </g>
     <g id="text_5">
      <!-- 0.8 -->
      <g transform="translate(325.604801 322.182437)scale(0.1 -0.1)">
       <defs>
        <path id="DejaVuSans-38" d="M 2034 2216 
Q 1584 2216 1326 1975 
Q 1069 1734 1069 1313 
Q 1069 891 1326 650 
Q 1584 409 2034 409 
Q 2484 409 2743 651 
Q 3003 894 3003 1313 
Q 3003 1734 2745 1975 
Q 2488 2216 2034 2216 
z
M 1403 2484 
Q 997 2584 770 2862 
Q 544 3141 544 3541 
Q 544 4100 942 4425 
Q 1341 4750 2034 4750 
Q 2731 4750 3128 4425 
Q 3525 4100 3525 3541 
Q 3525 3141 3298 2862 
Q 3072 2584 2669 2484 
Q 3125 2378 3379 2068 
Q 3634 1759 3634 1313 
Q 3634 634 3220 271 
Q 2806 -91 2034 -91 
Q 1263 -91 848 271 
Q 434 634 434 1313 
Q 434 1759 690 2068 
Q 947 2378 1403 2484 
z
M 1172 3481 
Q 1172 3119 1398 2916 
Q 1625 2713 2034 2713 
Q 2441 2713 2670 2916 
Q 2900 3119 2900 3481 
Q 2900 3844 2670 4047 
Q 2441 4250 2034 4250 
Q 1625 4250 1398 4047 
Q 1172 3844 1172 3481 
z
" transform="scale(0.015625)"/>
       </defs>
       <use xlink:href="#DejaVuSans-30"/>
       <use xlink:href="#DejaVuSans-2e" x="63.623047"/>
       <use xlink:href="#DejaVuSans-38" x="95.410156"/>
      </g>
     </g>
    </g>
    <g id="xtick_6">
     <g id="line2d_11">
      <path d="M 398.487273 307.584 
L 398.487273 41.472 
" clip-path="url(#p67c1f37b81)" style="fill: none; stroke: #b0b0b0; stroke-width: 0.8; stroke-linecap: square"/>
     </g>
     <g id="line2d_12">
      <g>
       <use xlink:href="#ma044762be8" x="398.487273" y="307.584" style="stroke: #000000; stroke-width: 0.8"/>
      </g>
     </g>
     <g id="text_6">
      <!-- 1.0 -->
      <g transform="translate(390.53571 322.182437)scale(0.1 -0.1)">
       <defs>
        <path id="DejaVuSans-31" d="M 794 531 
L 1825 531 
L 1825 4091 
L 703 3866 
L 703 4441 
L 1819 4666 
L 2450 4666 
L 2450 531 
L 3481 531 
L 3481 0 
L 794 0 
L 794 531 
z
" transform="scale(0.015625)"/>
       </defs>
       <use xlink:href="#DejaVuSans-31"/>
       <use xlink:href="#DejaVuSans-2e" x="63.623047"/>
       <use xlink:href="#DejaVuSans-30" x="95.410156"/>
      </g>
     </g>
    </g>
    <g id="text_7">
     <!-- Normalized traffic volume -->
     <g transform="translate(171.364688 335.860562)scale(0.1 -0.1)">
      <defs>
       <path id="DejaVuSans-4e" d="M 628 4666 
L 1478 4666 
L 3547 763 
L 3547 4666 
L 4159 4666 
L 4159 0 
L 3309 0 
L 1241 3903 
L 1241 0 
L 628 0 
L 628 4666 
z
" transform="scale(0.015625)"/>
       <path id="DejaVuSans-6f" d="M 1959 3097 
Q 1497 3097 1228 2736 
Q 959 2375 959 1747 
Q 959 1119 1226 758 
Q 1494 397 1959 397 
Q 2419 397 2687 759 
Q 2956 1122 2956 1747 
Q 2956 2369 2687 2733 
Q 2419 3097 1959 3097 
z
M 1959 3584 
Q 2709 3584 3137 3096 
Q 3566 2609 3566 1747 
Q 3566 888 3137 398 
Q 2709 -91 1959 -91 
Q 1206 -91 779 398 
Q 353 888 353 1747 
Q 353 2609 779 3096 
Q 1206 3584 1959 3584 
z
" transform="scale(0.015625)"/>
       <path id="DejaVuSans-72" d="M 2631 2963 
Q 2534 3019 2420 3045 
Q 2306 3072 2169 3072 
Q 1681 3072 1420 2755 
Q 1159 2438 1159 1844 
L 1159 0 
L 581 0 
L 581 3500 
L 1159 3500 
L 1159 2956 
Q 1341 3275 1631 3429 
Q 1922 3584 2338 3584 
Q 2397 3584 2469 3576 
Q 2541 3569 2628 3553 
L 2631 2963 
z
" transform="scale(0.015625)"/>
       <path id="DejaVuSans-6d" d="M 3328 2828 
Q 3544 3216 3844 3400 
Q 4144 3584 4550 3584 
Q 5097 3584 5394 3201 
Q 5691 2819 5691 2113 
L 5691 0 
L 5113 0 
L 5113 2094 
Q 5113 2597 4934 2840 
Q 4756 3084 4391 3084 
Q 3944 3084 3684 2787 
Q 3425 2491 3425 1978 
L 3425 0 
L 2847 0 
L 2847 2094 
Q 2847 2600 2669 2842 
Q 2491 3084 2119 3084 
Q 1678 3084 1418 2786 
Q 1159 2488 1159 1978 
L 1159 0 
L 581 0 
L 581 3500 
L 1159 3500 
L 1159 2956 
Q 1356 3278 1631 3431 
Q 1906 3584 2284 3584 
Q 2666 3584 2933 3390 
Q 3200 3197 3328 2828 
z
" transform="scale(0.015625)"/>
       <path id="DejaVuSans-61" d="M 2194 1759 
Q 1497 1759 1228 1600 
Q 959 1441 959 1056 
Q 959 750 1161 570 
Q 1363 391 1709 391 
Q 2188 391 2477 730 
Q 2766 1069 2766 1631 
L 2766 1759 
L 2194 1759 
z
M 3341 1997 
L 3341 0 
L 2766 0 
L 2766 531 
Q 2569 213 2275 61 
Q 1981 -91 1556 -91 
Q 1019 -91 701 211 
Q 384 513 384 1019 
Q 384 1609 779 1909 
Q 1175 2209 1959 2209 
L 2766 2209 
L 2766 2266 
Q 2766 2663 2505 2880 
Q 2244 3097 1772 3097 
Q 1472 3097 1187 3025 
Q 903 2953 641 2809 
L 641 3341 
Q 956 3463 1253 3523 
Q 1550 3584 1831 3584 
Q 2591 3584 2966 3190 
Q 3341 2797 3341 1997 
z
" transform="scale(0.015625)"/>
       <path id="DejaVuSans-6c" d="M 603 4863 
L 1178 4863 
L 1178 0 
L 603 0 
L 603 4863 
z
" transform="scale(0.015625)"/>
       <path id="DejaVuSans-69" d="M 603 3500 
L 1178 3500 
L 1178 0 
L 603 0 
L 603 3500 
z
M 603 4863 
L 1178 4863 
L 1178 4134 
L 603 4134 
L 603 4863 
z
" transform="scale(0.015625)"/>
       <path id="DejaVuSans-7a" d="M 353 3500 
L 3084 3500 
L 3084 2975 
L 922 459 
L 3084 459 
L 3084 0 
L 275 0 
L 275 525 
L 2438 3041 
L 353 3041 
L 353 3500 
z
" transform="scale(0.015625)"/>
       <path id="DejaVuSans-65" d="M 3597 1894 
L 3597 1613 
L 953 1613 
Q 991 1019 1311 708 
Q 1631 397 2203 397 
Q 2534 397 2845 478 
Q 3156 559 3463 722 
L 3463 178 
Q 3153 47 2828 -22 
Q 2503 -91 2169 -91 
Q 1331 -91 842 396 
Q 353 884 353 1716 
Q 353 2575 817 3079 
Q 1281 3584 2069 3584 
Q 2775 3584 3186 3129 
Q 3597 2675 3597 1894 
z
M 3022 2063 
Q 3016 2534 2758 2815 
Q 2500 3097 2075 3097 
Q 1594 3097 1305 2825 
Q 1016 2553 972 2059 
L 3022 2063 
z
" transform="scale(0.015625)"/>
       <path id="DejaVuSans-64" d="M 2906 2969 
L 2906 4863 
L 3481 4863 
L 3481 0 
L 2906 0 
L 2906 525 
Q 2725 213 2448 61 
Q 2172 -91 1784 -91 
Q 1150 -91 751 415 
Q 353 922 353 1747 
Q 353 2572 751 3078 
Q 1150 3584 1784 3584 
Q 2172 3584 2448 3432 
Q 2725 3281 2906 2969 
z
M 947 1747 
Q 947 1113 1208 752 
Q 1469 391 1925 391 
Q 2381 391 2643 752 
Q 2906 1113 2906 1747 
Q 2906 2381 2643 2742 
Q 2381 3103 1925 3103 
Q 1469 3103 1208 2742 
Q 947 2381 947 1747 
z
" transform="scale(0.015625)"/>
       <path id="DejaVuSans-20" transform="scale(0.015625)"/>
       <path id="DejaVuSans-74" d="M 1172 4494 
L 1172 3500 
L 2356 3500 
L 2356 3053 
L 1172 3053 
L 1172 1153 
Q 1172 725 1289 603 
Q 1406 481 1766 481 
L 2356 481 
L 2356 0 
L 1766 0 
Q 1100 0 847 248 
Q 594 497 594 1153 
L 594 3053 
L 172 3053 
L 172 3500 
L 594 3500 
L 594 4494 
L 1172 4494 
z
" transform="scale(0.015625)"/>
       <path id="DejaVuSans-66" d="M 2375 4863 
L 2375 4384 
L 1825 4384 
Q 1516 4384 1395 4259 
Q 1275 4134 1275 3809 
L 1275 3500 
L 2222 3500 
L 2222 3053 
L 1275 3053 
L 1275 0 
L 697 0 
L 697 3053 
L 147 3053 
L 147 3500 
L 697 3500 
L 697 3744 
Q 697 4328 969 4595 
Q 1241 4863 1831 4863 
L 2375 4863 
z
" transform="scale(0.015625)"/>
       <path id="DejaVuSans-63" d="M 3122 3366 
L 3122 2828 
Q 2878 2963 2633 3030 
Q 2388 3097 2138 3097 
Q 1578 3097 1268 2742 
Q 959 2388 959 1747 
Q 959 1106 1268 751 
Q 1578 397 2138 397 
Q 2388 397 2633 464 
Q 2878 531 3122 666 
L 3122 134 
Q 2881 22 2623 -34 
Q 2366 -91 2075 -91 
Q 1284 -91 818 406 
Q 353 903 353 1747 
Q 353 2603 823 3093 
Q 1294 3584 2113 3584 
Q 2378 3584 2631 3529 
Q 2884 3475 3122 3366 
z
" transform="scale(0.015625)"/>
       <path id="DejaVuSans-76" d="M 191 3500 
L 800 3500 
L 1894 563 
L 2988 3500 
L 3597 3500 
L 2284 0 
L 1503 0 
L 191 3500 
z
" transform="scale(0.015625)"/>
       <path id="DejaVuSans-75" d="M 544 1381 
L 544 3500 
L 1119 3500 
L 1119 1403 
Q 1119 906 1312 657 
Q 1506 409 1894 409 
Q 2359 409 2629 706 
Q 2900 1003 2900 1516 
L 2900 3500 
L 3475 3500 
L 3475 0 
L 2900 0 
L 2900 538 
Q 2691 219 2414 64 
Q 2138 -91 1772 -91 
Q 1169 -91 856 284 
Q 544 659 544 1381 
z
M 1991 3584 
L 1991 3584 
z
" transform="scale(0.015625)"/>
      </defs>
      <use xlink:href="#DejaVuSans-4e"/>
      <use xlink:href="#DejaVuSans-6f" x="74.804688"/>
      <use xlink:href="#DejaVuSans-72" x="135.986328"/>
      <use xlink:href="#DejaVuSans-6d" x="175.349609"/>
      <use xlink:href="#DejaVuSans-61" x="272.761719"/>
      <use xlink:href="#DejaVuSans-6c" x="334.041016"/>
      <use xlink:href="#DejaVuSans-69" x="361.824219"/>
      <use xlink:href="#DejaVuSans-7a" x="389.607422"/>
      <use xlink:href="#DejaVuSans-65" x="442.097656"/>
      <use xlink:href="#DejaVuSans-64" x="503.621094"/>
      <use xlink:href="#DejaVuSans-20" x="567.097656"/>
      <use xlink:href="#DejaVuSans-74" x="598.884766"/>
      <use xlink:href="#DejaVuSans-72" x="638.09375"/>
      <use xlink:href="#DejaVuSans-61" x="679.207031"/>
      <use xlink:href="#DejaVuSans-66" x="740.486328"/>
      <use xlink:href="#DejaVuSans-66" x="775.691406"/>
      <use xlink:href="#DejaVuSans-69" x="810.896484"/>
      <use xlink:href="#DejaVuSans-63" x="838.679688"/>
      <use xlink:href="#DejaVuSans-20" x="893.660156"/>
      <use xlink:href="#DejaVuSans-76" x="925.447266"/>
      <use xlink:href="#DejaVuSans-6f" x="984.626953"/>
      <use xlink:href="#DejaVuSans-6c" x="1045.808594"/>
      <use xlink:href="#DejaVuSans-75" x="1073.591797"/>
      <use xlink:href="#DejaVuSans-6d" x="1136.970703"/>
      <use xlink:href="#DejaVuSans-65" x="1234.382812"/>
     </g>
    </g>
   </g>
   <g id="matplotlib.axis_2">
    <g id="ytick_1">
     <g id="line2d_13">
      <path d="M 57.6 295.488302 
L 414.72 295.488302 
" clip-path="url(#p67c1f37b81)" style="fill: none; stroke: #b0b0b0; stroke-width: 0.8; stroke-linecap: square"/>
     </g>
     <g id="line2d_14">
      <defs>
       <path id="m5694326fb9" d="M 0 0 
L -3.5 0 
" style="stroke: #000000; stroke-width: 0.8"/>
      </defs>
      <g>
       <use xlink:href="#m5694326fb9" x="57.6" y="295.488302" style="stroke: #000000; stroke-width: 0.8"/>
      </g>
     </g>
     <g id="text_8">
      <!-- 0.0 -->
      <g transform="translate(34.696875 299.287521)scale(0.1 -0.1)">
       <use xlink:href="#DejaVuSans-30"/>
       <use xlink:href="#DejaVuSans-2e" x="63.623047"/>
       <use xlink:href="#DejaVuSans-30" x="95.410156"/>
      </g>
     </g>
    </g>
    <g id="ytick_2">
     <g id="line2d_15">
      <path d="M 57.6 247.104242 
L 414.72 247.104242 
" clip-path="url(#p67c1f37b81)" style="fill: none; stroke: #b0b0b0; stroke-width: 0.8; stroke-linecap: square"/>
     </g>
     <g id="line2d_16">
      <g>
       <use xlink:href="#m5694326fb9" x="57.6" y="247.104242" style="stroke: #000000; stroke-width: 0.8"/>
      </g>
     </g>
     <g id="text_9">
      <!-- 0.2 -->
      <g transform="translate(34.696875 250.903461)scale(0.1 -0.1)">
       <use xlink:href="#DejaVuSans-30"/>
       <use xlink:href="#DejaVuSans-2e" x="63.623047"/>
       <use xlink:href="#DejaVuSans-32" x="95.410156"/>
      </g>
     </g>
    </g>
    <g id="ytick_3">
     <g id="line2d_17">
      <path d="M 57.6 198.720181 
L 414.72 198.720181 
" clip-path="url(#p67c1f37b81)" style="fill: none; stroke: #b0b0b0; stroke-width: 0.8; stroke-linecap: square"/>
     </g>
     <g id="line2d_18">
      <g>
       <use xlink:href="#m5694326fb9" x="57.6" y="198.720181" style="stroke: #000000; stroke-width: 0.8"/>
      </g>
     </g>
     <g id="text_10">
      <!-- 0.4 -->
      <g transform="translate(34.696875 202.5194)scale(0.1 -0.1)">
       <use xlink:href="#DejaVuSans-30"/>
       <use xlink:href="#DejaVuSans-2e" x="63.623047"/>
       <use xlink:href="#DejaVuSans-34" x="95.410156"/>
      </g>
     </g>
    </g>
    <g id="ytick_4">
     <g id="line2d_19">
      <path d="M 57.6 150.336121 
L 414.72 150.336121 
" clip-path="url(#p67c1f37b81)" style="fill: none; stroke: #b0b0b0; stroke-width: 0.8; stroke-linecap: square"/>
     </g>
     <g id="line2d_20">
      <g>
       <use xlink:href="#m5694326fb9" x="57.6" y="150.336121" style="stroke: #000000; stroke-width: 0.8"/>
      </g>
     </g>
     <g id="text_11">
      <!-- 0.6 -->
      <g transform="translate(34.696875 154.13534)scale(0.1 -0.1)">
       <use xlink:href="#DejaVuSans-30"/>
       <use xlink:href="#DejaVuSans-2e" x="63.623047"/>
       <use xlink:href="#DejaVuSans-36" x="95.410156"/>
      </g>
     </g>
    </g>
    <g id="ytick_5">
     <g id="line2d_21">
      <path d="M 57.6 101.95206 
L 414.72 101.95206 
" clip-path="url(#p67c1f37b81)" style="fill: none; stroke: #b0b0b0; stroke-width: 0.8; stroke-linecap: square"/>
     </g>
     <g id="line2d_22">
      <g>
       <use xlink:href="#m5694326fb9" x="57.6" y="101.95206" style="stroke: #000000; stroke-width: 0.8"/>
      </g>
     </g>
     <g id="text_12">
      <!-- 0.8 -->
      <g transform="translate(34.696875 105.751279)scale(0.1 -0.1)">
       <use xlink:href="#DejaVuSans-30"/>
       <use xlink:href="#DejaVuSans-2e" x="63.623047"/>
       <use xlink:href="#DejaVuSans-38" x="95.410156"/>
      </g>
     </g>
    </g>
    <g id="ytick_6">
     <g id="line2d_23">
      <path d="M 57.6 53.568 
L 414.72 53.568 
" clip-path="url(#p67c1f37b81)" style="fill: none; stroke: #b0b0b0; stroke-width: 0.8; stroke-linecap: square"/>
     </g>
     <g id="line2d_24">
      <g>
       <use xlink:href="#m5694326fb9" x="57.6" y="53.568" style="stroke: #000000; stroke-width: 0.8"/>
      </g>
     </g>
     <g id="text_13">
      <!-- 1.0 -->
      <g transform="translate(34.696875 57.367219)scale(0.1 -0.1)">
       <use xlink:href="#DejaVuSans-31"/>
       <use xlink:href="#DejaVuSans-2e" x="63.623047"/>
       <use xlink:href="#DejaVuSans-30" x="95.410156"/>
      </g>
     </g>
    </g>
    <g id="text_14">
     <!-- Cumulative Probability -->
     <g transform="translate(28.617187 231.083469)rotate(-90)scale(0.1 -0.1)">
      <defs>
       <path id="DejaVuSans-43" d="M 4122 4306 
L 4122 3641 
Q 3803 3938 3442 4084 
Q 3081 4231 2675 4231 
Q 1875 4231 1450 3742 
Q 1025 3253 1025 2328 
Q 1025 1406 1450 917 
Q 1875 428 2675 428 
Q 3081 428 3442 575 
Q 3803 722 4122 1019 
L 4122 359 
Q 3791 134 3420 21 
Q 3050 -91 2638 -91 
Q 1578 -91 968 557 
Q 359 1206 359 2328 
Q 359 3453 968 4101 
Q 1578 4750 2638 4750 
Q 3056 4750 3426 4639 
Q 3797 4528 4122 4306 
z
" transform="scale(0.015625)"/>
       <path id="DejaVuSans-50" d="M 1259 4147 
L 1259 2394 
L 2053 2394 
Q 2494 2394 2734 2622 
Q 2975 2850 2975 3272 
Q 2975 3691 2734 3919 
Q 2494 4147 2053 4147 
L 1259 4147 
z
M 628 4666 
L 2053 4666 
Q 2838 4666 3239 4311 
Q 3641 3956 3641 3272 
Q 3641 2581 3239 2228 
Q 2838 1875 2053 1875 
L 1259 1875 
L 1259 0 
L 628 0 
L 628 4666 
z
" transform="scale(0.015625)"/>
       <path id="DejaVuSans-62" d="M 3116 1747 
Q 3116 2381 2855 2742 
Q 2594 3103 2138 3103 
Q 1681 3103 1420 2742 
Q 1159 2381 1159 1747 
Q 1159 1113 1420 752 
Q 1681 391 2138 391 
Q 2594 391 2855 752 
Q 3116 1113 3116 1747 
z
M 1159 2969 
Q 1341 3281 1617 3432 
Q 1894 3584 2278 3584 
Q 2916 3584 3314 3078 
Q 3713 2572 3713 1747 
Q 3713 922 3314 415 
Q 2916 -91 2278 -91 
Q 1894 -91 1617 61 
Q 1341 213 1159 525 
L 1159 0 
L 581 0 
L 581 4863 
L 1159 4863 
L 1159 2969 
z
" transform="scale(0.015625)"/>
       <path id="DejaVuSans-79" d="M 2059 -325 
Q 1816 -950 1584 -1140 
Q 1353 -1331 966 -1331 
L 506 -1331 
L 506 -850 
L 844 -850 
Q 1081 -850 1212 -737 
Q 1344 -625 1503 -206 
L 1606 56 
L 191 3500 
L 800 3500 
L 1894 763 
L 2988 3500 
L 3597 3500 
L 2059 -325 
z
" transform="scale(0.015625)"/>
      </defs>
      <use xlink:href="#DejaVuSans-43"/>
      <use xlink:href="#DejaVuSans-75" x="69.824219"/>
      <use xlink:href="#DejaVuSans-6d" x="133.203125"/>
      <use xlink:href="#DejaVuSans-75" x="230.615234"/>
      <use xlink:href="#DejaVuSans-6c" x="293.994141"/>
      <use xlink:href="#DejaVuSans-61" x="321.777344"/>
      <use xlink:href="#DejaVuSans-74" x="383.056641"/>
      <use xlink:href="#DejaVuSans-69" x="422.265625"/>
      <use xlink:href="#DejaVuSans-76" x="450.048828"/>
      <use xlink:href="#DejaVuSans-65" x="509.228516"/>
      <use xlink:href="#DejaVuSans-20" x="570.751953"/>
      <use xlink:href="#DejaVuSans-50" x="602.539062"/>
      <use xlink:href="#DejaVuSans-72" x="661.091797"/>
      <use xlink:href="#DejaVuSans-6f" x="699.955078"/>
      <use xlink:href="#DejaVuSans-62" x="761.136719"/>
      <use xlink:href="#DejaVuSans-61" x="824.613281"/>
      <use xlink:href="#DejaVuSans-62" x="885.892578"/>
      <use xlink:href="#DejaVuSans-69" x="949.369141"/>
      <use xlink:href="#DejaVuSans-6c" x="977.152344"/>
      <use xlink:href="#DejaVuSans-69" x="1004.935547"/>
      <use xlink:href="#DejaVuSans-74" x="1032.71875"/>
      <use xlink:href="#DejaVuSans-79" x="1071.927734"/>
     </g>
    </g>
   </g>
   <g id="line2d_25">
    <path d="M 73.832727 295.487742 
L 73.943832 246.473681 
L 74.729781 205.81427 
L 74.760891 204.783309 
L 74.862794 201.330905 
L 75.776552 173.60695 
L 75.848055 171.646948 
L 76.420621 158.124051 
L 76.54816 155.462927 
L 76.618608 154.047806 
L 76.925361 148.414759 
L 76.961454 147.821718 
L 77.568065 138.171786 
L 77.643346 137.057944 
L 77.767402 135.283302 
L 77.862244 133.92418 
L 78.55281 124.661209 
L 78.983212 119.867043 
L 80.759578 104.463664 
L 80.788969 104.225103 
L 80.913442 103.287102 
L 81.596636 98.732616 
L 81.653084 98.366936 
L 81.784267 97.614295 
L 82.1344 95.671093 
L 82.3404 94.552771 
L 82.39215 94.296291 
L 82.511979 93.71781 
L 82.584805 93.36221 
L 82.808704 92.284768 
L 82.972387 91.529327 
L 83.090745 90.986687 
L 83.148061 90.737486 
L 83.284492 90.106366 
L 83.69769 88.364203 
L 83.810512 87.905563 
L 83.861101 87.707883 
L 83.97265 87.305242 
L 86.190487 79.402512 
L 86.378015 78.805552 
L 86.555006 78.218111 
L 86.805882 77.42571 
L 86.851197 77.27115 
L 87.325582 75.843708 
L 87.441785 75.508827 
L 87.588721 75.113467 
L 87.691842 74.832907 
L 88.148547 73.644025 
L 88.282151 73.330425 
L 88.410871 72.995544 
L 88.475203 72.819704 
L 88.750062 72.151623 
L 88.845593 71.925383 
L 89.00202 71.558022 
L 89.072096 71.397302 
L 89.201614 71.100502 
L 89.413312 70.685541 
L 89.498427 70.502421 
L 89.611815 70.284021 
L 89.929256 69.67138 
L 90.045957 69.4317 
L 90.180662 69.17802 
L 90.346364 68.873939 
L 90.426721 68.736739 
L 90.692487 68.246178 
L 90.785098 68.079298 
L 90.905565 67.876018 
L 91.343495 67.144657 
L 91.437067 67.002977 
L 91.674053 66.640656 
L 91.845751 66.367936 
L 92.005611 66.118736 
L 92.396211 65.553135 
L 92.522313 65.369455 
L 92.716181 65.111854 
L 92.850057 64.951694 
L 94.66095 62.960332 
L 94.894901 62.710011 
L 95.470003 62.105211 
L 95.638588 61.93833 
L 95.796309 61.79665 
L 96.150198 61.48529 
L 96.310993 61.33465 
L 96.783476 60.981849 
L 97.285804 60.634089 
L 97.423635 60.546729 
L 98.252974 60.023128 
L 98.428232 59.907208 
L 99.145222 59.502887 
L 99.302421 59.417207 
L 100.002182 59.053767 
L 100.137602 58.984887 
L 100.512629 58.785527 
L 100.714055 58.676886 
L 101.753225 58.171206 
L 102.205872 57.948885 
L 102.839566 57.700245 
L 103.028949 57.628565 
L 104.337984 57.098244 
L 104.453105 57.048964 
L 105.410637 56.718004 
L 106.268791 56.446404 
L 106.783957 56.272243 
L 106.915175 56.224083 
L 107.352895 56.084083 
L 107.828546 55.950243 
L 108.396277 55.808563 
L 108.614747 55.740803 
L 109.4792 55.542562 
L 109.753593 55.472562 
L 110.542473 55.323042 
L 110.650934 55.298402 
L 112.362093 55.014482 
L 112.520335 54.993762 
L 113.79148 54.812882 
L 113.92899 54.794402 
L 117.122517 54.393441 
L 120.526693 54.148721 
L 123.185623 54.005921 
L 125.806493 53.90288 
L 168.318461 53.59768 
L 398.487273 53.568 
L 398.487273 53.568 
" clip-path="url(#p67c1f37b81)" style="fill: none; stroke: #1f77b4; stroke-width: 1.5; stroke-linecap: square"/>
   </g>
   <g id="line2d_26">
    <path d="M 73.832727 295.487803 
L 73.943837 200.05924 
L 74.294917 165.18373 
L 74.41563 158.467942 
L 74.526735 153.28365 
L 74.714357 146.08852 
L 75.511135 126.232062 
L 75.76977 121.763034 
L 75.894323 119.795182 
L 75.932896 119.210875 
L 75.987729 118.399142 
L 76.141523 116.331823 
L 76.601464 110.72467 
L 76.742442 109.196174 
L 76.861818 107.99407 
L 77.028246 106.390598 
L 77.091049 105.848277 
L 78.050425 98.633154 
L 78.184597 97.771938 
L 78.448737 96.206953 
L 78.574385 95.506684 
L 79.630326 90.256413 
L 79.730048 89.770074 
L 79.975625 88.753409 
L 80.200018 87.850706 
L 80.313975 87.421847 
L 80.631635 86.273226 
L 80.744153 85.89635 
L 80.782522 85.763893 
L 80.908522 85.332036 
L 81.097422 84.740731 
L 81.325106 84.072451 
L 81.385578 83.895509 
L 81.598826 83.288709 
L 82.383866 81.431321 
L 82.464179 81.255879 
L 83.057268 80.094261 
L 83.162264 79.909822 
L 84.440253 77.998952 
L 84.707252 77.667561 
L 84.977377 77.353664 
L 85.269622 77.020774 
L 85.399915 76.872823 
L 85.922186 76.335999 
L 86.06926 76.18305 
L 86.668379 75.60674 
L 86.894039 75.411804 
L 87.140183 75.183879 
L 87.347297 75.000939 
L 87.740211 74.657052 
L 87.906663 74.528595 
L 88.112603 74.368647 
L 88.84532 73.829325 
L 89.063811 73.701367 
L 89.252507 73.565912 
L 89.552371 73.386971 
L 89.66523 73.321992 
L 90.76898 72.699197 
L 91.082585 72.527254 
L 91.559472 72.241848 
L 91.670525 72.17587 
L 91.977341 72.020421 
L 92.29958 71.84148 
L 92.432063 71.776002 
L 92.800612 71.593562 
L 93.181676 71.394627 
L 93.319328 71.32465 
L 93.646997 71.1737 
L 93.783907 71.104723 
L 96.299934 70.029077 
L 96.661164 69.876627 
L 96.980264 69.752668 
L 97.762064 69.481757 
L 98.236416 69.302816 
L 99.023331 69.051399 
L 99.603155 68.872458 
L 100.231813 68.683021 
L 101.079248 68.4406 
L 102.838037 67.973254 
L 108.280559 66.512236 
L 108.768107 66.363285 
L 108.899727 66.324298 
L 109.680307 66.078878 
L 110.327401 65.89244 
L 110.770525 65.759984 
L 111.300525 65.610533 
L 111.565041 65.52856 
L 112.434427 65.266146 
L 112.823877 65.146686 
L 113.340117 64.995235 
L 121.040905 62.949409 
L 121.169513 62.913921 
L 121.531496 62.819952 
L 122.07559 62.668002 
L 123.777543 62.220649 
L 124.34575 62.072198 
L 125.071042 61.917749 
L 125.549701 61.790791 
L 127.806143 61.250469 
L 127.936982 61.221978 
L 128.964797 60.993054 
L 129.631065 60.841104 
L 129.743607 60.817112 
L 131.966636 60.339769 
L 132.102361 60.310279 
L 132.957273 60.143334 
L 133.272512 60.086353 
L 134.863074 59.801446 
L 135.625852 59.660493 
L 136.705633 59.476054 
L 137.812995 59.289615 
L 139.243407 59.066189 
L 139.596905 59.009707 
L 149.320808 57.881579 
L 166.576077 56.715463 
L 170.157266 56.529025 
L 175.44772 56.293102 
L 179.302039 56.132155 
L 179.688971 56.115661 
L 183.915264 55.933721 
L 190.667044 55.637818 
L 191.723658 55.598331 
L 196.801876 55.452879 
L 268.035703 53.898391 
L 274.380047 53.75144 
L 286.82868 53.604488 
L 398.487273 53.568 
L 398.487273 53.568 
" clip-path="url(#p67c1f37b81)" style="fill: none; stroke: #ff7f0e; stroke-width: 1.5; stroke-linecap: square"/>
   </g>
   <g id="line2d_27">
    <path d="M 73.832727 295.488 
L 73.832727 288.96855 
L 81.524905 288.857267 
L 81.992128 288.760196 
L 82.63478 288.56787 
L 85.166924 287.255755 
L 85.354264 287.13933 
L 85.764512 286.866565 
L 85.96344 286.729275 
L 86.398796 286.402078 
L 86.606736 286.245435 
L 86.80502 286.095142 
L 87.031469 285.905839 
L 87.790324 285.299526 
L 87.901376 285.207899 
L 92.546564 280.69155 
L 92.856704 280.345301 
L 93.391363 279.690604 
L 93.7588 279.236701 
L 94.323877 278.553579 
L 94.434607 278.412358 
L 94.581871 278.220636 
L 94.950918 277.763709 
L 95.379192 277.209107 
L 95.490244 277.065164 
L 95.906769 276.519029 
L 96.29207 276.004646 
L 96.723885 275.429481 
L 96.853285 275.246226 
L 96.964015 275.098352 
L 97.100174 274.911771 
L 97.55259 274.297596 
L 97.677161 274.132183 
L 97.788052 273.978261 
L 98.141165 273.494118 
L 98.762251 272.563632 
L 99.069977 272.122128 
L 99.772179 271.038929 
L 99.916707 270.817572 
L 100.027759 270.639761 
L 100.655605 269.695969 
L 100.751689 269.555353 
L 100.862741 269.388731 
L 101.142141 268.973837 
L 101.253032 268.813263 
L 101.362474 268.653595 
L 101.473526 268.488787 
L 102.139194 267.474536 
L 102.405557 267.072041 
L 102.516448 266.88546 
L 102.772672 266.49234 
L 103.54392 265.278505 
L 103.626806 265.141215 
L 104.544674 263.653103 
L 104.641724 263.497971 
L 104.752776 263.32651 
L 105.886632 261.432577 
L 106.125152 261.056088 
L 107.205574 259.260737 
L 107.278804 259.137055 
L 107.389856 258.950777 
L 108.571512 256.966123 
L 108.658583 256.814923 
L 109.861484 254.790655 
L 109.950004 254.63885 
L 111.024149 252.857107 
L 111.244483 252.497855 
L 111.355535 252.32458 
L 112.591108 250.239529 
L 112.684938 250.072906 
L 112.795829 249.878765 
L 112.993148 249.540984 
L 113.103234 249.349867 
L 113.183384 249.219835 
L 113.294275 249.035673 
L 113.524104 248.667349 
L 114.830654 246.448638 
L 114.95088 246.242401 
L 115.061932 246.062473 
L 116.324543 243.926619 
L 116.41934 243.772395 
L 116.530231 243.58793 
L 116.740103 243.238355 
L 117.939624 241.220135 
L 118.029431 241.084962 
L 118.140483 240.902917 
L 119.312 238.93792 
L 119.43464 238.730171 
L 119.545209 238.540263 
L 119.636948 238.387249 
L 119.831852 238.051887 
L 119.942904 237.861072 
L 121.338778 235.474831 
L 121.425688 235.32363 
L 121.53674 235.133118 
L 122.569683 233.428487 
L 122.698439 233.216807 
L 123.617755 231.725973 
L 123.74796 231.513386 
L 123.859012 231.338901 
L 123.984388 231.129337 
L 124.095118 230.940035 
L 124.231116 230.723818 
L 124.342007 230.529375 
L 124.527254 230.203085 
L 124.638306 230.004408 
L 124.846086 229.65695 
L 124.957138 229.462809 
L 126.244857 227.279478 
L 126.377797 227.065378 
L 126.488527 226.892708 
L 126.590566 226.722154 
L 127.865571 224.562713 
L 127.987728 224.355266 
L 128.09878 224.156589 
L 128.292235 223.822437 
L 129.299106 222.167097 
L 129.503666 221.822663 
L 129.614235 221.638501 
L 129.698571 221.488208 
L 129.907316 221.139843 
L 130.018368 220.952052 
L 131.247503 218.878493 
L 131.341334 218.724571 
L 131.452386 218.546457 
L 132.554374 216.711492 
L 132.633559 216.570271 
L 133.765967 214.678757 
L 133.900677 214.463448 
L 134.011246 214.295011 
L 134.109262 214.126271 
L 135.021819 212.647533 
L 135.124984 212.476375 
L 136.415761 210.287298 
L 136.537114 210.080456 
L 136.647361 209.899923 
L 136.735237 209.755981 
L 137.892912 207.816082 
L 137.983363 207.671535 
L 139.535515 204.991663 
L 139.645118 204.792079 
L 139.75617 204.604893 
L 140.988202 202.525285 
L 141.064168 202.39616 
L 141.17522 202.218349 
L 141.305102 202.006064 
L 141.416154 201.826136 
L 142.370074 200.269076 
L 142.450868 200.138742 
L 142.561276 199.955185 
L 142.653015 199.80217 
L 143.354412 198.720786 
L 143.626248 198.313151 
L 143.7373 198.13292 
L 144.521905 196.895195 
L 144.74755 196.530803 
L 145.467617 195.414038 
L 145.602328 195.198729 
L 146.466762 193.810711 
L 146.584091 193.6329 
L 147.254104 192.610182 
L 147.392677 192.392454 
L 148.247777 191.022277 
L 148.339676 190.882568 
L 149.015805 189.848057 
L 149.099335 189.719537 
L 149.210226 189.545052 
L 149.319347 189.385384 
L 149.908244 188.515076 
L 150.080616 188.27618 
L 150.747571 187.25951 
L 150.891938 187.038152 
L 151.506586 186.119762 
L 151.660449 185.892357 
L 152.296825 184.932841 
L 152.447952 184.70725 
L 153.138405 183.645825 
L 153.246399 183.486762 
L 153.357451 183.330724 
L 153.673225 182.881659 
L 153.784116 182.722597 
L 154.121134 182.253574 
L 154.635513 181.523579 
L 154.759602 181.342744 
L 154.870493 181.190636 
L 155.16985 180.756994 
L 155.280902 180.58644 
L 155.604401 180.130118 
L 155.715453 179.974684 
L 155.838254 179.794454 
L 155.949306 179.627529 
L 156.134231 179.38077 
L 156.615456 178.712768 
L 156.790081 178.472359 
L 157.293999 177.761416 
L 157.422433 177.594491 
L 157.904141 176.925884 
L 158.297972 176.403638 
L 158.408863 176.251229 
L 158.841161 175.692695 
L 158.952213 175.5421 
L 159.410906 174.916433 
L 159.606292 174.663022 
L 159.717183 174.528151 
L 159.936068 174.260224 
L 160.046798 174.114467 
L 160.174588 173.947845 
L 160.581296 173.418342 
L 160.678667 173.284681 
L 161.10163 172.734917 
L 161.212521 172.590974 
L 161.745892 171.937487 
L 162.133125 171.446389 
L 162.254478 171.292165 
L 162.36553 171.156085 
L 162.723793 170.719418 
L 163.25314 170.069862 
L 163.364192 169.930153 
L 163.860224 169.311745 
L 163.971275 169.185341 
L 164.345311 168.681542 
L 164.711299 168.230059 
L 164.883349 168.026543 
L 164.994401 167.884717 
L 165.374875 167.405413 
L 165.491721 167.263889 
L 165.879919 166.77007 
L 166.027989 166.595887 
L 166.467046 166.031003 
L 166.578098 165.88706 
L 167.064795 165.277421 
L 167.175847 165.128943 
L 167.305407 164.961715 
L 167.834755 164.312159 
L 167.945645 164.17366 
L 168.396613 163.597587 
L 168.507665 163.465741 
L 168.864962 163.029679 
L 168.987602 162.881805 
L 169.182989 162.628394 
L 169.29388 162.485056 
L 169.797315 161.859692 
L 170.180524 161.376154 
L 170.390879 161.113368 
L 170.767007 160.642833 
L 170.92248 160.44718 
L 171.281065 160.009909 
L 171.50687 159.737446 
L 172.116207 159.012593 
L 172.226615 158.88256 
L 172.369051 158.721683 
L 172.710254 158.316769 
L 172.854783 158.143796 
L 172.996897 157.954494 
L 173.356448 157.513896 
L 173.483433 157.369954 
L 173.594002 157.232664 
L 173.727264 157.082069 
L 173.837511 156.949617 
L 173.953553 156.808396 
L 174.592825 156.055419 
L 174.93435 155.649598 
L 175.040413 155.516844 
L 175.151465 155.373506 
L 175.275231 155.22533 
L 175.449373 155.020908 
L 175.560264 154.892085 
L 175.703344 154.719717 
L 176.017508 154.365908 
L 176.64133 153.627447 
L 176.978992 153.229488 
L 177.709199 152.391234 
L 177.819768 152.265133 
L 177.967998 152.102442 
L 178.299383 151.716276 
L 179.151908 150.76311 
L 179.262638 150.649408 
L 179.502284 150.368478 
L 179.613336 150.246308 
L 179.901105 149.940581 
L 180.023745 149.797848 
L 180.80127 148.915142 
L 180.911839 148.794786 
L 181.060713 148.631792 
L 182.176221 147.431565 
L 182.28679 147.313932 
L 182.440492 147.149426 
L 182.551383 147.033304 
L 183.641623 145.856664 
L 183.930197 145.550635 
L 184.12333 145.337443 
L 184.2339 145.221926 
L 184.404501 145.039276 
L 184.515392 144.926783 
L 184.714481 144.710567 
L 184.990179 144.42873 
L 185.292594 144.108488 
L 185.403646 143.989644 
L 185.676286 143.712948 
L 185.823229 143.564469 
L 186.131116 143.22185 
L 186.348231 142.997166 
L 186.638092 142.68902 
L 186.797267 142.510604 
L 187.095658 142.192781 
L 187.36685 141.919714 
L 189.034882 140.200265 
L 189.145934 140.087772 
L 189.412136 139.824079 
L 189.743361 139.485693 
L 189.854413 139.371688 
L 190.138641 139.073219 
L 190.281399 138.919902 
L 190.392451 138.802571 
L 190.601357 138.605405 
L 193.317461 135.901341 
L 193.587687 135.629483 
L 193.788707 135.435342 
L 208.469928 121.794666 
L 208.661935 121.635603 
L 208.772665 121.534602 
L 209.320682 121.060438 
L 209.553569 120.859039 
L 209.825083 120.608954 
L 209.936135 120.499485 
L 210.222134 120.242445 
L 212.658998 118.105381 
L 212.966403 117.838362 
L 213.190921 117.652386 
L 213.519248 117.375689 
L 213.6303 117.281643 
L 213.851599 117.102319 
L 215.428214 115.772967 
L 215.637764 115.609671 
L 215.748816 115.517137 
L 215.966252 115.332672 
L 216.077143 115.24044 
L 216.279612 115.071096 
L 216.504612 114.884213 
L 216.757779 114.670416 
L 218.023931 113.63288 
L 218.257945 113.443275 
L 219.364923 112.555427 
L 219.594591 112.378826 
L 219.70516 112.291129 
L 220.019163 112.021086 
L 220.238531 111.844786 
L 220.619487 111.543293 
L 220.83966 111.365482 
L 221.078019 111.186461 
L 221.37802 110.955125 
L 222.714988 109.851363 
L 222.954796 109.659944 
L 223.166277 109.499067 
L 223.879424 108.921482 
L 224.10877 108.727039 
L 224.430498 108.453366 
L 224.541228 108.369904 
L 224.826905 108.144011 
L 224.936992 108.058431 
L 225.116767 107.907534 
L 225.227819 107.81258 
L 225.441714 107.646562 
L 225.618271 107.510784 
L 225.729001 107.420064 
L 225.945954 107.235902 
L 226.056362 107.147904 
L 226.295526 106.956787 
L 226.504594 106.797724 
L 226.689197 106.664366 
L 227.461249 106.090712 
L 227.695907 105.928323 
L 228.023268 105.686705 
L 228.133998 105.595683 
L 229.379067 104.684853 
L 229.595377 104.512787 
L 229.793661 104.362494 
L 229.903103 104.273286 
L 230.084649 104.134786 
L 230.922366 103.499443 
L 231.12065 103.34915 
L 231.329718 103.191902 
L 231.629558 102.981734 
L 231.844258 102.813599 
L 232.046888 102.657863 
L 232.264807 102.484588 
L 232.573982 102.249925 
L 232.684873 102.170091 
L 232.915345 102.008609 
L 233.97066 101.216623 
L 234.772487 100.615451 
L 235.006018 100.446711 
L 235.11707 100.362946 
L 235.331126 100.209932 
L 235.442178 100.124957 
L 235.635312 99.975874 
L 235.746364 99.899669 
L 235.958811 99.746957 
L 236.068253 99.666518 
L 236.245293 99.538301 
L 236.452911 99.386496 
L 236.563963 99.299404 
L 236.766754 99.148507 
L 236.877806 99.059298 
L 237.114394 98.90205 
L 237.225446 98.822519 
L 237.423408 98.672528 
L 237.53446 98.587554 
L 237.76944 98.430608 
L 237.880491 98.342307 
L 238.08972 98.1902 
L 238.200772 98.103713 
L 238.411609 97.951303 
L 238.522661 97.874796 
L 238.738327 97.721479 
L 238.849379 97.651927 
L 239.058607 97.49982 
L 239.169659 97.418172 
L 239.412686 97.259714 
L 239.523738 97.183811 
L 239.744232 97.029587 
L 239.855284 96.949753 
L 240.058074 96.798856 
L 240.169126 96.715393 
L 240.383183 96.562379 
L 240.494234 96.485871 
L 240.71151 96.332252 
L 240.822562 96.242439 
L 241.022133 96.092146 
L 241.133185 96.026223 
L 241.350461 95.872603 
L 241.461513 95.800632 
L 241.678788 95.647013 
L 241.78984 95.567481 
L 242.000677 95.415072 
L 242.111729 95.328585 
L 242.335443 95.173756 
L 242.444885 95.097551 
L 242.631581 94.968426 
L 242.741023 94.887383 
L 242.947033 94.756443 
L 243.164308 94.602824 
L 243.27536 94.530248 
L 243.492635 94.376629 
L 243.603687 94.303145 
L 243.846714 94.144688 
L 243.957766 94.072414 
L 244.171822 93.919399 
L 244.282874 93.844404 
L 244.517854 93.687458 
L 244.628905 93.615184 
L 244.860666 93.458843 
L 244.971718 93.380824 
L 245.201869 93.224786 
L 245.312921 93.146161 
L 245.559166 92.987099 
L 245.670218 92.903939 
L 245.910026 92.746086 
L 246.021078 92.672602 
L 246.249619 92.516866 
L 246.360671 92.440661 
L 246.576337 92.287344 
L 246.687389 92.212652 
L 246.967433 92.047238 
L 247.078485 91.961962 
L 247.32473 91.802899 
L 247.435782 91.729718 
L 247.682028 91.570656 
L 247.79147 91.492031 
L 247.981385 91.362604 
L 248.092437 91.290028 
L 248.338682 91.130965 
L 248.449734 91.063228 
L 248.654134 90.932591 
L 248.765186 90.854874 
L 248.996946 90.698533 
L 249.107998 90.632005 
L 249.354244 90.472942 
L 249.465296 90.402483 
L 249.730855 90.239791 
L 249.841906 90.173263 
L 250.109075 90.01027 
L 250.220127 89.941322 
L 250.469591 89.781655 
L 250.580643 89.712708 
L 250.802747 89.558181 
L 250.913799 89.478347 
L 251.145559 89.344989 
L 251.256611 89.27332 
L 251.501247 89.11456 
L 251.612299 89.044705 
L 251.844059 88.888364 
L 251.955111 88.821231 
L 252.233546 88.656121 
L 252.342988 88.587173 
L 252.6005 88.451396 
L 252.711552 88.384868 
L 252.965844 88.224293 
L 253.076896 88.151717 
L 253.369816 87.983885 
L 253.480868 87.913728 
L 253.686877 87.782788 
L 253.797929 87.71747 
L 254.08602 87.550545 
L 254.197072 87.478271 
L 254.489991 87.310439 
L 254.601043 87.252983 
L 254.876259 87.088477 
L 254.987311 87.022856 
L 255.296325 86.852 
L 255.407376 86.781238 
L 255.684201 86.61643 
L 255.795253 86.551112 
L 256.035061 86.417148 
L 256.146113 86.346991 
L 256.424547 86.181881 
L 256.535599 86.109305 
L 256.860708 85.935424 
L 256.97176 85.873735 
L 257.26307 85.706205 
L 257.372512 85.642398 
L 257.638071 85.506016 
L 257.749123 85.440395 
L 258.056527 85.269841 
L 258.167579 85.209059 
L 258.483031 85.036993 
L 258.594083 84.97621 
L 258.841938 84.84134 
L 259.130029 84.674415 
L 259.241081 84.616959 
L 259.574236 84.441567 
L 259.685288 84.372619 
L 259.958894 84.23533 
L 260.069946 84.182107 
L 260.414368 84.004598 
L 260.52542 83.942001 
L 260.853747 83.767516 
L 260.964799 83.703407 
L 261.318878 83.524084 
L 261.42993 83.469652 
L 261.80815 83.285792 
L 261.919202 83.230755 
L 262.237872 83.058085 
L 262.348924 83.002443 
L 262.741629 82.815862 
L 262.852681 82.753568 
L 263.172961 82.580595 
L 263.284013 82.52707 
L 263.626826 82.349863 
L 263.737877 82.293919 
L 264.032406 82.125784 
L 264.143458 82.073469 
L 264.513631 81.891122 
L 264.624683 81.835783 
L 265.015779 81.649504 
L 265.126831 81.592048 
L 265.487347 81.411515 
L 265.598399 81.361316 
L 265.870396 81.224329 
L 265.981448 81.159313 
L 266.374153 80.972732 
L 266.485205 80.921929 
L 266.853768 80.739884 
L 266.96482 80.685451 
L 267.252911 80.546952 
L 267.363963 80.487077 
L 267.796904 80.292936 
L 267.907956 80.237597 
L 268.179953 80.100609 
L 268.291005 80.044665 
L 268.678882 79.858991 
L 268.789934 79.800326 
L 269.172982 79.615559 
L 269.284034 79.572316 
L 269.556031 79.435328 
L 269.667083 79.38392 
L 270.100024 79.189779 
L 270.211076 79.141395 
L 270.616657 78.952395 
L 270.727709 78.908244 
L 271.120414 78.721663 
L 271.231466 78.66451 
L 271.574278 78.487303 
L 271.68533 78.426521 
L 272.024923 78.249919 
L 272.135975 78.197604 
L 272.494882 78.017373 
L 272.604325 77.963546 
L 272.906901 77.823534 
L 273.017953 77.76759 
L 273.380078 77.586755 
L 273.49113 77.538976 
L 273.858084 77.357233 
L 273.969136 77.300684 
L 274.435876 77.100193 
L 274.546928 77.045761 
L 274.981479 76.851317 
L 275.092531 76.809283 
L 275.382231 76.670482 
L 275.493283 76.618469 
L 275.926225 76.424328 
L 276.037276 76.371105 
L 276.452514 76.180291 
L 276.563566 76.127673 
L 277.072151 75.919319 
L 277.183203 75.875471 
L 277.666037 75.671956 
L 277.777089 75.6272 
L 278.290503 75.417939 
L 278.401555 75.369858 
L 278.762071 75.224403 
L 278.873123 75.173297 
L 279.397803 74.96192 
L 279.508855 74.912931 
L 279.962719 74.714858 
L 280.073771 74.669498 
L 280.625812 74.45298 
L 280.736864 74.409132 
L 281.247058 74.200475 
L 281.356501 74.158442 
L 281.689657 74.026293 
L 282.249744 73.808262 
L 282.360796 73.763809 
L 282.895133 73.550617 
L 283.006185 73.507676 
L 283.350607 73.363734 
L 283.461658 73.31293 
L 284.110266 73.078268 
L 284.221318 73.028069 
L 284.770139 72.812155 
L 284.881191 72.764376 
L 285.478296 72.53939 
L 285.587739 72.5028 
L 285.975616 72.354926 
L 286.086668 72.306239 
L 286.706305 72.07702 
L 286.817357 72.032265 
L 287.438604 71.802743 
L 287.548046 71.751637 
L 287.94558 71.602856 
L 288.056632 71.560218 
L 288.766398 71.314064 
L 288.87745 71.27324 
L 289.476164 71.047951 
L 289.587216 71.005918 
L 290.219729 70.774279 
L 290.330781 70.736781 
L 291.043766 70.490023 
L 291.154818 70.450408 
L 291.785722 70.219072 
L 291.896774 70.177946 
L 292.630682 69.927256 
L 292.741734 69.883105 
L 293.520706 69.623948 
L 293.630149 69.577983 
L 294.132296 69.419223 
L 294.867814 69.168231 
L 294.977256 69.133152 
L 295.439168 68.978323 
L 295.55022 68.93508 
L 295.930049 68.800209 
L 296.041101 68.764224 
L 296.80237 68.508393 
L 296.911812 68.467267 
L 297.426836 68.307297 
L 298.215465 68.046325 
L 298.326517 68.008828 
L 299.234245 67.725478 
L 299.343688 67.685562 
L 299.889291 67.52287 
L 300.000343 67.490816 
L 300.483177 67.33387 
L 301.452064 67.03903 
L 301.559897 67.011209 
L 301.981573 66.880269 
L 303.034151 66.569704 
L 303.145203 66.535231 
L 303.703682 66.37133 
L 303.813124 66.340787 
L 304.368383 66.194728 
L 304.479435 66.162069 
L 305.569031 65.844548 
L 305.680083 65.814006 
L 306.687598 65.511908 
L 306.798649 65.47562 
L 307.830305 65.168986 
L 307.941357 65.13421 
L 309.240182 64.777377 
L 309.351233 64.750464 
L 309.91615 64.585958 
L 310.027201 64.56358 
L 311.374309 64.197676 
L 311.485361 64.16925 
L 313.14792 63.744075 
L 313.258972 63.714742 
L 313.870562 63.5457 
L 315.573358 63.112966 
L 315.68441 63.08454 
L 317.6077 62.610376 
L 317.718752 62.578926 
L 318.504162 62.393555 
L 318.615214 62.365734 
L 320.744513 61.852863 
L 320.855565 61.825042 
L 321.573379 61.646021 
L 321.682821 61.619712 
L 322.262222 61.472141 
L 322.373274 61.44432 
L 325.197855 60.800812 
L 325.308907 60.773899 
L 329.61257 59.852485 
L 329.723622 59.831014 
L 330.898519 59.609052 
L 331.00957 59.587582 
L 331.899595 59.420657 
L 332.009037 59.39707 
L 333.13887 59.179341 
L 339.546081 58.087374 
L 340.405526 57.95341 
L 343.312188 57.520071 
L 344.548244 57.351029 
L 344.654468 57.336816 
L 345.92915 57.16596 
L 346.040202 57.146606 
L 348.241926 56.845415 
L 349.384634 56.680607 
L 351.515543 56.368832 
L 353.665765 56.077016 
L 354.756971 55.936702 
L 356.575646 55.70718 
L 358.006445 55.542372 
L 358.112669 55.530578 
L 359.776838 55.341276 
L 359.884671 55.330692 
L 361.919013 55.124152 
L 362.030065 55.115383 
L 363.270949 54.995027 
L 369.634705 54.48518 
L 370.553699 54.423188 
L 372.816583 54.269569 
L 373.740406 54.208484 
L 388.47168 53.626363 
L 398.487273 53.568 
L 398.487273 53.568 
" clip-path="url(#p67c1f37b81)" style="fill: none; stroke: #2ca02c; stroke-width: 1.5; stroke-linecap: square"/>
   </g>
   <g id="line2d_28">
    <path d="M 73.832727 295.487966 
L 73.943837 88.055083 
L 74.371254 71.449606 
L 74.892153 65.727183 
L 74.964987 65.221167 
L 75.088378 64.50851 
L 75.273629 63.597613 
L 75.427369 62.985756 
L 75.611303 62.402459 
L 76.206737 61.017465 
L 76.310919 60.831321 
L 76.440254 60.611913 
L 76.523128 60.473817 
L 76.635202 60.311528 
L 76.809916 60.077 
L 77.237984 59.556199 
L 77.685844 59.116711 
L 77.871098 58.948039 
L 79.111246 58.04823 
L 79.645927 57.738773 
L 79.794751 57.650741 
L 80.168897 57.462581 
L 81.076078 57.011332 
L 81.422762 56.865508 
L 81.542767 56.815444 
L 83.446693 56.150163 
L 83.693534 56.082627 
L 90.449137 54.767185 
L 92.676266 54.483265 
L 92.846763 54.464785 
L 93.263523 54.418081 
L 99.003196 54.080065 
L 106.664131 53.820336 
L 144.202761 53.582112 
L 398.487273 53.568 
L 398.487273 53.568 
" clip-path="url(#p67c1f37b81)" style="fill: none; stroke: #d62728; stroke-width: 1.5; stroke-linecap: square"/>
   </g>
   <g id="patch_3">
    <path d="M 57.6 307.584 
L 57.6 41.472 
" style="fill: none; stroke: #000000; stroke-width: 0.8; stroke-linejoin: miter; stroke-linecap: square"/>
   </g>
   <g id="patch_4">
    <path d="M 414.72 307.584 
L 414.72 41.472 
" style="fill: none; stroke: #000000; stroke-width: 0.8; stroke-linejoin: miter; stroke-linecap: square"/>
   </g>
   <g id="patch_5">
    <path d="M 57.6 307.584 
L 414.72 307.584 
" style="fill: none; stroke: #000000; stroke-width: 0.8; stroke-linejoin: miter; stroke-linecap: square"/>
   </g>
   <g id="patch_6">
    <path d="M 57.6 41.472 
L 414.72 41.472 
" style="fill: none; stroke: #000000; stroke-width: 0.8; stroke-linejoin: miter; stroke-linecap: square"/>
   </g>
   <g id="legend_1">
    <g id="patch_7">
     <path d="M 328.890313 302.584 
L 407.72 302.584 
Q 409.72 302.584 409.72 300.584 
L 409.72 242.8715 
Q 409.72 240.8715 407.72 240.8715 
L 328.890313 240.8715 
Q 326.890313 240.8715 326.890313 242.8715 
L 326.890313 300.584 
Q 326.890313 302.584 328.890313 302.584 
z
" style="fill: #ffffff; opacity: 0.8; stroke: #cccccc; stroke-linejoin: miter"/>
    </g>
    <g id="line2d_29">
     <path d="M 330.890313 248.969937 
L 340.890313 248.969937 
L 350.890313 248.969937 
" style="fill: none; stroke: #1f77b4; stroke-width: 1.5; stroke-linecap: square"/>
    </g>
    <g id="text_15">
     <!-- Abilene -->
     <g transform="translate(358.890313 252.469937)scale(0.1 -0.1)">
      <defs>
       <path id="DejaVuSans-41" d="M 2188 4044 
L 1331 1722 
L 3047 1722 
L 2188 4044 
z
M 1831 4666 
L 2547 4666 
L 4325 0 
L 3669 0 
L 3244 1197 
L 1141 1197 
L 716 0 
L 50 0 
L 1831 4666 
z
" transform="scale(0.015625)"/>
       <path id="DejaVuSans-6e" d="M 3513 2113 
L 3513 0 
L 2938 0 
L 2938 2094 
Q 2938 2591 2744 2837 
Q 2550 3084 2163 3084 
Q 1697 3084 1428 2787 
Q 1159 2491 1159 1978 
L 1159 0 
L 581 0 
L 581 3500 
L 1159 3500 
L 1159 2956 
Q 1366 3272 1645 3428 
Q 1925 3584 2291 3584 
Q 2894 3584 3203 3211 
Q 3513 2838 3513 2113 
z
" transform="scale(0.015625)"/>
      </defs>
      <use xlink:href="#DejaVuSans-41"/>
      <use xlink:href="#DejaVuSans-62" x="68.408203"/>
      <use xlink:href="#DejaVuSans-69" x="131.884766"/>
      <use xlink:href="#DejaVuSans-6c" x="159.667969"/>
      <use xlink:href="#DejaVuSans-65" x="187.451172"/>
      <use xlink:href="#DejaVuSans-6e" x="248.974609"/>
      <use xlink:href="#DejaVuSans-65" x="312.353516"/>
     </g>
    </g>
    <g id="line2d_30">
     <path d="M 330.890313 263.648062 
L 340.890313 263.648062 
L 350.890313 263.648062 
" style="fill: none; stroke: #ff7f0e; stroke-width: 1.5; stroke-linecap: square"/>
    </g>
    <g id="text_16">
     <!-- Geant -->
     <g transform="translate(358.890313 267.148062)scale(0.1 -0.1)">
      <defs>
       <path id="DejaVuSans-47" d="M 3809 666 
L 3809 1919 
L 2778 1919 
L 2778 2438 
L 4434 2438 
L 4434 434 
Q 4069 175 3628 42 
Q 3188 -91 2688 -91 
Q 1594 -91 976 548 
Q 359 1188 359 2328 
Q 359 3472 976 4111 
Q 1594 4750 2688 4750 
Q 3144 4750 3555 4637 
Q 3966 4525 4313 4306 
L 4313 3634 
Q 3963 3931 3569 4081 
Q 3175 4231 2741 4231 
Q 1884 4231 1454 3753 
Q 1025 3275 1025 2328 
Q 1025 1384 1454 906 
Q 1884 428 2741 428 
Q 3075 428 3337 486 
Q 3600 544 3809 666 
z
" transform="scale(0.015625)"/>
      </defs>
      <use xlink:href="#DejaVuSans-47"/>
      <use xlink:href="#DejaVuSans-65" x="77.490234"/>
      <use xlink:href="#DejaVuSans-61" x="139.013672"/>
      <use xlink:href="#DejaVuSans-6e" x="200.292969"/>
      <use xlink:href="#DejaVuSans-74" x="263.671875"/>
     </g>
    </g>
    <g id="line2d_31">
     <path d="M 330.890313 278.326187 
L 340.890313 278.326187 
L 350.890313 278.326187 
" style="fill: none; stroke: #2ca02c; stroke-width: 1.5; stroke-linecap: square"/>
    </g>
    <g id="text_17">
     <!-- Gnnet-40 -->
     <g transform="translate(358.890313 281.826187)scale(0.1 -0.1)">
      <defs>
       <path id="DejaVuSans-2d" d="M 313 2009 
L 1997 2009 
L 1997 1497 
L 313 1497 
L 313 2009 
z
" transform="scale(0.015625)"/>
      </defs>
      <use xlink:href="#DejaVuSans-47"/>
      <use xlink:href="#DejaVuSans-6e" x="77.490234"/>
      <use xlink:href="#DejaVuSans-6e" x="140.869141"/>
      <use xlink:href="#DejaVuSans-65" x="204.248047"/>
      <use xlink:href="#DejaVuSans-74" x="265.771484"/>
      <use xlink:href="#DejaVuSans-2d" x="304.980469"/>
      <use xlink:href="#DejaVuSans-34" x="341.064453"/>
      <use xlink:href="#DejaVuSans-30" x="404.6875"/>
     </g>
    </g>
    <g id="line2d_32">
     <path d="M 330.890313 293.004312 
L 340.890313 293.004312 
L 350.890313 293.004312 
" style="fill: none; stroke: #d62728; stroke-width: 1.5; stroke-linecap: square"/>
    </g>
    <g id="text_18">
     <!-- Germany -->
     <g transform="translate(358.890313 296.504312)scale(0.1 -0.1)">
      <use xlink:href="#DejaVuSans-47"/>
      <use xlink:href="#DejaVuSans-65" x="77.490234"/>
      <use xlink:href="#DejaVuSans-72" x="139.013672"/>
      <use xlink:href="#DejaVuSans-6d" x="178.376953"/>
      <use xlink:href="#DejaVuSans-61" x="275.789062"/>
      <use xlink:href="#DejaVuSans-6e" x="337.068359"/>
      <use xlink:href="#DejaVuSans-79" x="400.447266"/>
     </g>
    </g>
   </g>
  </g>
 </g>
 <defs>
  <clipPath id="p67c1f37b81">
   <rect x="57.6" y="41.472" width="357.12" height="266.112"/>
  </clipPath>
 </defs>
</svg>
